STARTFONT 2.1
COMMENT
COMMENT Converted from OpenType font "IBMPlexMono-Medium.ttf" by "otf2bdf 3.0".
COMMENT
FONT -FreeType-IBM Plex Mono Medium-Medium-R-Normal--17-120-100-100-P-85-ISO10646-1
SIZE 12 100 100
FONTBOUNDINGBOX 14 28 -3 -7
STARTPROPERTIES 19
FOUNDRY "FreeType"
FAMILY_NAME "IBM Plex Mono Medium"
WEIGHT_NAME "Medium"
SLANT "R"
SETWIDTH_NAME "Normal"
ADD_STYLE_NAME ""
PIXEL_SIZE 17
POINT_SIZE 120
RESOLUTION_X 100
RESOLUTION_Y 100
SPACING "P"
AVERAGE_WIDTH 85
CHARSET_REGISTRY "ISO10646"
CHARSET_ENCODING "1"
FONT_ASCENT 17
FONT_DESCENT 4
COPYRIGHT "Copyright 2017 IBM Corp. All rights reserved."
_OTF_FONTFILE "IBMPlexMono-Medium.ttf"
_OTF_PSNAME "IBMPlexMono-Medium"
ENDPROPERTIES
CHARS 930
STARTCHAR 0000
ENCODING 0
SWIDTH 0 0
DWIDTH 0 0
BBX 0 0 0 0
BITMAP
ENDCHAR
STARTCHAR 000D
ENCODING 13
SWIDTH 600 0
DWIDTH 10 0
BBX 0 0 0 0
BITMAP
ENDCHAR
STARTCHAR 0020
ENCODING 32
SWIDTH 600 0
DWIDTH 10 0
BBX 0 0 0 0
BITMAP
ENDCHAR
STARTCHAR 0021
ENCODING 33
SWIDTH 600 0
DWIDTH 10 0
BBX 3 12 4 0
BITMAP
C0
C0
C0
C0
C0
40
40
00
00
C0
E0
C0
ENDCHAR
STARTCHAR 0022
ENCODING 34
SWIDTH 600 0
DWIDTH 10 0
BBX 5 5 3 8
BITMAP
98
98
98
98
98
ENDCHAR
STARTCHAR 0023
ENCODING 35
SWIDTH 600 0
DWIDTH 10 0
BBX 10 12 0 0
BITMAP
0980
1900
1900
7BC0
7BC0
1300
1200
F380
F780
3600
2600
2600
ENDCHAR
STARTCHAR 0024
ENCODING 36
SWIDTH 600 0
DWIDTH 10 0
BBX 9 16 1 -2
BITMAP
0800
0800
3E00
7F00
CB00
C800
E800
7E00
3F00
0B00
8980
CB00
FF00
3E00
0800
0800
ENDCHAR
STARTCHAR 0025
ENCODING 37
SWIDTH 600 0
DWIDTH 10 0
BBX 10 12 0 0
BITMAP
70C0
7880
C980
C900
7B00
7000
0380
17C0
34C0
24C0
67C0
C380
ENDCHAR
STARTCHAR 0026
ENCODING 38
SWIDTH 600 0
DWIDTH 10 0
BBX 10 12 0 0
BITMAP
1C00
3E00
6300
6000
3000
39C0
7DC0
4D00
C700
E300
7D80
39C0
ENDCHAR
STARTCHAR 0027
ENCODING 39
SWIDTH 600 0
DWIDTH 10 0
BBX 2 5 4 8
BITMAP
C0
C0
C0
C0
C0
ENDCHAR
STARTCHAR 0028
ENCODING 40
SWIDTH 600 0
DWIDTH 10 0
BBX 6 15 3 -2
BITMAP
1C
30
20
60
40
C0
C0
C0
C0
C0
40
60
20
30
1C
ENDCHAR
STARTCHAR 0029
ENCODING 41
SWIDTH 600 0
DWIDTH 10 0
BBX 5 15 2 -2
BITMAP
C0
60
30
10
10
18
18
18
18
18
10
10
30
60
C0
ENDCHAR
STARTCHAR 002A
ENCODING 42
SWIDTH 600 0
DWIDTH 10 0
BBX 9 9 1 0
BITMAP
1800
1800
9900
FF00
3C80
3C00
3600
6600
4400
ENDCHAR
STARTCHAR 002B
ENCODING 43
SWIDTH 600 0
DWIDTH 10 0
BBX 8 8 1 1
BITMAP
18
18
18
FF
FF
18
18
18
ENDCHAR
STARTCHAR 002C
ENCODING 44
SWIDTH 600 0
DWIDTH 10 0
BBX 4 5 3 -2
BITMAP
70
60
60
40
C0
ENDCHAR
STARTCHAR 002D
ENCODING 45
SWIDTH 600 0
DWIDTH 10 0
BBX 5 2 3 4
BITMAP
F8
F8
ENDCHAR
STARTCHAR 002E
ENCODING 46
SWIDTH 600 0
DWIDTH 10 0
BBX 3 3 4 0
BITMAP
C0
E0
C0
ENDCHAR
STARTCHAR 002F
ENCODING 47
SWIDTH 600 0
DWIDTH 10 0
BBX 8 15 1 -2
BITMAP
03
02
06
04
0C
0C
08
18
18
10
30
20
60
60
C0
ENDCHAR
STARTCHAR 0030
ENCODING 48
SWIDTH 600 0
DWIDTH 10 0
BBX 8 12 1 0
BITMAP
3C
7E
E3
C3
C3
DB
DB
C3
C3
E3
7E
3C
ENDCHAR
STARTCHAR 0031
ENCODING 49
SWIDTH 600 0
DWIDTH 10 0
BBX 9 12 1 0
BITMAP
3C00
7C00
6C00
CC00
CC00
0C00
0C00
0C00
0C00
0C00
FF80
FF80
ENDCHAR
STARTCHAR 0032
ENCODING 50
SWIDTH 600 0
DWIDTH 10 0
BBX 8 12 1 0
BITMAP
3C
7E
C7
43
03
06
0E
1C
30
60
FF
FF
ENDCHAR
STARTCHAR 0033
ENCODING 51
SWIDTH 600 0
DWIDTH 10 0
BBX 8 12 1 0
BITMAP
3C
7E
C7
03
06
3C
3E
03
83
C3
FE
3C
ENDCHAR
STARTCHAR 0034
ENCODING 52
SWIDTH 600 0
DWIDTH 10 0
BBX 9 12 1 0
BITMAP
0E00
0E00
1E00
3600
2600
6600
4600
8600
FF80
FF80
0600
0600
ENDCHAR
STARTCHAR 0035
ENCODING 53
SWIDTH 600 0
DWIDTH 10 0
BBX 8 12 1 0
BITMAP
7F
7F
40
40
5E
FF
C3
03
83
C3
7E
3C
ENDCHAR
STARTCHAR 0036
ENCODING 54
SWIDTH 600 0
DWIDTH 10 0
BBX 8 12 1 0
BITMAP
0E
38
30
60
DE
FF
C3
C3
C3
C3
7E
3C
ENDCHAR
STARTCHAR 0037
ENCODING 55
SWIDTH 600 0
DWIDTH 10 0
BBX 8 12 1 0
BITMAP
FF
FF
C3
C2
06
06
0C
0C
18
18
18
30
ENDCHAR
STARTCHAR 0038
ENCODING 56
SWIDTH 600 0
DWIDTH 10 0
BBX 8 12 1 0
BITMAP
3C
7F
C3
C3
C3
7E
7E
C3
C3
C3
FF
3E
ENDCHAR
STARTCHAR 0039
ENCODING 57
SWIDTH 600 0
DWIDTH 10 0
BBX 8 12 1 0
BITMAP
3C
7E
C3
C3
C3
C3
FF
3B
06
0E
1C
78
ENDCHAR
STARTCHAR 003A
ENCODING 58
SWIDTH 600 0
DWIDTH 10 0
BBX 3 9 4 0
BITMAP
C0
E0
C0
00
00
00
C0
E0
C0
ENDCHAR
STARTCHAR 003B
ENCODING 59
SWIDTH 600 0
DWIDTH 10 0
BBX 4 11 3 -2
BITMAP
60
70
60
00
00
00
70
60
60
40
C0
ENDCHAR
STARTCHAR 003C
ENCODING 60
SWIDTH 600 0
DWIDTH 10 0
BBX 8 10 1 0
BITMAP
01
07
1E
38
E0
E0
38
1E
07
01
ENDCHAR
STARTCHAR 003D
ENCODING 61
SWIDTH 600 0
DWIDTH 10 0
BBX 8 6 1 2
BITMAP
FF
FF
00
00
FF
FF
ENDCHAR
STARTCHAR 003E
ENCODING 62
SWIDTH 600 0
DWIDTH 10 0
BBX 8 10 1 0
BITMAP
80
E0
38
1E
07
07
1E
38
E0
80
ENDCHAR
STARTCHAR 003F
ENCODING 63
SWIDTH 600 0
DWIDTH 10 0
BBX 8 12 1 0
BITMAP
3C
7E
E3
43
06
1C
18
00
00
18
38
18
ENDCHAR
STARTCHAR 0040
ENCODING 64
SWIDTH 600 0
DWIDTH 10 0
BBX 8 14 1 -2
BITMAP
3C
7E
C3
CD
DF
91
91
91
9F
DD
C0
60
7E
3E
ENDCHAR
STARTCHAR 0041
ENCODING 65
SWIDTH 600 0
DWIDTH 10 0
BBX 10 12 0 0
BITMAP
0E00
1E00
1E00
1A00
1300
3300
3300
3F80
7F80
6180
6180
C0C0
ENDCHAR
STARTCHAR 0042
ENCODING 66
SWIDTH 600 0
DWIDTH 10 0
BBX 8 12 1 0
BITMAP
FE
FF
C3
C3
C3
FE
FE
C3
C3
C3
FF
FE
ENDCHAR
STARTCHAR 0043
ENCODING 67
SWIDTH 600 0
DWIDTH 10 0
BBX 8 12 1 0
BITMAP
3C
7E
63
C3
C0
C0
C0
C0
C3
63
7E
3C
ENDCHAR
STARTCHAR 0044
ENCODING 68
SWIDTH 600 0
DWIDTH 10 0
BBX 8 12 1 0
BITMAP
FC
FE
C7
C3
C3
C3
C3
C3
C3
C7
FE
FC
ENDCHAR
STARTCHAR 0045
ENCODING 69
SWIDTH 600 0
DWIDTH 10 0
BBX 8 12 1 0
BITMAP
FF
FF
C0
C0
C0
FF
FF
C0
C0
C0
FF
FF
ENDCHAR
STARTCHAR 0046
ENCODING 70
SWIDTH 600 0
DWIDTH 10 0
BBX 8 12 1 0
BITMAP
FF
FF
C0
C0
C0
FF
FF
C0
C0
C0
C0
C0
ENDCHAR
STARTCHAR 0047
ENCODING 71
SWIDTH 600 0
DWIDTH 10 0
BBX 8 12 1 0
BITMAP
3C
7E
E3
C3
C0
CF
CF
C3
C3
E3
7F
3B
ENDCHAR
STARTCHAR 0048
ENCODING 72
SWIDTH 600 0
DWIDTH 10 0
BBX 8 12 1 0
BITMAP
C3
C3
C3
C3
C3
FF
FF
C3
C3
C3
C3
C3
ENDCHAR
STARTCHAR 0049
ENCODING 73
SWIDTH 600 0
DWIDTH 10 0
BBX 8 12 1 0
BITMAP
FF
FF
18
18
18
18
18
18
18
18
FF
FF
ENDCHAR
STARTCHAR 004A
ENCODING 74
SWIDTH 600 0
DWIDTH 10 0
BBX 7 12 1 0
BITMAP
7E
7E
06
06
06
06
06
06
46
C6
7E
3C
ENDCHAR
STARTCHAR 004B
ENCODING 75
SWIDTH 600 0
DWIDTH 10 0
BBX 9 12 1 0
BITMAP
C380
C300
C600
CC00
D800
F800
FC00
EC00
C600
C700
C300
C180
ENDCHAR
STARTCHAR 004C
ENCODING 76
SWIDTH 600 0
DWIDTH 10 0
BBX 7 12 2 0
BITMAP
C0
C0
C0
C0
C0
C0
C0
C0
C0
C0
FE
FE
ENDCHAR
STARTCHAR 004D
ENCODING 77
SWIDTH 600 0
DWIDTH 10 0
BBX 8 12 1 0
BITMAP
C3
E3
E7
F5
FD
D9
D9
C9
D1
C1
C1
C1
ENDCHAR
STARTCHAR 004E
ENCODING 78
SWIDTH 600 0
DWIDTH 10 0
BBX 8 12 1 0
BITMAP
E3
E3
F3
F3
D3
DB
DB
CB
CF
C7
C7
C7
ENDCHAR
STARTCHAR 004F
ENCODING 79
SWIDTH 600 0
DWIDTH 10 0
BBX 8 12 1 0
BITMAP
3C
7E
E3
C3
C3
C3
C3
C3
C3
E3
7E
3C
ENDCHAR
STARTCHAR 0050
ENCODING 80
SWIDTH 600 0
DWIDTH 10 0
BBX 8 12 1 0
BITMAP
FE
FF
C3
C3
C3
C3
FF
FE
C0
C0
C0
C0
ENDCHAR
STARTCHAR 0051
ENCODING 81
SWIDTH 600 0
DWIDTH 10 0
BBX 8 15 1 -3
BITMAP
3C
7E
E3
C3
C3
C3
C3
C3
C3
E3
7E
3C
18
1F
0F
ENDCHAR
STARTCHAR 0052
ENCODING 82
SWIDTH 600 0
DWIDTH 10 0
BBX 9 12 1 0
BITMAP
FE00
FF00
C300
C300
C300
C300
FF00
FE00
CC00
C600
C700
C380
ENDCHAR
STARTCHAR 0053
ENCODING 83
SWIDTH 600 0
DWIDTH 10 0
BBX 8 12 1 0
BITMAP
3C
7F
C3
C0
E0
7E
3F
03
83
C3
FF
3C
ENDCHAR
STARTCHAR 0054
ENCODING 84
SWIDTH 600 0
DWIDTH 10 0
BBX 10 12 0 0
BITMAP
FFC0
FFC0
0C00
0C00
0C00
0C00
0C00
0C00
0C00
0C00
0C00
0C00
ENDCHAR
STARTCHAR 0055
ENCODING 85
SWIDTH 600 0
DWIDTH 10 0
BBX 8 12 1 0
BITMAP
C3
C3
C3
C3
C3
C3
C3
C3
C3
E3
7E
3C
ENDCHAR
STARTCHAR 0056
ENCODING 86
SWIDTH 600 0
DWIDTH 10 0
BBX 10 12 0 0
BITMAP
E0C0
6180
6180
6180
3180
3300
3300
1300
1A00
1E00
1E00
0E00
ENDCHAR
STARTCHAR 0057
ENCODING 87
SWIDTH 600 0
DWIDTH 10 0
BBX 10 12 0 0
BITMAP
C0C0
40C0
40C0
4CC0
4C80
4E80
4E80
7A80
7280
7280
7380
7380
ENDCHAR
STARTCHAR 0058
ENCODING 88
SWIDTH 600 0
DWIDTH 10 0
BBX 10 12 0 0
BITMAP
61C0
7180
3300
1B00
1E00
0E00
0E00
1E00
3300
3300
6180
E1C0
ENDCHAR
STARTCHAR 0059
ENCODING 89
SWIDTH 600 0
DWIDTH 10 0
BBX 10 12 0 0
BITMAP
E0C0
6180
6180
3300
3300
1E00
1E00
0C00
0C00
0C00
0C00
0C00
ENDCHAR
STARTCHAR 005A
ENCODING 90
SWIDTH 600 0
DWIDTH 10 0
BBX 8 12 1 0
BITMAP
FF
FF
03
06
0C
18
18
30
60
C0
FF
FF
ENDCHAR
STARTCHAR 005B
ENCODING 91
SWIDTH 600 0
DWIDTH 10 0
BBX 5 15 4 -2
BITMAP
F8
F8
80
80
80
80
80
80
80
80
80
80
80
F8
F8
ENDCHAR
STARTCHAR 005C
ENCODING 92
SWIDTH 600 0
DWIDTH 10 0
BBX 8 15 1 -2
BITMAP
C0
60
60
20
30
10
18
18
08
0C
0C
04
06
02
03
ENDCHAR
STARTCHAR 005D
ENCODING 93
SWIDTH 600 0
DWIDTH 10 0
BBX 5 15 2 -2
BITMAP
F8
F8
18
18
18
18
18
18
18
18
18
18
18
F8
F8
ENDCHAR
STARTCHAR 005E
ENCODING 94
SWIDTH 600 0
DWIDTH 10 0
BBX 9 7 1 5
BITMAP
1800
3C00
3400
6600
6200
C300
8180
ENDCHAR
STARTCHAR 005F
ENCODING 95
SWIDTH 600 0
DWIDTH 10 0
BBX 8 2 1 -3
BITMAP
FF
FF
ENDCHAR
STARTCHAR 0060
ENCODING 96
SWIDTH 600 0
DWIDTH 10 0
BBX 3 4 3 10
BITMAP
40
C0
60
20
ENDCHAR
STARTCHAR 0061
ENCODING 97
SWIDTH 600 0
DWIDTH 10 0
BBX 9 9 1 0
BITMAP
3C00
7E00
C600
0200
7E00
C200
C600
FB80
7B80
ENDCHAR
STARTCHAR 0062
ENCODING 98
SWIDTH 600 0
DWIDTH 10 0
BBX 8 13 1 0
BITMAP
C0
C0
C0
C0
DE
FF
E3
C3
C3
C3
E3
FF
DE
ENDCHAR
STARTCHAR 0063
ENCODING 99
SWIDTH 600 0
DWIDTH 10 0
BBX 8 9 1 0
BITMAP
3C
7E
63
C0
C0
C0
63
7E
3C
ENDCHAR
STARTCHAR 0064
ENCODING 100
SWIDTH 600 0
DWIDTH 10 0
BBX 8 13 1 0
BITMAP
03
03
03
03
7B
7F
C3
C3
C3
C3
C3
7F
7B
ENDCHAR
STARTCHAR 0065
ENCODING 101
SWIDTH 600 0
DWIDTH 10 0
BBX 8 9 1 0
BITMAP
3C
7E
E3
C3
FF
C0
E2
7F
3C
ENDCHAR
STARTCHAR 0066
ENCODING 102
SWIDTH 600 0
DWIDTH 10 0
BBX 8 13 1 0
BITMAP
0F
1F
18
18
FF
FF
18
18
18
18
18
FF
FF
ENDCHAR
STARTCHAR 0067
ENCODING 103
SWIDTH 600 0
DWIDTH 10 0
BBX 9 14 1 -3
BITMAP
0300
0300
3E00
7E00
C300
4300
7E00
3C00
4000
7F00
7F80
C180
FF00
7E00
ENDCHAR
STARTCHAR 0068
ENCODING 104
SWIDTH 600 0
DWIDTH 10 0
BBX 8 13 1 0
BITMAP
C0
C0
C0
C0
DE
DE
E3
C3
C3
C3
C3
C3
C3
ENDCHAR
STARTCHAR 0069
ENCODING 105
SWIDTH 600 0
DWIDTH 10 0
BBX 7 13 2 0
BITMAP
38
38
00
00
F8
F8
18
18
18
18
18
FE
FE
ENDCHAR
STARTCHAR 006A
ENCODING 106
SWIDTH 600 0
DWIDTH 10 0
BBX 6 16 2 -3
BITMAP
1C
1C
00
00
F8
F8
08
08
08
08
08
08
08
08
F8
F8
ENDCHAR
STARTCHAR 006B
ENCODING 107
SWIDTH 600 0
DWIDTH 10 0
BBX 9 13 1 0
BITMAP
C000
C000
C000
C000
C300
C600
CC00
D800
FC00
EC00
C600
C300
C380
ENDCHAR
STARTCHAR 006C
ENCODING 108
SWIDTH 600 0
DWIDTH 10 0
BBX 8 13 1 0
BITMAP
F8
F8
18
18
18
18
18
18
18
18
18
FF
FF
ENDCHAR
STARTCHAR 006D
ENCODING 109
SWIDTH 600 0
DWIDTH 10 0
BBX 8 9 1 0
BITMAP
B7
BF
D9
99
99
99
99
99
99
ENDCHAR
STARTCHAR 006E
ENCODING 110
SWIDTH 600 0
DWIDTH 10 0
BBX 8 9 1 0
BITMAP
DE
DE
E3
C3
C3
C3
C3
C3
C3
ENDCHAR
STARTCHAR 006F
ENCODING 111
SWIDTH 600 0
DWIDTH 10 0
BBX 8 9 1 0
BITMAP
3C
7E
C3
C3
C3
C3
C3
7E
3C
ENDCHAR
STARTCHAR 0070
ENCODING 112
SWIDTH 600 0
DWIDTH 10 0
BBX 8 12 1 -3
BITMAP
DE
FF
E3
C3
C3
C3
E3
FF
DE
C0
C0
C0
ENDCHAR
STARTCHAR 0071
ENCODING 113
SWIDTH 600 0
DWIDTH 10 0
BBX 8 12 1 -3
BITMAP
7B
7F
C3
C3
C3
C3
C3
7F
7B
03
03
03
ENDCHAR
STARTCHAR 0072
ENCODING 114
SWIDTH 600 0
DWIDTH 10 0
BBX 9 9 1 0
BITMAP
F380
F780
1800
1800
1000
1000
1000
FF00
FF00
ENDCHAR
STARTCHAR 0073
ENCODING 115
SWIDTH 600 0
DWIDTH 10 0
BBX 8 9 1 0
BITMAP
3E
7F
42
F8
7E
0F
43
FF
3E
ENDCHAR
STARTCHAR 0074
ENCODING 116
SWIDTH 600 0
DWIDTH 10 0
BBX 8 12 1 0
BITMAP
30
30
30
FF
FF
30
30
30
30
30
3F
1F
ENDCHAR
STARTCHAR 0075
ENCODING 117
SWIDTH 600 0
DWIDTH 10 0
BBX 8 9 1 0
BITMAP
C3
C3
C3
C3
C3
C3
E3
7F
3B
ENDCHAR
STARTCHAR 0076
ENCODING 118
SWIDTH 600 0
DWIDTH 10 0
BBX 8 9 1 0
BITMAP
C3
C3
63
66
66
24
3C
3C
18
ENDCHAR
STARTCHAR 0077
ENCODING 119
SWIDTH 600 0
DWIDTH 10 0
BBX 10 9 0 0
BITMAP
CCC0
4CC0
4CC0
4E80
5A80
7280
7280
7280
7380
ENDCHAR
STARTCHAR 0078
ENCODING 120
SWIDTH 600 0
DWIDTH 10 0
BBX 8 9 1 0
BITMAP
C3
66
34
3C
18
3C
26
66
C3
ENDCHAR
STARTCHAR 0079
ENCODING 121
SWIDTH 600 0
DWIDTH 10 0
BBX 9 12 1 -3
BITMAP
C380
C300
6300
6600
2600
3400
3C00
1800
1800
1800
F000
E000
ENDCHAR
STARTCHAR 007A
ENCODING 122
SWIDTH 600 0
DWIDTH 10 0
BBX 8 9 1 0
BITMAP
FF
FF
06
0C
18
30
60
FF
FF
ENDCHAR
STARTCHAR 007B
ENCODING 123
SWIDTH 600 0
DWIDTH 10 0
BBX 7 15 2 -2
BITMAP
3E
3E
20
20
10
18
F0
F0
18
18
30
20
20
3E
3E
ENDCHAR
STARTCHAR 007C
ENCODING 124
SWIDTH 600 0
DWIDTH 10 0
BBX 2 15 4 -2
BITMAP
C0
C0
C0
C0
C0
C0
C0
C0
C0
C0
C0
C0
C0
C0
C0
ENDCHAR
STARTCHAR 007D
ENCODING 125
SWIDTH 600 0
DWIDTH 10 0
BBX 7 15 2 -2
BITMAP
F0
F0
10
10
20
60
3E
3E
60
20
30
10
10
F0
F0
ENDCHAR
STARTCHAR 007E
ENCODING 126
SWIDTH 600 0
DWIDTH 10 0
BBX 8 4 1 3
BITMAP
71
F9
DF
8E
ENDCHAR
STARTCHAR 00A0
ENCODING 160
SWIDTH 600 0
DWIDTH 10 0
BBX 0 0 0 0
BITMAP
ENDCHAR
STARTCHAR 00A1
ENCODING 161
SWIDTH 600 0
DWIDTH 10 0
BBX 3 13 4 -4
BITMAP
C0
E0
C0
00
00
40
40
C0
C0
C0
C0
C0
C0
ENDCHAR
STARTCHAR 00A2
ENCODING 162
SWIDTH 600 0
DWIDTH 10 0
BBX 8 13 1 -2
BITMAP
08
08
3C
7E
6B
C8
C8
C8
6B
7E
3C
08
08
ENDCHAR
STARTCHAR 00A3
ENCODING 163
SWIDTH 600 0
DWIDTH 10 0
BBX 8 12 1 0
BITMAP
3E
7F
63
60
60
FC
FC
20
20
60
FF
FF
ENDCHAR
STARTCHAR 00A4
ENCODING 164
SWIDTH 600 0
DWIDTH 10 0
BBX 8 12 1 0
BITMAP
82
C3
7E
7E
63
C3
C3
63
7E
7E
C3
82
ENDCHAR
STARTCHAR 00A5
ENCODING 165
SWIDTH 600 0
DWIDTH 10 0
BBX 10 12 0 0
BITMAP
C0C0
6180
2180
3300
1300
1E00
7F80
7F80
0C00
0C00
7F80
7F80
ENDCHAR
STARTCHAR 00A6
ENCODING 166
SWIDTH 600 0
DWIDTH 10 0
BBX 2 15 4 -2
BITMAP
C0
C0
C0
C0
C0
C0
00
00
00
C0
C0
C0
C0
C0
C0
ENDCHAR
STARTCHAR 00A7
ENCODING 167
SWIDTH 600 0
DWIDTH 10 0
BBX 8 15 1 -3
BITMAP
3C
7F
62
60
7C
3E
47
C3
E2
7C
1E
02
42
7E
3C
ENDCHAR
STARTCHAR 00A8
ENCODING 168
SWIDTH 600 0
DWIDTH 10 0
BBX 6 2 2 10
BITMAP
CC
EC
ENDCHAR
STARTCHAR 00A9
ENCODING 169
SWIDTH 600 0
DWIDTH 10 0
BBX 10 12 0 0
BITMAP
1E00
2180
4080
8E40
9340
B040
B040
9340
9E40
4080
2180
1E00
ENDCHAR
STARTCHAR 00AA
ENCODING 170
SWIDTH 600 0
DWIDTH 10 0
BBX 6 6 2 6
BITMAP
78
C8
08
78
C8
7C
ENDCHAR
STARTCHAR 00AB
ENCODING 171
SWIDTH 600 0
DWIDTH 10 0
BBX 8 7 1 1
BITMAP
11
33
EE
CC
EE
33
11
ENDCHAR
STARTCHAR 00AC
ENCODING 172
SWIDTH 600 0
DWIDTH 10 0
BBX 8 5 1 1
BITMAP
FF
FF
03
03
03
ENDCHAR
STARTCHAR 00AD
ENCODING 173
SWIDTH 600 0
DWIDTH 10 0
BBX 5 2 3 4
BITMAP
F8
F8
ENDCHAR
STARTCHAR 00AE
ENCODING 174
SWIDTH 600 0
DWIDTH 10 0
BBX 6 6 2 6
BITMAP
78
84
B4
B4
8C
78
ENDCHAR
STARTCHAR 00AF
ENCODING 175
SWIDTH 600 0
DWIDTH 10 0
BBX 5 1 3 11
BITMAP
F8
ENDCHAR
STARTCHAR 00B0
ENCODING 176
SWIDTH 600 0
DWIDTH 10 0
BBX 6 6 2 6
BITMAP
78
CC
C4
C4
CC
78
ENDCHAR
STARTCHAR 00B1
ENCODING 177
SWIDTH 600 0
DWIDTH 10 0
BBX 8 11 1 0
BITMAP
18
18
18
FF
FF
18
18
18
00
FF
FF
ENDCHAR
STARTCHAR 00B2
ENCODING 178
SWIDTH 600 0
DWIDTH 10 0
BBX 5 6 3 6
BITMAP
F0
90
10
20
C0
F8
ENDCHAR
STARTCHAR 00B3
ENCODING 179
SWIDTH 600 0
DWIDTH 10 0
BBX 5 6 2 6
BITMAP
78
48
30
08
48
F8
ENDCHAR
STARTCHAR 00B4
ENCODING 180
SWIDTH 600 0
DWIDTH 10 0
BBX 3 4 4 10
BITMAP
40
60
40
C0
ENDCHAR
STARTCHAR 00B5
ENCODING 181
SWIDTH 600 0
DWIDTH 10 0
BBX 8 12 1 -3
BITMAP
C3
C3
C3
C3
C3
C3
E3
FF
FB
C0
C0
C0
ENDCHAR
STARTCHAR 00B6
ENCODING 182
SWIDTH 600 0
DWIDTH 10 0
BBX 8 15 1 -3
BITMAP
3F
FF
FB
FB
FB
FB
FB
3B
1B
1B
1B
1B
1B
1B
1B
ENDCHAR
STARTCHAR 00B7
ENCODING 183
SWIDTH 600 0
DWIDTH 10 0
BBX 3 3 4 4
BITMAP
C0
E0
C0
ENDCHAR
STARTCHAR 00B8
ENCODING 184
SWIDTH 600 0
DWIDTH 10 0
BBX 4 3 3 -3
BITMAP
20
70
F0
ENDCHAR
STARTCHAR 00B9
ENCODING 185
SWIDTH 600 0
DWIDTH 10 0
BBX 5 6 3 6
BITMAP
E0
A0
20
20
20
F8
ENDCHAR
STARTCHAR 00BA
ENCODING 186
SWIDTH 600 0
DWIDTH 10 0
BBX 6 6 2 6
BITMAP
78
4C
C4
C4
4C
78
ENDCHAR
STARTCHAR 00BB
ENCODING 187
SWIDTH 600 0
DWIDTH 10 0
BBX 8 7 1 1
BITMAP
88
EE
77
33
77
EE
88
ENDCHAR
STARTCHAR 00BC
ENCODING 188
SWIDTH 600 0
DWIDTH 10 0
BBX 10 12 0 0
BITMAP
60C0
A080
2180
2100
2200
7800
0180
1180
3280
2480
47C0
C080
ENDCHAR
STARTCHAR 00BD
ENCODING 189
SWIDTH 600 0
DWIDTH 10 0
BBX 10 12 0 0
BITMAP
60C0
A080
2180
2100
2200
7800
0380
16C0
30C0
2180
4200
C3C0
ENDCHAR
STARTCHAR 00BE
ENCODING 190
SWIDTH 600 0
DWIDTH 10 0
BBX 10 12 0 0
BITMAP
70C0
9880
2180
1900
9A00
7000
0180
1180
3280
2480
47C0
C080
ENDCHAR
STARTCHAR 00BF
ENCODING 191
SWIDTH 600 0
DWIDTH 10 0
BBX 8 12 1 -3
BITMAP
1C
1C
1C
00
00
08
18
60
C2
E3
7E
3C
ENDCHAR
STARTCHAR 00C0
ENCODING 192
SWIDTH 600 0
DWIDTH 10 0
BBX 10 17 0 0
BITMAP
0800
1800
0C00
0400
0000
0E00
1E00
1E00
1A00
1300
3300
3300
3F80
7F80
6180
6180
C0C0
ENDCHAR
STARTCHAR 00C1
ENCODING 193
SWIDTH 600 0
DWIDTH 10 0
BBX 10 17 0 0
BITMAP
0400
0600
0400
0C00
0000
0E00
1E00
1E00
1A00
1300
3300
3300
3F80
7F80
6180
6180
C0C0
ENDCHAR
STARTCHAR 00C2
ENCODING 194
SWIDTH 600 0
DWIDTH 10 0
BBX 10 16 0 0
BITMAP
0C00
1E00
3100
0000
0E00
1E00
1E00
1A00
1300
3300
3300
3F80
7F80
6180
6180
C0C0
ENDCHAR
STARTCHAR 00C3
ENCODING 195
SWIDTH 600 0
DWIDTH 10 0
BBX 10 16 0 0
BITMAP
1900
2700
0000
0000
0E00
1E00
1E00
1A00
1300
3300
3300
3F80
7F80
6180
6180
C0C0
ENDCHAR
STARTCHAR 00C4
ENCODING 196
SWIDTH 600 0
DWIDTH 10 0
BBX 10 15 0 0
BITMAP
3300
3B00
0000
0E00
1E00
1E00
1A00
1300
3300
3300
3F80
7F80
6180
6180
C0C0
ENDCHAR
STARTCHAR 00C5
ENCODING 197
SWIDTH 600 0
DWIDTH 10 0
BBX 10 17 0 0
BITMAP
0E00
1200
1200
0E00
0000
0E00
1E00
1E00
1A00
1300
3300
3300
3F80
7F80
6180
6180
C0C0
ENDCHAR
STARTCHAR 00C6
ENCODING 198
SWIDTH 600 0
DWIDTH 10 0
BBX 10 12 0 0
BITMAP
1FC0
1FC0
1600
3600
3600
3780
2780
7E00
7E00
6600
47C0
C7C0
ENDCHAR
STARTCHAR 00C7
ENCODING 199
SWIDTH 600 0
DWIDTH 10 0
BBX 8 16 1 -4
BITMAP
3C
7E
63
C3
C0
C0
C0
C0
C3
63
7E
3C
08
1C
04
1C
ENDCHAR
STARTCHAR 00C8
ENCODING 200
SWIDTH 600 0
DWIDTH 10 0
BBX 8 17 1 0
BITMAP
10
30
18
08
00
FF
FF
C0
C0
C0
FF
FF
C0
C0
C0
FF
FF
ENDCHAR
STARTCHAR 00C9
ENCODING 201
SWIDTH 600 0
DWIDTH 10 0
BBX 8 17 1 0
BITMAP
08
0C
08
18
00
FF
FF
C0
C0
C0
FF
FF
C0
C0
C0
FF
FF
ENDCHAR
STARTCHAR 00CA
ENCODING 202
SWIDTH 600 0
DWIDTH 10 0
BBX 8 16 1 0
BITMAP
1C
3C
62
00
FF
FF
C0
C0
C0
FF
FF
C0
C0
C0
FF
FF
ENDCHAR
STARTCHAR 00CB
ENCODING 203
SWIDTH 600 0
DWIDTH 10 0
BBX 8 15 1 0
BITMAP
76
76
00
FF
FF
C0
C0
C0
FF
FF
C0
C0
C0
FF
FF
ENDCHAR
STARTCHAR 00CC
ENCODING 204
SWIDTH 600 0
DWIDTH 10 0
BBX 8 17 1 0
BITMAP
10
30
18
08
00
FF
FF
18
18
18
18
18
18
18
18
FF
FF
ENDCHAR
STARTCHAR 00CD
ENCODING 205
SWIDTH 600 0
DWIDTH 10 0
BBX 8 17 1 0
BITMAP
08
0C
08
18
00
FF
FF
18
18
18
18
18
18
18
18
FF
FF
ENDCHAR
STARTCHAR 00CE
ENCODING 206
SWIDTH 600 0
DWIDTH 10 0
BBX 8 16 1 0
BITMAP
18
3C
62
00
FF
FF
18
18
18
18
18
18
18
18
FF
FF
ENDCHAR
STARTCHAR 00CF
ENCODING 207
SWIDTH 600 0
DWIDTH 10 0
BBX 8 15 1 0
BITMAP
66
76
00
FF
FF
18
18
18
18
18
18
18
18
FF
FF
ENDCHAR
STARTCHAR 00D0
ENCODING 208
SWIDTH 600 0
DWIDTH 10 0
BBX 9 12 0 0
BITMAP
7E00
7F00
6380
6180
6180
FD80
FD80
6180
6180
6380
7F00
7E00
ENDCHAR
STARTCHAR 00D1
ENCODING 209
SWIDTH 600 0
DWIDTH 10 0
BBX 8 16 1 0
BITMAP
32
4E
00
00
E3
E3
F3
F3
D3
DB
DB
CB
CF
C7
C7
C7
ENDCHAR
STARTCHAR 00D2
ENCODING 210
SWIDTH 600 0
DWIDTH 10 0
BBX 8 17 1 0
BITMAP
10
30
18
08
00
3C
7E
E3
C3
C3
C3
C3
C3
C3
E3
7E
3C
ENDCHAR
STARTCHAR 00D3
ENCODING 211
SWIDTH 600 0
DWIDTH 10 0
BBX 8 17 1 0
BITMAP
08
0C
08
18
00
3C
7E
E3
C3
C3
C3
C3
C3
C3
E3
7E
3C
ENDCHAR
STARTCHAR 00D4
ENCODING 212
SWIDTH 600 0
DWIDTH 10 0
BBX 8 16 1 0
BITMAP
18
3C
62
00
3C
7E
E3
C3
C3
C3
C3
C3
C3
E3
7E
3C
ENDCHAR
STARTCHAR 00D5
ENCODING 213
SWIDTH 600 0
DWIDTH 10 0
BBX 8 16 1 0
BITMAP
32
4E
00
00
3C
7E
E3
C3
C3
C3
C3
C3
C3
E3
7E
3C
ENDCHAR
STARTCHAR 00D6
ENCODING 214
SWIDTH 600 0
DWIDTH 10 0
BBX 8 15 1 0
BITMAP
66
76
00
3C
7E
E3
C3
C3
C3
C3
C3
C3
E3
7E
3C
ENDCHAR
STARTCHAR 00D7
ENCODING 215
SWIDTH 600 0
DWIDTH 10 0
BBX 8 7 1 2
BITMAP
42
E7
3C
18
3C
66
C3
ENDCHAR
STARTCHAR 00D8
ENCODING 216
SWIDTH 600 0
DWIDTH 10 0
BBX 9 14 1 -1
BITMAP
0100
3D80
7F00
E300
C700
CF00
CB00
DB00
F300
E300
E300
7E00
FC00
8000
ENDCHAR
STARTCHAR 00D9
ENCODING 217
SWIDTH 600 0
DWIDTH 10 0
BBX 8 17 1 0
BITMAP
10
30
18
08
00
C3
C3
C3
C3
C3
C3
C3
C3
C3
E3
7E
3C
ENDCHAR
STARTCHAR 00DA
ENCODING 218
SWIDTH 600 0
DWIDTH 10 0
BBX 8 17 1 0
BITMAP
08
0C
08
18
00
C3
C3
C3
C3
C3
C3
C3
C3
C3
E3
7E
3C
ENDCHAR
STARTCHAR 00DB
ENCODING 219
SWIDTH 600 0
DWIDTH 10 0
BBX 8 16 1 0
BITMAP
18
3C
62
00
C3
C3
C3
C3
C3
C3
C3
C3
C3
E3
7E
3C
ENDCHAR
STARTCHAR 00DC
ENCODING 220
SWIDTH 600 0
DWIDTH 10 0
BBX 8 15 1 0
BITMAP
66
76
00
C3
C3
C3
C3
C3
C3
C3
C3
C3
E3
7E
3C
ENDCHAR
STARTCHAR 00DD
ENCODING 221
SWIDTH 600 0
DWIDTH 10 0
BBX 10 17 0 0
BITMAP
0400
0600
0400
0C00
0000
E0C0
6180
6180
3300
3300
1E00
1E00
0C00
0C00
0C00
0C00
0C00
ENDCHAR
STARTCHAR 00DE
ENCODING 222
SWIDTH 600 0
DWIDTH 10 0
BBX 8 12 1 0
BITMAP
C0
C0
FE
FF
C3
C3
C3
FF
FE
C0
C0
C0
ENDCHAR
STARTCHAR 00DF
ENCODING 223
SWIDTH 600 0
DWIDTH 10 0
BBX 9 16 1 -3
BITMAP
7800
7800
C000
C000
FF00
FF00
C200
C600
CC00
CC00
CF00
C380
C180
0380
1F00
1E00
ENDCHAR
STARTCHAR 00E0
ENCODING 224
SWIDTH 600 0
DWIDTH 10 0
BBX 9 14 1 0
BITMAP
2000
3000
1000
1800
0000
3C00
7E00
C600
0200
7E00
C200
C600
FB80
7B80
ENDCHAR
STARTCHAR 00E1
ENCODING 225
SWIDTH 600 0
DWIDTH 10 0
BBX 9 14 1 0
BITMAP
0800
0C00
1800
1000
0000
3C00
7E00
C600
0200
7E00
C200
C600
FB80
7B80
ENDCHAR
STARTCHAR 00E2
ENCODING 226
SWIDTH 600 0
DWIDTH 10 0
BBX 9 13 1 0
BITMAP
1800
3C00
4600
0000
3C00
7E00
C600
0200
7E00
C200
C600
FB80
7B80
ENDCHAR
STARTCHAR 00E3
ENCODING 227
SWIDTH 600 0
DWIDTH 10 0
BBX 9 12 1 0
BITMAP
7200
4C00
0000
3C00
7E00
C600
0200
7E00
C200
C600
FB80
7B80
ENDCHAR
STARTCHAR 00E4
ENCODING 228
SWIDTH 600 0
DWIDTH 10 0
BBX 9 12 1 0
BITMAP
6600
6E00
0000
3C00
7E00
C600
0200
7E00
C200
C600
FB80
7B80
ENDCHAR
STARTCHAR 00E5
ENCODING 229
SWIDTH 600 0
DWIDTH 10 0
BBX 9 14 1 0
BITMAP
3800
2400
2400
3800
0000
3C00
7E00
C600
0200
7E00
C200
C600
FB80
7B80
ENDCHAR
STARTCHAR 00E6
ENCODING 230
SWIDTH 600 0
DWIDTH 10 0
BBX 10 9 0 0
BITMAP
3380
7F80
CCC0
0CC0
7FC0
CC00
CCC0
F780
7380
ENDCHAR
STARTCHAR 00E7
ENCODING 231
SWIDTH 600 0
DWIDTH 10 0
BBX 8 13 1 -4
BITMAP
3C
7E
63
C0
C0
C0
63
7E
3C
08
1C
04
3C
ENDCHAR
STARTCHAR 00E8
ENCODING 232
SWIDTH 600 0
DWIDTH 10 0
BBX 8 14 1 0
BITMAP
10
30
18
08
00
3C
7E
E3
C3
FF
C0
E2
7F
3C
ENDCHAR
STARTCHAR 00E9
ENCODING 233
SWIDTH 600 0
DWIDTH 10 0
BBX 8 14 1 0
BITMAP
08
0C
08
18
00
3C
7E
E3
C3
FF
C0
E2
7F
3C
ENDCHAR
STARTCHAR 00EA
ENCODING 234
SWIDTH 600 0
DWIDTH 10 0
BBX 8 13 1 0
BITMAP
18
3C
62
00
3C
7E
E3
C3
FF
C0
E2
7F
3C
ENDCHAR
STARTCHAR 00EB
ENCODING 235
SWIDTH 600 0
DWIDTH 10 0
BBX 8 12 1 0
BITMAP
66
76
00
3C
7E
E3
C3
FF
C0
E2
7F
3C
ENDCHAR
STARTCHAR 00EC
ENCODING 236
SWIDTH 600 0
DWIDTH 10 0
BBX 7 14 2 0
BITMAP
20
70
30
18
00
F8
F8
18
18
18
18
18
FE
FE
ENDCHAR
STARTCHAR 00ED
ENCODING 237
SWIDTH 600 0
DWIDTH 10 0
BBX 7 14 2 0
BITMAP
10
0C
18
10
00
F8
F8
18
18
18
18
18
FE
FE
ENDCHAR
STARTCHAR 00EE
ENCODING 238
SWIDTH 600 0
DWIDTH 10 0
BBX 7 13 2 0
BITMAP
38
6C
46
00
F8
F8
18
18
18
18
18
FE
FE
ENDCHAR
STARTCHAR 00EF
ENCODING 239
SWIDTH 600 0
DWIDTH 10 0
BBX 7 12 2 0
BITMAP
6C
6C
00
F8
F8
18
18
18
18
18
FE
FE
ENDCHAR
STARTCHAR 00F0
ENCODING 240
SWIDTH 600 0
DWIDTH 10 0
BBX 8 13 1 0
BITMAP
76
1C
3C
06
3B
7F
C3
C3
C3
C3
E3
7E
3C
ENDCHAR
STARTCHAR 00F1
ENCODING 241
SWIDTH 600 0
DWIDTH 10 0
BBX 8 12 1 0
BITMAP
32
4E
00
DE
DE
E3
C3
C3
C3
C3
C3
C3
ENDCHAR
STARTCHAR 00F2
ENCODING 242
SWIDTH 600 0
DWIDTH 10 0
BBX 8 14 1 0
BITMAP
10
30
18
08
00
3C
7E
C3
C3
C3
C3
C3
7E
3C
ENDCHAR
STARTCHAR 00F3
ENCODING 243
SWIDTH 600 0
DWIDTH 10 0
BBX 8 14 1 0
BITMAP
08
0C
08
18
00
3C
7E
C3
C3
C3
C3
C3
7E
3C
ENDCHAR
STARTCHAR 00F4
ENCODING 244
SWIDTH 600 0
DWIDTH 10 0
BBX 8 13 1 0
BITMAP
18
3C
62
00
3C
7E
C3
C3
C3
C3
C3
7E
3C
ENDCHAR
STARTCHAR 00F5
ENCODING 245
SWIDTH 600 0
DWIDTH 10 0
BBX 8 12 1 0
BITMAP
32
4E
00
3C
7E
C3
C3
C3
C3
C3
7E
3C
ENDCHAR
STARTCHAR 00F6
ENCODING 246
SWIDTH 600 0
DWIDTH 10 0
BBX 8 12 1 0
BITMAP
66
76
00
3C
7E
C3
C3
C3
C3
C3
7E
3C
ENDCHAR
STARTCHAR 00F7
ENCODING 247
SWIDTH 600 0
DWIDTH 10 0
BBX 8 8 1 1
BITMAP
18
18
00
FF
FF
00
18
18
ENDCHAR
STARTCHAR 00F8
ENCODING 248
SWIDTH 600 0
DWIDTH 10 0
BBX 9 11 1 -1
BITMAP
0100
3D80
7E00
C700
CF00
DB00
F300
E300
7E00
FC00
8000
ENDCHAR
STARTCHAR 00F9
ENCODING 249
SWIDTH 600 0
DWIDTH 10 0
BBX 8 14 1 0
BITMAP
10
30
18
08
00
C3
C3
C3
C3
C3
C3
E3
7F
3B
ENDCHAR
STARTCHAR 00FA
ENCODING 250
SWIDTH 600 0
DWIDTH 10 0
BBX 8 14 1 0
BITMAP
08
0C
08
18
00
C3
C3
C3
C3
C3
C3
E3
7F
3B
ENDCHAR
STARTCHAR 00FB
ENCODING 251
SWIDTH 600 0
DWIDTH 10 0
BBX 8 13 1 0
BITMAP
18
3C
62
00
C3
C3
C3
C3
C3
C3
E3
7F
3B
ENDCHAR
STARTCHAR 00FC
ENCODING 252
SWIDTH 600 0
DWIDTH 10 0
BBX 8 12 1 0
BITMAP
66
76
00
C3
C3
C3
C3
C3
C3
E3
7F
3B
ENDCHAR
STARTCHAR 00FD
ENCODING 253
SWIDTH 600 0
DWIDTH 10 0
BBX 9 17 1 -3
BITMAP
0800
0C00
0800
1800
0000
C380
C300
6300
6600
2600
3400
3C00
1800
1800
1800
F000
E000
ENDCHAR
STARTCHAR 00FE
ENCODING 254
SWIDTH 600 0
DWIDTH 10 0
BBX 8 16 1 -3
BITMAP
C0
C0
C0
C0
DE
FF
E3
C3
C3
C3
E3
FF
DE
C0
C0
C0
ENDCHAR
STARTCHAR 00FF
ENCODING 255
SWIDTH 600 0
DWIDTH 10 0
BBX 9 15 1 -3
BITMAP
6600
7600
0000
C380
C300
6300
6600
2600
3400
3C00
1800
1800
1800
F000
E000
ENDCHAR
STARTCHAR 0100
ENCODING 256
SWIDTH 600 0
DWIDTH 10 0
BBX 10 15 0 0
BITMAP
1F00
0000
0000
0E00
1E00
1E00
1A00
1300
3300
3300
3F80
7F80
6180
6180
C0C0
ENDCHAR
STARTCHAR 0101
ENCODING 257
SWIDTH 600 0
DWIDTH 10 0
BBX 9 12 1 0
BITMAP
7C00
0000
0000
3C00
7E00
C600
0200
7E00
C200
C600
FB80
7B80
ENDCHAR
STARTCHAR 0102
ENCODING 258
SWIDTH 600 0
DWIDTH 10 0
BBX 10 16 0 0
BITMAP
2100
3300
1E00
0000
0E00
1E00
1E00
1A00
1300
3300
3300
3F80
7F80
6180
6180
C0C0
ENDCHAR
STARTCHAR 0103
ENCODING 259
SWIDTH 600 0
DWIDTH 10 0
BBX 9 13 1 0
BITMAP
4400
6600
3C00
0000
3C00
7E00
C600
0200
7E00
C200
C600
FB80
7B80
ENDCHAR
STARTCHAR 0104
ENCODING 260
SWIDTH 600 0
DWIDTH 10 0
BBX 10 15 0 -3
BITMAP
0E00
1E00
1E00
1A00
1300
3300
3300
3F80
7F80
6180
61C0
C0C0
0080
0100
01C0
ENDCHAR
STARTCHAR 0105
ENCODING 261
SWIDTH 600 0
DWIDTH 10 0
BBX 9 12 1 -3
BITMAP
3C00
7E00
C600
0200
7E00
C200
C600
FF80
7B00
0200
0600
0780
ENDCHAR
STARTCHAR 0106
ENCODING 262
SWIDTH 600 0
DWIDTH 10 0
BBX 8 17 1 0
BITMAP
08
0E
0C
18
00
3C
7E
63
C3
C0
C0
C0
C0
C3
63
7E
3C
ENDCHAR
STARTCHAR 0107
ENCODING 263
SWIDTH 600 0
DWIDTH 10 0
BBX 8 14 1 0
BITMAP
08
0E
0C
18
00
3C
7E
63
C0
C0
C0
63
7E
3C
ENDCHAR
STARTCHAR 0108
ENCODING 264
SWIDTH 600 0
DWIDTH 10 0
BBX 8 16 1 0
BITMAP
1C
36
62
00
3C
7E
63
C3
C0
C0
C0
C0
C3
63
7E
3C
ENDCHAR
STARTCHAR 0109
ENCODING 265
SWIDTH 600 0
DWIDTH 10 0
BBX 8 13 1 0
BITMAP
1C
36
62
00
3C
7E
63
C0
C0
C0
63
7E
3C
ENDCHAR
STARTCHAR 010A
ENCODING 266
SWIDTH 600 0
DWIDTH 10 0
BBX 8 15 1 0
BITMAP
1C
1C
00
3C
7E
63
C3
C0
C0
C0
C0
C3
63
7E
3C
ENDCHAR
STARTCHAR 010B
ENCODING 267
SWIDTH 600 0
DWIDTH 10 0
BBX 8 12 1 0
BITMAP
1C
1C
00
3C
7E
63
C0
C0
C0
63
7E
3C
ENDCHAR
STARTCHAR 010C
ENCODING 268
SWIDTH 600 0
DWIDTH 10 0
BBX 8 16 1 0
BITMAP
22
76
1C
00
3C
7E
63
C3
C0
C0
C0
C0
C3
63
7E
3C
ENDCHAR
STARTCHAR 010D
ENCODING 269
SWIDTH 600 0
DWIDTH 10 0
BBX 8 13 1 0
BITMAP
22
76
1C
00
3C
7E
63
C0
C0
C0
63
7E
3C
ENDCHAR
STARTCHAR 010E
ENCODING 270
SWIDTH 600 0
DWIDTH 10 0
BBX 8 16 1 0
BITMAP
44
2E
38
00
FC
FE
C7
C3
C3
C3
C3
C3
C3
C7
FE
FC
ENDCHAR
STARTCHAR 010F
ENCODING 271
SWIDTH 600 0
DWIDTH 10 0
BBX 10 13 1 0
BITMAP
06C0
06C0
0680
0600
7600
FE00
C600
C600
C600
C600
C600
FE00
7600
ENDCHAR
STARTCHAR 0110
ENCODING 272
SWIDTH 600 0
DWIDTH 10 0
BBX 9 12 0 0
BITMAP
7E00
7F00
6380
6180
6180
FD80
FD80
6180
6180
6380
7F00
7E00
ENDCHAR
STARTCHAR 0111
ENCODING 273
SWIDTH 600 0
DWIDTH 10 0
BBX 9 13 1 0
BITMAP
0300
1F80
1F80
0300
7B00
7F00
C300
C300
C300
C300
C300
7F00
7B00
ENDCHAR
STARTCHAR 0112
ENCODING 274
SWIDTH 600 0
DWIDTH 10 0
BBX 8 15 1 0
BITMAP
3E
00
00
FF
FF
C0
C0
C0
FF
FF
C0
C0
C0
FF
FF
ENDCHAR
STARTCHAR 0113
ENCODING 275
SWIDTH 600 0
DWIDTH 10 0
BBX 8 12 1 0
BITMAP
3E
00
00
3C
7E
E3
C3
FF
C0
E2
7F
3C
ENDCHAR
STARTCHAR 0114
ENCODING 276
SWIDTH 600 0
DWIDTH 10 0
BBX 8 16 1 0
BITMAP
22
66
3C
00
FF
FF
C0
C0
C0
FF
FF
C0
C0
C0
FF
FF
ENDCHAR
STARTCHAR 0115
ENCODING 277
SWIDTH 600 0
DWIDTH 10 0
BBX 8 13 1 0
BITMAP
42
66
3C
00
3C
7E
E3
C3
FF
C0
E2
7F
3C
ENDCHAR
STARTCHAR 0116
ENCODING 278
SWIDTH 600 0
DWIDTH 10 0
BBX 8 15 1 0
BITMAP
18
18
00
FF
FF
C0
C0
C0
FF
FF
C0
C0
C0
FF
FF
ENDCHAR
STARTCHAR 0117
ENCODING 279
SWIDTH 600 0
DWIDTH 10 0
BBX 8 12 1 0
BITMAP
18
18
00
3C
7E
E3
C3
FF
C0
E2
7F
3C
ENDCHAR
STARTCHAR 0118
ENCODING 280
SWIDTH 600 0
DWIDTH 10 0
BBX 8 15 1 -3
BITMAP
FF
FF
C0
C0
C0
FF
FF
C0
C0
C0
FF
FF
02
04
07
ENDCHAR
STARTCHAR 0119
ENCODING 281
SWIDTH 600 0
DWIDTH 10 0
BBX 8 12 1 -3
BITMAP
3C
7E
E3
C3
FF
C0
E2
7F
3C
08
18
1E
ENDCHAR
STARTCHAR 011A
ENCODING 282
SWIDTH 600 0
DWIDTH 10 0
BBX 8 16 1 0
BITMAP
62
34
1C
00
FF
FF
C0
C0
C0
FF
FF
C0
C0
C0
FF
FF
ENDCHAR
STARTCHAR 011B
ENCODING 283
SWIDTH 600 0
DWIDTH 10 0
BBX 8 13 1 0
BITMAP
62
34
18
00
3C
7E
E3
C3
FF
C0
E2
7F
3C
ENDCHAR
STARTCHAR 011C
ENCODING 284
SWIDTH 600 0
DWIDTH 10 0
BBX 8 16 1 0
BITMAP
1C
3C
62
00
3C
7E
E3
C3
C0
CF
CF
C3
C3
E3
7F
3B
ENDCHAR
STARTCHAR 011D
ENCODING 285
SWIDTH 600 0
DWIDTH 10 0
BBX 9 16 1 -3
BITMAP
1800
3C00
6200
0000
3F80
7F80
C200
4300
7E00
3C00
4000
7F00
7F80
C180
FF00
7E00
ENDCHAR
STARTCHAR 011E
ENCODING 286
SWIDTH 600 0
DWIDTH 10 0
BBX 8 16 1 0
BITMAP
22
66
3C
00
3C
7E
E3
C3
C0
CF
CF
C3
C3
E3
7F
3B
ENDCHAR
STARTCHAR 011F
ENCODING 287
SWIDTH 600 0
DWIDTH 10 0
BBX 9 16 1 -3
BITMAP
4200
6600
3C00
0000
3F80
7F80
C200
4300
7E00
3C00
4000
7F00
7F80
C180
FF00
7E00
ENDCHAR
STARTCHAR 0120
ENCODING 288
SWIDTH 600 0
DWIDTH 10 0
BBX 8 15 1 0
BITMAP
18
18
00
3C
7E
E3
C3
C0
CF
CF
C3
C3
E3
7F
3B
ENDCHAR
STARTCHAR 0121
ENCODING 289
SWIDTH 600 0
DWIDTH 10 0
BBX 9 15 1 -3
BITMAP
1800
1B00
0300
3E00
7E00
C300
4300
7E00
3C00
4000
7F00
7F80
C180
FF00
7E00
ENDCHAR
STARTCHAR 0122
ENCODING 290
SWIDTH 600 0
DWIDTH 10 0
BBX 8 16 1 -4
BITMAP
3C
7E
E3
C3
C0
CF
CF
C3
C3
E3
7F
3B
00
18
18
10
ENDCHAR
STARTCHAR 0123
ENCODING 291
SWIDTH 600 0
DWIDTH 10 0
BBX 9 16 1 -3
BITMAP
0C00
0800
1B00
0300
3E00
7E00
C300
4300
7E00
3C00
4000
7F00
7F80
C180
FF00
7E00
ENDCHAR
STARTCHAR 0124
ENCODING 292
SWIDTH 600 0
DWIDTH 10 0
BBX 8 16 1 0
BITMAP
18
3C
62
00
C3
C3
C3
C3
C3
FF
FF
C3
C3
C3
C3
C3
ENDCHAR
STARTCHAR 0125
ENCODING 293
SWIDTH 600 0
DWIDTH 10 0
BBX 10 16 -1 0
BITMAP
3800
6C00
C400
3000
3000
3000
3000
3780
3780
38C0
30C0
30C0
30C0
30C0
30C0
30C0
ENDCHAR
STARTCHAR 0126
ENCODING 294
SWIDTH 600 0
DWIDTH 10 0
BBX 10 12 0 0
BITMAP
6180
FFC0
FFC0
6180
6180
7F80
7F80
6180
6180
6180
6180
6180
ENDCHAR
STARTCHAR 0127
ENCODING 295
SWIDTH 600 0
DWIDTH 10 0
BBX 9 13 0 0
BITMAP
6000
FC00
FC00
6000
6F00
6F00
7180
6180
6180
6180
6180
6180
6180
ENDCHAR
STARTCHAR 0128
ENCODING 296
SWIDTH 600 0
DWIDTH 10 0
BBX 8 16 1 0
BITMAP
32
4E
00
00
FF
FF
18
18
18
18
18
18
18
18
FF
FF
ENDCHAR
STARTCHAR 0129
ENCODING 297
SWIDTH 600 0
DWIDTH 10 0
BBX 7 12 2 0
BITMAP
74
4E
00
F8
F8
18
18
18
18
18
FE
FE
ENDCHAR
STARTCHAR 012A
ENCODING 298
SWIDTH 600 0
DWIDTH 10 0
BBX 8 15 1 0
BITMAP
3E
00
00
FF
FF
18
18
18
18
18
18
18
18
FF
FF
ENDCHAR
STARTCHAR 012B
ENCODING 299
SWIDTH 600 0
DWIDTH 10 0
BBX 7 12 2 0
BITMAP
7C
00
00
F8
F8
18
18
18
18
18
FE
FE
ENDCHAR
STARTCHAR 012C
ENCODING 300
SWIDTH 600 0
DWIDTH 10 0
BBX 8 16 1 0
BITMAP
42
66
3C
00
FF
FF
18
18
18
18
18
18
18
18
FF
FF
ENDCHAR
STARTCHAR 012D
ENCODING 301
SWIDTH 600 0
DWIDTH 10 0
BBX 7 13 2 0
BITMAP
44
66
38
00
F8
F8
18
18
18
18
18
FE
FE
ENDCHAR
STARTCHAR 012E
ENCODING 302
SWIDTH 600 0
DWIDTH 10 0
BBX 8 15 1 -3
BITMAP
FF
FF
18
18
18
18
18
18
18
18
FF
FF
04
04
07
ENDCHAR
STARTCHAR 012F
ENCODING 303
SWIDTH 600 0
DWIDTH 10 0
BBX 8 16 2 -3
BITMAP
38
38
00
00
F8
F8
18
18
18
18
18
FE
FE
04
08
0F
ENDCHAR
STARTCHAR 0130
ENCODING 304
SWIDTH 600 0
DWIDTH 10 0
BBX 8 15 1 0
BITMAP
18
18
00
FF
FF
18
18
18
18
18
18
18
18
FF
FF
ENDCHAR
STARTCHAR 0131
ENCODING 305
SWIDTH 600 0
DWIDTH 10 0
BBX 7 9 2 0
BITMAP
F8
F8
18
18
18
18
18
FE
FE
ENDCHAR
STARTCHAR 0132
ENCODING 306
SWIDTH 600 0
DWIDTH 10 0
BBX 8 12 1 0
BITMAP
C3
C3
C3
C3
C3
C3
C3
03
43
E7
7E
3C
ENDCHAR
STARTCHAR 0133
ENCODING 307
SWIDTH 600 0
DWIDTH 10 0
BBX 8 16 1 -3
BITMAP
E3
E7
00
00
43
43
43
43
43
43
43
43
43
03
3F
3E
ENDCHAR
STARTCHAR 0134
ENCODING 308
SWIDTH 600 0
DWIDTH 10 0
BBX 7 16 1 0
BITMAP
1C
36
62
00
7E
7E
06
06
06
06
06
06
46
C6
7E
3C
ENDCHAR
STARTCHAR 0135
ENCODING 309
SWIDTH 600 0
DWIDTH 10 0
BBX 7 16 2 -3
BITMAP
1C
36
62
00
F8
F8
08
08
08
08
08
08
08
08
F8
F8
ENDCHAR
STARTCHAR 0136
ENCODING 310
SWIDTH 600 0
DWIDTH 10 0
BBX 9 16 1 -4
BITMAP
C380
C300
C600
CC00
D800
F800
FC00
EC00
C600
C700
C300
C180
0000
1C00
1800
1800
ENDCHAR
STARTCHAR 0137
ENCODING 311
SWIDTH 600 0
DWIDTH 10 0
BBX 9 17 1 -4
BITMAP
C000
C000
C000
C000
C300
C600
CC00
D800
FC00
EC00
C600
C300
C300
0080
1C00
1800
1800
ENDCHAR
STARTCHAR 0138
ENCODING 312
SWIDTH 600 0
DWIDTH 10 0
BBX 8 9 2 0
BITMAP
87
8C
98
B0
F8
D8
8C
86
87
ENDCHAR
STARTCHAR 0139
ENCODING 313
SWIDTH 600 0
DWIDTH 10 0
BBX 7 17 2 0
BITMAP
40
60
C0
80
00
C0
C0
C0
C0
C0
C0
C0
C0
C0
C0
FE
FE
ENDCHAR
STARTCHAR 013A
ENCODING 314
SWIDTH 600 0
DWIDTH 10 0
BBX 8 18 1 0
BITMAP
08
0C
08
18
00
F8
F8
18
18
18
18
18
18
18
18
18
FF
FF
ENDCHAR
STARTCHAR 013B
ENCODING 315
SWIDTH 600 0
DWIDTH 10 0
BBX 7 16 2 -4
BITMAP
C0
C0
C0
C0
C0
C0
C0
C0
C0
C0
FE
FE
00
38
30
30
ENDCHAR
STARTCHAR 013C
ENCODING 316
SWIDTH 600 0
DWIDTH 10 0
BBX 8 17 1 -4
BITMAP
F8
F8
18
18
18
18
18
18
18
18
18
FF
FF
00
18
18
10
ENDCHAR
STARTCHAR 013D
ENCODING 317
SWIDTH 600 0
DWIDTH 10 0
BBX 7 12 2 0
BITMAP
D8
D8
D8
C0
C0
C0
C0
C0
C0
C0
FE
FE
ENDCHAR
STARTCHAR 013E
ENCODING 318
SWIDTH 600 0
DWIDTH 10 0
BBX 9 13 1 0
BITMAP
F800
FB80
1B00
1B00
1800
1800
1800
1800
1800
1800
1800
FF00
FF00
ENDCHAR
STARTCHAR 013F
ENCODING 319
SWIDTH 600 0
DWIDTH 10 0
BBX 7 12 2 0
BITMAP
C0
C0
C0
C0
C0
C0
CE
CE
C0
C0
FE
FE
ENDCHAR
STARTCHAR 0140
ENCODING 320
SWIDTH 600 0
DWIDTH 10 0
BBX 9 13 1 0
BITMAP
F800
F800
1800
1800
1800
1800
1800
1980
1B80
1800
1800
FF00
FF00
ENDCHAR
STARTCHAR 0141
ENCODING 321
SWIDTH 600 0
DWIDTH 10 0
BBX 8 12 1 0
BITMAP
60
60
60
60
64
7C
F8
E0
60
60
7F
7F
ENDCHAR
STARTCHAR 0142
ENCODING 322
SWIDTH 600 0
DWIDTH 10 0
BBX 8 13 1 0
BITMAP
F8
F8
18
18
18
1A
3E
7C
58
18
18
FF
FF
ENDCHAR
STARTCHAR 0143
ENCODING 323
SWIDTH 600 0
DWIDTH 10 0
BBX 8 17 1 0
BITMAP
08
0C
08
18
00
E3
E3
F3
F3
D3
DB
DB
CB
CF
C7
C7
C7
ENDCHAR
STARTCHAR 0144
ENCODING 324
SWIDTH 600 0
DWIDTH 10 0
BBX 8 14 1 0
BITMAP
08
0C
08
18
00
DE
DE
E3
C3
C3
C3
C3
C3
C3
ENDCHAR
STARTCHAR 0145
ENCODING 325
SWIDTH 600 0
DWIDTH 10 0
BBX 8 16 1 -4
BITMAP
E3
E3
F3
F3
D3
DB
DB
CB
CF
C7
C7
C7
00
18
18
10
ENDCHAR
STARTCHAR 0146
ENCODING 326
SWIDTH 600 0
DWIDTH 10 0
BBX 8 13 1 -4
BITMAP
DE
DE
E3
C3
C3
C3
C3
C3
C3
00
18
18
10
ENDCHAR
STARTCHAR 0147
ENCODING 327
SWIDTH 600 0
DWIDTH 10 0
BBX 8 16 1 0
BITMAP
62
34
18
00
E3
E3
F3
F3
D3
DB
DB
CB
CF
C7
C7
C7
ENDCHAR
STARTCHAR 0148
ENCODING 328
SWIDTH 600 0
DWIDTH 10 0
BBX 8 13 1 0
BITMAP
62
34
18
00
DE
DE
E3
C3
C3
C3
C3
C3
C3
ENDCHAR
STARTCHAR 0149
ENCODING 329
SWIDTH 600 0
DWIDTH 10 0
BBX 9 13 0 0
BITMAP
C000
C000
8000
0000
3700
3F80
3180
3180
3180
3180
3180
3180
3180
ENDCHAR
STARTCHAR 014A
ENCODING 330
SWIDTH 600 0
DWIDTH 10 0
BBX 8 15 1 -3
BITMAP
E3
E3
F3
F3
D3
DB
DB
CB
CF
C7
C7
C7
03
3F
3E
ENDCHAR
STARTCHAR 014B
ENCODING 331
SWIDTH 600 0
DWIDTH 10 0
BBX 8 12 1 -3
BITMAP
DE
DF
E3
C3
C3
C3
C3
C3
C3
03
3F
3E
ENDCHAR
STARTCHAR 014C
ENCODING 332
SWIDTH 600 0
DWIDTH 10 0
BBX 8 15 1 0
BITMAP
3E
00
00
3C
7E
E3
C3
C3
C3
C3
C3
C3
E3
7E
3C
ENDCHAR
STARTCHAR 014D
ENCODING 333
SWIDTH 600 0
DWIDTH 10 0
BBX 8 12 1 0
BITMAP
3E
00
00
3C
7E
C3
C3
C3
C3
C3
7E
3C
ENDCHAR
STARTCHAR 014E
ENCODING 334
SWIDTH 600 0
DWIDTH 10 0
BBX 8 16 1 0
BITMAP
42
66
3C
00
3C
7E
E3
C3
C3
C3
C3
C3
C3
E3
7E
3C
ENDCHAR
STARTCHAR 014F
ENCODING 335
SWIDTH 600 0
DWIDTH 10 0
BBX 8 13 1 0
BITMAP
42
66
3C
00
3C
7E
C3
C3
C3
C3
C3
7E
3C
ENDCHAR
STARTCHAR 0150
ENCODING 336
SWIDTH 600 0
DWIDTH 10 0
BBX 8 17 1 0
BITMAP
24
1B
36
24
00
3C
7E
E3
C3
C3
C3
C3
C3
C3
E3
7E
3C
ENDCHAR
STARTCHAR 0151
ENCODING 337
SWIDTH 600 0
DWIDTH 10 0
BBX 8 14 1 0
BITMAP
24
1B
36
24
00
3C
7E
C3
C3
C3
C3
C3
7E
3C
ENDCHAR
STARTCHAR 0152
ENCODING 338
SWIDTH 600 0
DWIDTH 10 0
BBX 10 12 0 0
BITMAP
1FC0
3FC0
6600
6600
4600
C7C0
C7C0
4600
6600
6600
3FC0
1FC0
ENDCHAR
STARTCHAR 0153
ENCODING 339
SWIDTH 600 0
DWIDTH 10 0
BBX 10 9 0 0
BITMAP
7380
7F80
CCC0
CCC0
CFC0
CC00
CCC0
7F80
7300
ENDCHAR
STARTCHAR 0154
ENCODING 340
SWIDTH 600 0
DWIDTH 10 0
BBX 9 17 1 0
BITMAP
0800
0C00
0800
1800
0000
FE00
FF00
C300
C300
C300
C300
FF00
FE00
CC00
C600
C700
C380
ENDCHAR
STARTCHAR 0155
ENCODING 341
SWIDTH 600 0
DWIDTH 10 0
BBX 9 14 1 0
BITMAP
0400
0600
0C00
0800
0000
F380
F780
1800
1800
1000
1000
1000
FF00
FF00
ENDCHAR
STARTCHAR 0156
ENCODING 342
SWIDTH 600 0
DWIDTH 10 0
BBX 9 16 1 -4
BITMAP
FE00
FF00
C300
C300
C300
C300
FF00
FE00
CC00
C600
C700
C300
0080
1800
1800
1000
ENDCHAR
STARTCHAR 0157
ENCODING 343
SWIDTH 600 0
DWIDTH 10 0
BBX 9 13 1 -4
BITMAP
F380
F780
1800
1800
1000
1000
1000
FF00
FF00
0000
3800
3000
3000
ENDCHAR
STARTCHAR 0158
ENCODING 344
SWIDTH 600 0
DWIDTH 10 0
BBX 9 16 1 0
BITMAP
6200
3400
1C00
0000
FE00
FF00
C300
C300
C300
C300
FF00
FE00
CC00
C600
C700
C380
ENDCHAR
STARTCHAR 0159
ENCODING 345
SWIDTH 600 0
DWIDTH 10 0
BBX 9 13 1 0
BITMAP
2300
1600
1C00
0000
F380
F780
1800
1800
1000
1000
1000
FF00
FF00
ENDCHAR
STARTCHAR 015A
ENCODING 346
SWIDTH 600 0
DWIDTH 10 0
BBX 8 17 1 0
BITMAP
08
0C
08
18
00
3C
7F
C3
C0
E0
7E
3F
03
83
C3
FF
3C
ENDCHAR
STARTCHAR 015B
ENCODING 347
SWIDTH 600 0
DWIDTH 10 0
BBX 8 14 1 0
BITMAP
08
0C
08
18
00
3E
7F
42
F8
7E
0F
43
FF
3E
ENDCHAR
STARTCHAR 015C
ENCODING 348
SWIDTH 600 0
DWIDTH 10 0
BBX 8 16 1 0
BITMAP
18
3C
62
00
3C
7F
C3
C0
E0
7E
3F
03
83
C3
FF
3C
ENDCHAR
STARTCHAR 015D
ENCODING 349
SWIDTH 600 0
DWIDTH 10 0
BBX 8 13 1 0
BITMAP
18
3C
62
00
3E
7F
42
F8
7E
0F
43
FF
3E
ENDCHAR
STARTCHAR 015E
ENCODING 350
SWIDTH 600 0
DWIDTH 10 0
BBX 8 16 1 -4
BITMAP
3C
7F
C3
C0
E0
7E
3F
03
83
C3
FF
3C
10
1C
04
3C
ENDCHAR
STARTCHAR 015F
ENCODING 351
SWIDTH 600 0
DWIDTH 10 0
BBX 8 13 1 -4
BITMAP
3E
7F
42
F8
7E
0F
43
FF
3E
10
1C
04
3C
ENDCHAR
STARTCHAR 0160
ENCODING 352
SWIDTH 600 0
DWIDTH 10 0
BBX 8 16 1 0
BITMAP
62
34
18
00
3C
7F
C3
C0
E0
7E
3F
03
83
C3
FF
3C
ENDCHAR
STARTCHAR 0161
ENCODING 353
SWIDTH 600 0
DWIDTH 10 0
BBX 8 13 1 0
BITMAP
62
3C
18
00
3E
7F
42
F8
7E
0F
43
FF
3E
ENDCHAR
STARTCHAR 0162
ENCODING 354
SWIDTH 600 0
DWIDTH 10 0
BBX 10 16 0 -4
BITMAP
FFC0
FFC0
0C00
0C00
0C00
0C00
0C00
0C00
0C00
0C00
0C00
0C00
0800
0E00
0200
1E00
ENDCHAR
STARTCHAR 0163
ENCODING 355
SWIDTH 600 0
DWIDTH 10 0
BBX 8 16 1 -4
BITMAP
30
30
30
FF
FF
30
30
30
30
30
3F
1F
04
06
03
0E
ENDCHAR
STARTCHAR 0164
ENCODING 356
SWIDTH 600 0
DWIDTH 10 0
BBX 10 16 0 0
BITMAP
3100
1A00
0C00
0000
FFC0
FFC0
0C00
0C00
0C00
0C00
0C00
0C00
0C00
0C00
0C00
0C00
ENDCHAR
STARTCHAR 0165
ENCODING 357
SWIDTH 600 0
DWIDTH 10 0
BBX 8 12 1 0
BITMAP
33
32
32
FF
FF
30
30
30
30
30
3F
1F
ENDCHAR
STARTCHAR 0166
ENCODING 358
SWIDTH 600 0
DWIDTH 10 0
BBX 10 12 0 0
BITMAP
FFC0
FFC0
0C00
0C00
0C00
7F80
7F80
0C00
0C00
0C00
0C00
0C00
ENDCHAR
STARTCHAR 0167
ENCODING 359
SWIDTH 600 0
DWIDTH 10 0
BBX 8 12 1 0
BITMAP
30
30
30
FF
FF
30
30
7E
30
30
3F
1F
ENDCHAR
STARTCHAR 0168
ENCODING 360
SWIDTH 600 0
DWIDTH 10 0
BBX 8 16 1 0
BITMAP
32
4E
00
00
C3
C3
C3
C3
C3
C3
C3
C3
C3
E3
7E
3C
ENDCHAR
STARTCHAR 0169
ENCODING 361
SWIDTH 600 0
DWIDTH 10 0
BBX 8 12 1 0
BITMAP
32
4E
00
C3
C3
C3
C3
C3
C3
E3
7F
3B
ENDCHAR
STARTCHAR 016A
ENCODING 362
SWIDTH 600 0
DWIDTH 10 0
BBX 8 15 1 0
BITMAP
3E
00
00
C3
C3
C3
C3
C3
C3
C3
C3
C3
E3
7E
3C
ENDCHAR
STARTCHAR 016B
ENCODING 363
SWIDTH 600 0
DWIDTH 10 0
BBX 8 12 1 0
BITMAP
3E
00
00
C3
C3
C3
C3
C3
C3
E3
7F
3B
ENDCHAR
STARTCHAR 016C
ENCODING 364
SWIDTH 600 0
DWIDTH 10 0
BBX 8 16 1 0
BITMAP
42
66
3C
00
C3
C3
C3
C3
C3
C3
C3
C3
C3
E3
7E
3C
ENDCHAR
STARTCHAR 016D
ENCODING 365
SWIDTH 600 0
DWIDTH 10 0
BBX 8 13 1 0
BITMAP
42
66
3C
00
C3
C3
C3
C3
C3
C3
E3
7F
3B
ENDCHAR
STARTCHAR 016E
ENCODING 366
SWIDTH 600 0
DWIDTH 10 0
BBX 8 17 1 0
BITMAP
1C
24
24
1C
00
C3
C3
C3
C3
C3
C3
C3
C3
C3
E3
7E
3C
ENDCHAR
STARTCHAR 016F
ENCODING 367
SWIDTH 600 0
DWIDTH 10 0
BBX 8 14 1 0
BITMAP
1C
24
24
1C
00
C3
C3
C3
C3
C3
C3
E3
7F
3B
ENDCHAR
STARTCHAR 0170
ENCODING 368
SWIDTH 600 0
DWIDTH 10 0
BBX 8 17 1 0
BITMAP
24
1B
36
24
00
C3
C3
C3
C3
C3
C3
C3
C3
C3
E3
7E
3C
ENDCHAR
STARTCHAR 0171
ENCODING 369
SWIDTH 600 0
DWIDTH 10 0
BBX 8 14 1 0
BITMAP
24
1B
36
24
00
C3
C3
C3
C3
C3
C3
E3
7F
3B
ENDCHAR
STARTCHAR 0172
ENCODING 370
SWIDTH 600 0
DWIDTH 10 0
BBX 8 15 1 -3
BITMAP
C3
C3
C3
C3
C3
C3
C3
C3
C3
E3
7E
3C
08
10
1E
ENDCHAR
STARTCHAR 0173
ENCODING 371
SWIDTH 600 0
DWIDTH 10 0
BBX 8 12 1 -3
BITMAP
C3
C3
C3
C3
C3
C3
E3
7F
3B
06
0C
07
ENDCHAR
STARTCHAR 0174
ENCODING 372
SWIDTH 600 0
DWIDTH 10 0
BBX 10 16 0 0
BITMAP
0C00
1E00
3100
0000
C0C0
40C0
40C0
4CC0
4C80
4E80
4E80
7A80
7280
7280
7380
7380
ENDCHAR
STARTCHAR 0175
ENCODING 373
SWIDTH 600 0
DWIDTH 10 0
BBX 10 13 0 0
BITMAP
0C00
1E00
3100
0000
CCC0
4CC0
4CC0
4E80
5A80
7280
7280
7280
7380
ENDCHAR
STARTCHAR 0176
ENCODING 374
SWIDTH 600 0
DWIDTH 10 0
BBX 10 16 0 0
BITMAP
0C00
1E00
3100
0000
E0C0
6180
6180
3300
3300
1E00
1E00
0C00
0C00
0C00
0C00
0C00
ENDCHAR
STARTCHAR 0177
ENCODING 375
SWIDTH 600 0
DWIDTH 10 0
BBX 9 16 1 -3
BITMAP
1800
3C00
6200
0000
C380
C300
6300
6600
2600
3400
3C00
1800
1800
1800
F000
E000
ENDCHAR
STARTCHAR 0178
ENCODING 376
SWIDTH 600 0
DWIDTH 10 0
BBX 10 15 0 0
BITMAP
3300
3B00
0000
E0C0
6180
6180
3300
3300
1E00
1E00
0C00
0C00
0C00
0C00
0C00
ENDCHAR
STARTCHAR 0179
ENCODING 377
SWIDTH 600 0
DWIDTH 10 0
BBX 8 17 1 0
BITMAP
08
0C
08
18
00
FF
FF
03
06
0C
18
18
30
60
C0
FF
FF
ENDCHAR
STARTCHAR 017A
ENCODING 378
SWIDTH 600 0
DWIDTH 10 0
BBX 8 14 1 0
BITMAP
08
0C
08
18
00
FF
FF
06
0C
18
30
60
FF
FF
ENDCHAR
STARTCHAR 017B
ENCODING 379
SWIDTH 600 0
DWIDTH 10 0
BBX 8 15 1 0
BITMAP
18
18
00
FF
FF
03
06
0C
18
18
30
60
C0
FF
FF
ENDCHAR
STARTCHAR 017C
ENCODING 380
SWIDTH 600 0
DWIDTH 10 0
BBX 8 12 1 0
BITMAP
18
18
00
FF
FF
06
0C
18
30
60
FF
FF
ENDCHAR
STARTCHAR 017D
ENCODING 381
SWIDTH 600 0
DWIDTH 10 0
BBX 8 16 1 0
BITMAP
62
34
18
00
FF
FF
03
06
0C
18
18
30
60
C0
FF
FF
ENDCHAR
STARTCHAR 017E
ENCODING 382
SWIDTH 600 0
DWIDTH 10 0
BBX 8 13 1 0
BITMAP
62
3C
18
00
FF
FF
06
0C
18
30
60
FF
FF
ENDCHAR
STARTCHAR 017F
ENCODING 383
SWIDTH 600 0
DWIDTH 10 0
BBX 8 13 1 0
BITMAP
0F
1F
18
18
F8
F8
18
18
18
18
18
FF
FF
ENDCHAR
STARTCHAR 018F
ENCODING 399
SWIDTH 600 0
DWIDTH 10 0
BBX 8 12 1 0
BITMAP
3C
7E
E3
C3
03
FF
FF
C3
C3
E3
7E
3C
ENDCHAR
STARTCHAR 0192
ENCODING 402
SWIDTH 600 0
DWIDTH 10 0
BBX 11 15 -1 -3
BITMAP
01E0
03E0
0300
0200
3FC0
3FC0
0600
0600
0600
0400
0C00
0C00
0C00
FC00
F800
ENDCHAR
STARTCHAR 01A0
ENCODING 416
SWIDTH 600 0
DWIDTH 10 0
BBX 9 14 1 0
BITMAP
0180
0180
3F80
7F00
E300
C300
C300
C300
C300
C300
C300
E300
7E00
3C00
ENDCHAR
STARTCHAR 01A1
ENCODING 417
SWIDTH 600 0
DWIDTH 10 0
BBX 8 11 1 0
BITMAP
01
01
3F
7F
C3
C3
C3
C3
C3
7E
3C
ENDCHAR
STARTCHAR 01AF
ENCODING 431
SWIDTH 600 0
DWIDTH 10 0
BBX 9 14 1 0
BITMAP
0080
0080
C380
C300
C300
C300
C300
C300
C300
C300
C300
E300
7E00
3C00
ENDCHAR
STARTCHAR 01B0
ENCODING 432
SWIDTH 600 0
DWIDTH 10 0
BBX 9 11 1 0
BITMAP
0180
0180
C380
C300
C300
C300
C300
C300
E300
7F00
3B00
ENDCHAR
STARTCHAR 01CD
ENCODING 461
SWIDTH 600 0
DWIDTH 10 0
BBX 10 16 0 0
BITMAP
3100
1A00
0C00
0000
0E00
1E00
1E00
1A00
1300
3300
3300
3F80
7F80
6180
6180
C0C0
ENDCHAR
STARTCHAR 01CE
ENCODING 462
SWIDTH 600 0
DWIDTH 10 0
BBX 9 13 1 0
BITMAP
4600
3C00
1800
0000
3C00
7E00
C600
0200
7E00
C200
C600
FB80
7B80
ENDCHAR
STARTCHAR 01CF
ENCODING 463
SWIDTH 600 0
DWIDTH 10 0
BBX 8 16 1 0
BITMAP
62
34
18
00
FF
FF
18
18
18
18
18
18
18
18
FF
FF
ENDCHAR
STARTCHAR 01D0
ENCODING 464
SWIDTH 600 0
DWIDTH 10 0
BBX 7 13 2 0
BITMAP
44
6E
38
00
F8
F8
18
18
18
18
18
FE
FE
ENDCHAR
STARTCHAR 01D1
ENCODING 465
SWIDTH 600 0
DWIDTH 10 0
BBX 8 16 1 0
BITMAP
62
34
18
00
3C
7E
E3
C3
C3
C3
C3
C3
C3
E3
7E
3C
ENDCHAR
STARTCHAR 01D2
ENCODING 466
SWIDTH 600 0
DWIDTH 10 0
BBX 8 13 1 0
BITMAP
62
3C
18
00
3C
7E
C3
C3
C3
C3
C3
7E
3C
ENDCHAR
STARTCHAR 01D3
ENCODING 467
SWIDTH 600 0
DWIDTH 10 0
BBX 8 16 1 0
BITMAP
62
34
18
00
C3
C3
C3
C3
C3
C3
C3
C3
C3
E3
7E
3C
ENDCHAR
STARTCHAR 01D4
ENCODING 468
SWIDTH 600 0
DWIDTH 10 0
BBX 8 13 1 0
BITMAP
62
3C
18
00
C3
C3
C3
C3
C3
C3
E3
7F
3B
ENDCHAR
STARTCHAR 01D5
ENCODING 469
SWIDTH 600 0
DWIDTH 10 0
BBX 8 17 1 0
BITMAP
3E
00
66
66
00
C3
C3
C3
C3
C3
C3
C3
C3
C3
E3
7E
3C
ENDCHAR
STARTCHAR 01D6
ENCODING 470
SWIDTH 600 0
DWIDTH 10 0
BBX 8 14 1 0
BITMAP
3E
00
66
66
00
C3
C3
C3
C3
C3
C3
E3
7F
3B
ENDCHAR
STARTCHAR 01D7
ENCODING 471
SWIDTH 600 0
DWIDTH 10 0
BBX 8 19 1 0
BITMAP
08
0C
08
18
66
66
00
C3
C3
C3
C3
C3
C3
C3
C3
C3
E3
7E
3C
ENDCHAR
STARTCHAR 01D8
ENCODING 472
SWIDTH 600 0
DWIDTH 10 0
BBX 8 16 1 0
BITMAP
08
0C
08
18
66
66
00
C3
C3
C3
C3
C3
C3
E3
7F
3B
ENDCHAR
STARTCHAR 01D9
ENCODING 473
SWIDTH 600 0
DWIDTH 10 0
BBX 8 19 1 0
BITMAP
66
3C
18
00
66
66
00
C3
C3
C3
C3
C3
C3
C3
C3
C3
E3
7E
3C
ENDCHAR
STARTCHAR 01DA
ENCODING 474
SWIDTH 600 0
DWIDTH 10 0
BBX 8 16 1 0
BITMAP
66
3C
18
00
66
66
00
C3
C3
C3
C3
C3
C3
E3
7F
3B
ENDCHAR
STARTCHAR 01DB
ENCODING 475
SWIDTH 600 0
DWIDTH 10 0
BBX 8 19 1 0
BITMAP
20
30
10
08
66
66
00
C3
C3
C3
C3
C3
C3
C3
C3
C3
E3
7E
3C
ENDCHAR
STARTCHAR 01DC
ENCODING 476
SWIDTH 600 0
DWIDTH 10 0
BBX 8 16 1 0
BITMAP
20
30
10
08
66
66
00
C3
C3
C3
C3
C3
C3
E3
7F
3B
ENDCHAR
STARTCHAR 01FA
ENCODING 506
SWIDTH 600 0
DWIDTH 10 0
BBX 10 21 0 0
BITMAP
0400
0600
0C00
0000
0E00
1200
1200
0E00
0000
0E00
1E00
1E00
1A00
1300
3300
3300
3F80
7F80
6180
6180
C0C0
ENDCHAR
STARTCHAR 01FB
ENCODING 507
SWIDTH 600 0
DWIDTH 10 0
BBX 9 18 1 0
BITMAP
0800
0C00
1800
0000
3800
2400
2400
3800
0000
3C00
7E00
C600
0200
7E00
C200
C600
FB80
7B80
ENDCHAR
STARTCHAR 01FC
ENCODING 508
SWIDTH 600 0
DWIDTH 10 0
BBX 10 17 0 0
BITMAP
0200
0380
0300
0600
0000
1FC0
1FC0
1600
3600
3600
3780
2780
7E00
7E00
6600
47C0
C7C0
ENDCHAR
STARTCHAR 01FD
ENCODING 509
SWIDTH 600 0
DWIDTH 10 0
BBX 10 14 0 0
BITMAP
0400
0600
0400
0C00
0000
3380
7F80
CCC0
0CC0
7FC0
CC00
CCC0
F780
7380
ENDCHAR
STARTCHAR 01FE
ENCODING 510
SWIDTH 600 0
DWIDTH 10 0
BBX 9 18 1 -1
BITMAP
0800
0C00
0800
1800
0100
3D80
7F00
E300
C700
CF00
CB00
DB00
F300
E300
E300
7E00
FC00
8000
ENDCHAR
STARTCHAR 01FF
ENCODING 511
SWIDTH 600 0
DWIDTH 10 0
BBX 9 15 1 -1
BITMAP
0800
0C00
0800
1800
0100
3D80
7E00
C700
CF00
DB00
F300
E300
7E00
FC00
8000
ENDCHAR
STARTCHAR 0218
ENCODING 536
SWIDTH 600 0
DWIDTH 10 0
BBX 8 16 1 -4
BITMAP
3C
7F
C3
C0
E0
7E
3F
03
83
C3
FF
3C
00
18
18
10
ENDCHAR
STARTCHAR 0219
ENCODING 537
SWIDTH 600 0
DWIDTH 10 0
BBX 8 13 1 -4
BITMAP
3E
7F
42
F8
7E
0F
43
FF
3E
00
18
18
10
ENDCHAR
STARTCHAR 021A
ENCODING 538
SWIDTH 600 0
DWIDTH 10 0
BBX 10 16 0 -4
BITMAP
FFC0
FFC0
0C00
0C00
0C00
0C00
0C00
0C00
0C00
0C00
0C00
0C00
0000
0C00
0C00
0800
ENDCHAR
STARTCHAR 021B
ENCODING 539
SWIDTH 600 0
DWIDTH 10 0
BBX 8 16 1 -4
BITMAP
30
30
30
FF
FF
30
30
30
30
30
3F
1F
00
0C
0C
08
ENDCHAR
STARTCHAR 0237
ENCODING 567
SWIDTH 600 0
DWIDTH 10 0
BBX 5 12 2 -3
BITMAP
F8
F8
08
08
08
08
08
08
08
08
F8
F8
ENDCHAR
STARTCHAR 0259
ENCODING 601
SWIDTH 600 0
DWIDTH 10 0
BBX 8 9 1 0
BITMAP
3C
7E
C3
03
FF
C3
E3
7E
3C
ENDCHAR
STARTCHAR 02BB
ENCODING 699
SWIDTH 600 0
DWIDTH 10 0
BBX 3 3 4 10
BITMAP
60
40
C0
ENDCHAR
STARTCHAR 02BC
ENCODING 700
SWIDTH 600 0
DWIDTH 10 0
BBX 2 3 3 9
BITMAP
C0
C0
80
ENDCHAR
STARTCHAR 02C6
ENCODING 710
SWIDTH 600 0
DWIDTH 10 0
BBX 6 3 2 10
BITMAP
30
78
C4
ENDCHAR
STARTCHAR 02C7
ENCODING 711
SWIDTH 600 0
DWIDTH 10 0
BBX 6 3 2 10
BITMAP
C4
78
30
ENDCHAR
STARTCHAR 02D8
ENCODING 728
SWIDTH 600 0
DWIDTH 10 0
BBX 6 3 2 10
BITMAP
84
CC
78
ENDCHAR
STARTCHAR 02D9
ENCODING 729
SWIDTH 600 0
DWIDTH 10 0
BBX 2 2 4 10
BITMAP
C0
C0
ENDCHAR
STARTCHAR 02DA
ENCODING 730
SWIDTH 600 0
DWIDTH 10 0
BBX 4 4 3 10
BITMAP
70
90
90
70
ENDCHAR
STARTCHAR 02DB
ENCODING 731
SWIDTH 600 0
DWIDTH 10 0
BBX 4 4 2 -3
BITMAP
20
C0
80
F0
ENDCHAR
STARTCHAR 02DC
ENCODING 732
SWIDTH 600 0
DWIDTH 10 0
BBX 6 2 2 10
BITMAP
64
9C
ENDCHAR
STARTCHAR 02DD
ENCODING 733
SWIDTH 600 0
DWIDTH 10 0
BBX 6 4 3 10
BITMAP
90
6C
D8
90
ENDCHAR
STARTCHAR 0300
ENCODING 768
SWIDTH 0 0
DWIDTH 0 0
BBX 3 4 -2 10
BITMAP
80
C0
40
60
ENDCHAR
STARTCHAR 0301
ENCODING 769
SWIDTH 0 0
DWIDTH 0 0
BBX 3 4 -1 10
BITMAP
40
60
40
C0
ENDCHAR
STARTCHAR 0302
ENCODING 770
SWIDTH 0 0
DWIDTH 0 0
BBX 6 3 -3 10
BITMAP
30
78
CC
ENDCHAR
STARTCHAR 0303
ENCODING 771
SWIDTH 0 0
DWIDTH 0 0
BBX 6 2 -3 10
BITMAP
E4
9C
ENDCHAR
STARTCHAR 0304
ENCODING 772
SWIDTH 0 0
DWIDTH 0 0
BBX 4 1 -2 11
BITMAP
F0
ENDCHAR
STARTCHAR 0306
ENCODING 774
SWIDTH 0 0
DWIDTH 0 0
BBX 6 3 -3 10
BITMAP
84
CC
78
ENDCHAR
STARTCHAR 0307
ENCODING 775
SWIDTH 0 0
DWIDTH 0 0
BBX 2 2 -1 10
BITMAP
C0
C0
ENDCHAR
STARTCHAR 0308
ENCODING 776
SWIDTH 0 0
DWIDTH 0 0
BBX 6 2 -3 10
BITMAP
CC
CC
ENDCHAR
STARTCHAR 0309
ENCODING 777
SWIDTH 0 0
DWIDTH 0 0
BBX 4 3 -2 10
BITMAP
F0
30
60
ENDCHAR
STARTCHAR 030A
ENCODING 778
SWIDTH 0 0
DWIDTH 0 0
BBX 4 4 -2 10
BITMAP
70
90
90
70
ENDCHAR
STARTCHAR 030B
ENCODING 779
SWIDTH 0 0
DWIDTH 0 0
BBX 6 4 -2 10
BITMAP
90
6C
D8
90
ENDCHAR
STARTCHAR 030C
ENCODING 780
SWIDTH 0 0
DWIDTH 0 0
BBX 6 3 -3 10
BITMAP
C4
78
30
ENDCHAR
STARTCHAR 0312
ENCODING 786
SWIDTH 0 0
DWIDTH 0 0
BBX 3 3 -1 10
BITMAP
60
40
C0
ENDCHAR
STARTCHAR 0315
ENCODING 789
SWIDTH 0 0
DWIDTH 0 0
BBX 2 3 0 9
BITMAP
C0
C0
80
ENDCHAR
STARTCHAR 031B
ENCODING 795
SWIDTH 0 0
DWIDTH 0 0
BBX 4 3 -2 8
BITMAP
30
30
E0
ENDCHAR
STARTCHAR 0323
ENCODING 803
SWIDTH 0 0
DWIDTH 0 0
BBX 2 2 -1 -3
BITMAP
C0
C0
ENDCHAR
STARTCHAR 0326
ENCODING 806
SWIDTH 0 0
DWIDTH 0 0
BBX 2 3 -1 -4
BITMAP
C0
C0
80
ENDCHAR
STARTCHAR 0327
ENCODING 807
SWIDTH 0 0
DWIDTH 0 0
BBX 4 3 -2 -3
BITMAP
60
30
F0
ENDCHAR
STARTCHAR 0328
ENCODING 808
SWIDTH 0 0
DWIDTH 0 0
BBX 3 4 -3 -3
BITMAP
20
C0
80
E0
ENDCHAR
STARTCHAR 03C0
ENCODING 960
SWIDTH 600 0
DWIDTH 10 0
BBX 10 9 0 0
BITMAP
FFC0
FFC0
3300
3300
3300
3300
3300
31C0
31C0
ENDCHAR
STARTCHAR 0400
ENCODING 1024
SWIDTH 600 0
DWIDTH 10 0
BBX 8 17 1 0
BITMAP
10
30
18
08
00
FF
FF
C0
C0
C0
FF
FF
C0
C0
C0
FF
FF
ENDCHAR
STARTCHAR 0401
ENCODING 1025
SWIDTH 600 0
DWIDTH 10 0
BBX 8 15 1 0
BITMAP
76
76
00
FF
FF
C0
C0
C0
FF
FF
C0
C0
C0
FF
FF
ENDCHAR
STARTCHAR 0402
ENCODING 1026
SWIDTH 600 0
DWIDTH 10 0
BBX 10 15 0 -3
BITMAP
FE00
FE00
1800
1800
1800
1F00
1F80
19C0
18C0
18C0
18C0
18C0
00C0
07C0
0780
ENDCHAR
STARTCHAR 0403
ENCODING 1027
SWIDTH 600 0
DWIDTH 10 0
BBX 7 17 2 0
BITMAP
10
0C
18
10
00
FE
FE
C0
C0
C0
C0
C0
C0
C0
C0
C0
C0
ENDCHAR
STARTCHAR 0404
ENCODING 1028
SWIDTH 600 0
DWIDTH 10 0
BBX 8 12 1 0
BITMAP
3C
7E
63
C3
C0
FC
FC
C0
C3
63
7E
3C
ENDCHAR
STARTCHAR 0405
ENCODING 1029
SWIDTH 600 0
DWIDTH 10 0
BBX 8 12 1 0
BITMAP
3C
7F
C3
C0
E0
7E
3F
03
83
C3
FF
3C
ENDCHAR
STARTCHAR 0406
ENCODING 1030
SWIDTH 600 0
DWIDTH 10 0
BBX 8 12 1 0
BITMAP
FF
FF
18
18
18
18
18
18
18
18
FF
FF
ENDCHAR
STARTCHAR 0407
ENCODING 1031
SWIDTH 600 0
DWIDTH 10 0
BBX 8 15 1 0
BITMAP
66
76
00
FF
FF
18
18
18
18
18
18
18
18
FF
FF
ENDCHAR
STARTCHAR 0408
ENCODING 1032
SWIDTH 600 0
DWIDTH 10 0
BBX 7 12 1 0
BITMAP
7E
7E
06
06
06
06
06
06
46
C6
7E
3C
ENDCHAR
STARTCHAR 0409
ENCODING 1033
SWIDTH 600 0
DWIDTH 10 0
BBX 10 12 0 0
BITMAP
3E00
3E00
2600
2600
2780
27C0
26C0
26C0
66C0
66C0
E7C0
C780
ENDCHAR
STARTCHAR 040A
ENCODING 1034
SWIDTH 600 0
DWIDTH 10 0
BBX 9 12 1 0
BITMAP
8800
8800
8800
8800
8F00
FF80
F980
8980
8980
8980
8F80
8F00
ENDCHAR
STARTCHAR 040B
ENCODING 1035
SWIDTH 600 0
DWIDTH 10 0
BBX 10 12 0 0
BITMAP
FE00
FE00
1800
1800
1800
1F00
1F80
19C0
18C0
18C0
18C0
18C0
ENDCHAR
STARTCHAR 040C
ENCODING 1036
SWIDTH 600 0
DWIDTH 10 0
BBX 9 17 1 0
BITMAP
0800
0C00
0800
1800
0000
C300
C300
C600
C600
CC00
FC00
FC00
CC00
C600
C600
C380
C380
ENDCHAR
STARTCHAR 040D
ENCODING 1037
SWIDTH 600 0
DWIDTH 10 0
BBX 8 17 1 0
BITMAP
10
30
18
08
00
C3
C7
C7
C7
CF
CB
DB
D3
F3
E3
E3
C3
ENDCHAR
STARTCHAR 040E
ENCODING 1038
SWIDTH 600 0
DWIDTH 10 0
BBX 9 16 1 0
BITMAP
6600
2600
3C00
0000
C180
C300
6300
6200
2600
3600
3400
1C00
1C00
1800
7800
7000
ENDCHAR
STARTCHAR 040F
ENCODING 1039
SWIDTH 600 0
DWIDTH 10 0
BBX 8 14 1 -2
BITMAP
C3
C3
C3
C3
C3
C3
C3
C3
C3
C3
FF
FF
18
18
ENDCHAR
STARTCHAR 0410
ENCODING 1040
SWIDTH 600 0
DWIDTH 10 0
BBX 10 12 0 0
BITMAP
0E00
1E00
1E00
1A00
1300
3300
3300
3F80
7F80
6180
6180
C0C0
ENDCHAR
STARTCHAR 0411
ENCODING 1041
SWIDTH 600 0
DWIDTH 10 0
BBX 8 12 1 0
BITMAP
FE
FE
C0
C0
C0
FE
FF
C3
C3
C3
FF
FE
ENDCHAR
STARTCHAR 0412
ENCODING 1042
SWIDTH 600 0
DWIDTH 10 0
BBX 8 12 1 0
BITMAP
FE
FF
C3
C3
C3
FE
FE
C3
C3
C3
FF
FE
ENDCHAR
STARTCHAR 0413
ENCODING 1043
SWIDTH 600 0
DWIDTH 10 0
BBX 7 12 2 0
BITMAP
FE
FE
C0
C0
C0
C0
C0
C0
C0
C0
C0
C0
ENDCHAR
STARTCHAR 0414
ENCODING 1044
SWIDTH 600 0
DWIDTH 10 0
BBX 10 14 0 -2
BITMAP
1F80
1F80
1180
1180
1180
1180
3180
3180
3180
6180
FFC0
FFC0
C0C0
C0C0
ENDCHAR
STARTCHAR 0415
ENCODING 1045
SWIDTH 600 0
DWIDTH 10 0
BBX 8 12 1 0
BITMAP
FF
FF
C0
C0
C0
FF
FF
C0
C0
C0
FF
FF
ENDCHAR
STARTCHAR 0416
ENCODING 1046
SWIDTH 600 0
DWIDTH 10 0
BBX 10 12 0 0
BITMAP
CCC0
4CC0
6C80
6D80
6D80
3F00
3F80
6D80
6D80
6CC0
CCC0
CCC0
ENDCHAR
STARTCHAR 0417
ENCODING 1047
SWIDTH 600 0
DWIDTH 10 0
BBX 8 12 1 0
BITMAP
3C
7E
C7
03
06
3C
3E
03
83
C3
FE
3C
ENDCHAR
STARTCHAR 0418
ENCODING 1048
SWIDTH 600 0
DWIDTH 10 0
BBX 8 12 1 0
BITMAP
C3
C7
C7
C7
CF
CB
DB
D3
F3
E3
E3
C3
ENDCHAR
STARTCHAR 0419
ENCODING 1049
SWIDTH 600 0
DWIDTH 10 0
BBX 8 16 1 0
BITMAP
66
66
3C
00
C3
C7
C7
C7
CF
CB
DB
D3
F3
E3
E3
C3
ENDCHAR
STARTCHAR 041A
ENCODING 1050
SWIDTH 600 0
DWIDTH 10 0
BBX 9 12 1 0
BITMAP
C300
C300
C600
C600
CC00
FC00
FC00
CC00
C600
C600
C380
C380
ENDCHAR
STARTCHAR 041B
ENCODING 1051
SWIDTH 600 0
DWIDTH 10 0
BBX 9 12 0 0
BITMAP
1F80
1F80
1180
1180
1180
1180
1180
3180
3180
3180
E180
E180
ENDCHAR
STARTCHAR 041C
ENCODING 1052
SWIDTH 600 0
DWIDTH 10 0
BBX 8 12 1 0
BITMAP
C3
E3
E7
F5
FD
D9
D9
C9
D1
C1
C1
C1
ENDCHAR
STARTCHAR 041D
ENCODING 1053
SWIDTH 600 0
DWIDTH 10 0
BBX 8 12 1 0
BITMAP
C3
C3
C3
C3
C3
FF
FF
C3
C3
C3
C3
C3
ENDCHAR
STARTCHAR 041E
ENCODING 1054
SWIDTH 600 0
DWIDTH 10 0
BBX 8 12 1 0
BITMAP
3C
7E
E3
C3
C3
C3
C3
C3
C3
E3
7E
3C
ENDCHAR
STARTCHAR 041F
ENCODING 1055
SWIDTH 600 0
DWIDTH 10 0
BBX 8 12 1 0
BITMAP
FF
FF
C3
C3
C3
C3
C3
C3
C3
C3
C3
C3
ENDCHAR
STARTCHAR 0420
ENCODING 1056
SWIDTH 600 0
DWIDTH 10 0
BBX 8 12 1 0
BITMAP
FE
FF
C3
C3
C3
C3
FF
FE
C0
C0
C0
C0
ENDCHAR
STARTCHAR 0421
ENCODING 1057
SWIDTH 600 0
DWIDTH 10 0
BBX 8 12 1 0
BITMAP
3C
7E
63
C3
C0
C0
C0
C0
C3
63
7E
3C
ENDCHAR
STARTCHAR 0422
ENCODING 1058
SWIDTH 600 0
DWIDTH 10 0
BBX 10 12 0 0
BITMAP
FFC0
FFC0
0C00
0C00
0C00
0C00
0C00
0C00
0C00
0C00
0C00
0C00
ENDCHAR
STARTCHAR 0423
ENCODING 1059
SWIDTH 600 0
DWIDTH 10 0
BBX 9 12 1 0
BITMAP
C180
C300
6300
6200
2600
3600
3400
1C00
1C00
1800
7800
7000
ENDCHAR
STARTCHAR 0424
ENCODING 1060
SWIDTH 600 0
DWIDTH 10 0
BBX 10 14 0 -1
BITMAP
0C00
0C00
3F00
7F80
6D80
4CC0
CCC0
CCC0
4CC0
6D80
7F80
3F00
0C00
0C00
ENDCHAR
STARTCHAR 0425
ENCODING 1061
SWIDTH 600 0
DWIDTH 10 0
BBX 10 12 0 0
BITMAP
61C0
7180
3300
1B00
1E00
0E00
0E00
1E00
3300
3300
6180
E1C0
ENDCHAR
STARTCHAR 0426
ENCODING 1062
SWIDTH 600 0
DWIDTH 10 0
BBX 9 14 1 -2
BITMAP
C300
C300
C300
C300
C300
C300
C300
C300
C300
C300
FF80
FF80
0180
0180
ENDCHAR
STARTCHAR 0427
ENCODING 1063
SWIDTH 600 0
DWIDTH 10 0
BBX 8 12 1 0
BITMAP
C3
C3
C3
C3
C3
C3
FF
7F
03
03
03
03
ENDCHAR
STARTCHAR 0428
ENCODING 1064
SWIDTH 600 0
DWIDTH 10 0
BBX 9 12 1 0
BITMAP
9980
9980
9980
9980
9980
9980
9980
9980
9980
9980
FF80
FF80
ENDCHAR
STARTCHAR 0429
ENCODING 1065
SWIDTH 600 0
DWIDTH 10 0
BBX 9 14 1 -2
BITMAP
9B00
9B00
9B00
9B00
9B00
9B00
9B00
9B00
9B00
9B00
FF80
FF80
0080
0080
ENDCHAR
STARTCHAR 042A
ENCODING 1066
SWIDTH 600 0
DWIDTH 10 0
BBX 10 12 0 0
BITMAP
F000
F000
1000
1000
1F00
1F80
10C0
10C0
10C0
10C0
1F80
1F00
ENDCHAR
STARTCHAR 042B
ENCODING 1067
SWIDTH 600 0
DWIDTH 10 0
BBX 9 12 1 0
BITMAP
8180
8180
8180
8180
F180
F980
8D80
8D80
8D80
8D80
F980
F180
ENDCHAR
STARTCHAR 042C
ENCODING 1068
SWIDTH 600 0
DWIDTH 10 0
BBX 8 12 1 0
BITMAP
C0
C0
C0
C0
FE
FF
C3
C3
C3
C3
FF
FE
ENDCHAR
STARTCHAR 042D
ENCODING 1069
SWIDTH 600 0
DWIDTH 10 0
BBX 8 12 1 0
BITMAP
3C
7E
C7
C3
03
1F
1F
03
C3
C7
7E
3C
ENDCHAR
STARTCHAR 042E
ENCODING 1070
SWIDTH 600 0
DWIDTH 10 0
BBX 9 12 1 0
BITMAP
8E00
9F00
9900
9100
9180
F180
F180
9180
9100
9900
9F00
8E00
ENDCHAR
STARTCHAR 042F
ENCODING 1071
SWIDTH 600 0
DWIDTH 10 0
BBX 8 12 1 0
BITMAP
3F
7F
C3
C3
C3
C3
7F
3F
33
63
E3
C3
ENDCHAR
STARTCHAR 0430
ENCODING 1072
SWIDTH 600 0
DWIDTH 10 0
BBX 9 9 1 0
BITMAP
3C00
7E00
C600
0200
7E00
C200
C600
FB80
7B80
ENDCHAR
STARTCHAR 0431
ENCODING 1073
SWIDTH 600 0
DWIDTH 10 0
BBX 8 13 1 0
BITMAP
1F
3F
60
E0
DC
FE
C3
C3
C3
C3
E3
7E
3C
ENDCHAR
STARTCHAR 0432
ENCODING 1074
SWIDTH 600 0
DWIDTH 10 0
BBX 7 9 2 0
BITMAP
FC
FE
86
84
F8
86
86
FE
FC
ENDCHAR
STARTCHAR 0433
ENCODING 1075
SWIDTH 600 0
DWIDTH 10 0
BBX 7 9 2 0
BITMAP
FE
FE
C0
C0
C0
C0
C0
C0
C0
ENDCHAR
STARTCHAR 0434
ENCODING 1076
SWIDTH 600 0
DWIDTH 10 0
BBX 10 11 0 -2
BITMAP
3F00
3F00
3100
3100
3100
3100
2100
FFC0
FFC0
C0C0
C0C0
ENDCHAR
STARTCHAR 0435
ENCODING 1077
SWIDTH 600 0
DWIDTH 10 0
BBX 8 9 1 0
BITMAP
3C
7E
E3
C3
FF
C0
E2
7F
3C
ENDCHAR
STARTCHAR 0436
ENCODING 1078
SWIDTH 600 0
DWIDTH 10 0
BBX 10 9 0 0
BITMAP
4CC0
6C80
6D80
3F80
3F00
6D80
6C80
4C80
CCC0
ENDCHAR
STARTCHAR 0437
ENCODING 1079
SWIDTH 600 0
DWIDTH 10 0
BBX 8 9 1 0
BITMAP
3C
7E
C3
02
3C
03
C3
FE
3C
ENDCHAR
STARTCHAR 0438
ENCODING 1080
SWIDTH 600 0
DWIDTH 10 0
BBX 8 9 1 0
BITMAP
C3
C7
C7
CB
DB
D3
F3
E3
C3
ENDCHAR
STARTCHAR 0439
ENCODING 1081
SWIDTH 600 0
DWIDTH 10 0
BBX 8 13 1 0
BITMAP
66
66
3C
00
C3
C7
C7
CB
DB
D3
F3
E3
C3
ENDCHAR
STARTCHAR 043A
ENCODING 1082
SWIDTH 600 0
DWIDTH 10 0
BBX 7 9 2 0
BITMAP
86
8C
98
F8
F8
98
8C
8E
86
ENDCHAR
STARTCHAR 043B
ENCODING 1083
SWIDTH 600 0
DWIDTH 10 0
BBX 9 9 0 0
BITMAP
3F80
3F80
3180
3180
3180
3180
3180
F180
E180
ENDCHAR
STARTCHAR 043C
ENCODING 1084
SWIDTH 600 0
DWIDTH 10 0
BBX 8 9 1 0
BITMAP
C3
E3
E5
F5
DD
D9
D9
D1
C1
ENDCHAR
STARTCHAR 043D
ENCODING 1085
SWIDTH 600 0
DWIDTH 10 0
BBX 8 9 1 0
BITMAP
C3
C3
C3
FF
FF
C3
C3
C3
C3
ENDCHAR
STARTCHAR 043E
ENCODING 1086
SWIDTH 600 0
DWIDTH 10 0
BBX 8 9 1 0
BITMAP
3C
7E
C3
C3
C3
C3
C3
7E
3C
ENDCHAR
STARTCHAR 043F
ENCODING 1087
SWIDTH 600 0
DWIDTH 10 0
BBX 8 9 1 0
BITMAP
FF
FF
C3
C3
C3
C3
C3
C3
C3
ENDCHAR
STARTCHAR 0440
ENCODING 1088
SWIDTH 600 0
DWIDTH 10 0
BBX 8 12 1 -3
BITMAP
DE
FF
E3
C3
C3
C3
E3
FF
DE
C0
C0
C0
ENDCHAR
STARTCHAR 0441
ENCODING 1089
SWIDTH 600 0
DWIDTH 10 0
BBX 8 9 1 0
BITMAP
3C
7E
63
C0
C0
C0
63
7E
3C
ENDCHAR
STARTCHAR 0442
ENCODING 1090
SWIDTH 600 0
DWIDTH 10 0
BBX 8 9 1 0
BITMAP
FF
FF
18
18
18
18
18
18
18
ENDCHAR
STARTCHAR 0443
ENCODING 1091
SWIDTH 600 0
DWIDTH 10 0
BBX 9 12 1 -3
BITMAP
C380
C300
6300
6600
2600
3400
3C00
1800
1800
1800
F000
E000
ENDCHAR
STARTCHAR 0444
ENCODING 1092
SWIDTH 600 0
DWIDTH 10 0
BBX 9 15 1 -3
BITMAP
1800
1800
1800
FB00
FF00
9900
9980
9980
9980
9900
FF00
FB00
1800
1800
1800
ENDCHAR
STARTCHAR 0445
ENCODING 1093
SWIDTH 600 0
DWIDTH 10 0
BBX 8 9 1 0
BITMAP
C3
66
34
3C
18
3C
26
66
C3
ENDCHAR
STARTCHAR 0446
ENCODING 1094
SWIDTH 600 0
DWIDTH 10 0
BBX 9 11 1 -2
BITMAP
C200
C200
C200
C200
C200
C200
C200
FF80
FF80
0180
0180
ENDCHAR
STARTCHAR 0447
ENCODING 1095
SWIDTH 600 0
DWIDTH 10 0
BBX 8 9 1 0
BITMAP
C3
C3
C3
C3
C7
7F
7B
03
03
ENDCHAR
STARTCHAR 0448
ENCODING 1096
SWIDTH 600 0
DWIDTH 10 0
BBX 8 9 1 0
BITMAP
99
99
99
99
99
99
99
FF
FF
ENDCHAR
STARTCHAR 0449
ENCODING 1097
SWIDTH 600 0
DWIDTH 10 0
BBX 9 11 1 -2
BITMAP
9900
9900
9900
9900
9900
9900
9900
FF80
FF80
0080
0080
ENDCHAR
STARTCHAR 044A
ENCODING 1098
SWIDTH 600 0
DWIDTH 10 0
BBX 10 9 0 0
BITMAP
F000
F000
1F00
1F80
1180
10C0
1180
1F80
1F00
ENDCHAR
STARTCHAR 044B
ENCODING 1099
SWIDTH 600 0
DWIDTH 10 0
BBX 8 9 1 0
BITMAP
81
81
F1
F9
8D
8D
8D
F9
F1
ENDCHAR
STARTCHAR 044C
ENCODING 1100
SWIDTH 600 0
DWIDTH 10 0
BBX 7 9 2 0
BITMAP
C0
C0
FC
FE
C6
C6
C6
FE
FC
ENDCHAR
STARTCHAR 044D
ENCODING 1101
SWIDTH 600 0
DWIDTH 10 0
BBX 8 9 1 0
BITMAP
3C
7E
C7
03
1F
03
C7
7E
3C
ENDCHAR
STARTCHAR 044E
ENCODING 1102
SWIDTH 600 0
DWIDTH 10 0
BBX 9 9 1 0
BITMAP
8E00
9F00
9900
F180
F180
9100
9900
9F00
8E00
ENDCHAR
STARTCHAR 044F
ENCODING 1103
SWIDTH 600 0
DWIDTH 10 0
BBX 8 9 1 0
BITMAP
7F
7F
C3
C3
7F
3F
73
E3
C3
ENDCHAR
STARTCHAR 0450
ENCODING 1104
SWIDTH 600 0
DWIDTH 10 0
BBX 8 14 1 0
BITMAP
10
30
18
08
00
3C
7E
E3
C3
FF
C0
E2
7F
3C
ENDCHAR
STARTCHAR 0451
ENCODING 1105
SWIDTH 600 0
DWIDTH 10 0
BBX 8 12 1 0
BITMAP
66
76
00
3C
7E
E3
C3
FF
C0
E2
7F
3C
ENDCHAR
STARTCHAR 0452
ENCODING 1106
SWIDTH 600 0
DWIDTH 10 0
BBX 9 16 0 -3
BITMAP
6000
FC00
FC00
6000
6F00
6F80
7180
6180
6180
6180
6180
6180
6180
0180
1F80
1F00
ENDCHAR
STARTCHAR 0453
ENCODING 1107
SWIDTH 600 0
DWIDTH 10 0
BBX 7 14 2 0
BITMAP
10
1C
18
30
00
FE
FE
C0
C0
C0
C0
C0
C0
C0
ENDCHAR
STARTCHAR 0454
ENCODING 1108
SWIDTH 600 0
DWIDTH 10 0
BBX 8 9 1 0
BITMAP
3C
7E
63
C0
FC
C0
63
7E
3C
ENDCHAR
STARTCHAR 0455
ENCODING 1109
SWIDTH 600 0
DWIDTH 10 0
BBX 8 9 1 0
BITMAP
3E
7F
42
F8
7E
0F
43
FF
3E
ENDCHAR
STARTCHAR 0456
ENCODING 1110
SWIDTH 600 0
DWIDTH 10 0
BBX 7 13 2 0
BITMAP
38
38
00
00
F8
F8
18
18
18
18
18
FE
FE
ENDCHAR
STARTCHAR 0457
ENCODING 1111
SWIDTH 600 0
DWIDTH 10 0
BBX 7 12 2 0
BITMAP
6C
6C
00
F8
F8
18
18
18
18
18
FE
FE
ENDCHAR
STARTCHAR 0458
ENCODING 1112
SWIDTH 600 0
DWIDTH 10 0
BBX 6 16 2 -3
BITMAP
1C
1C
00
00
F8
F8
08
08
08
08
08
08
08
08
F8
F8
ENDCHAR
STARTCHAR 0459
ENCODING 1113
SWIDTH 600 0
DWIDTH 10 0
BBX 10 9 0 0
BITMAP
3C00
3C00
2780
27C0
24C0
64C0
64C0
E7C0
C780
ENDCHAR
STARTCHAR 045A
ENCODING 1114
SWIDTH 600 0
DWIDTH 10 0
BBX 9 9 1 0
BITMAP
8800
8800
8F00
FF80
F980
8980
8980
8F80
8F00
ENDCHAR
STARTCHAR 045B
ENCODING 1115
SWIDTH 600 0
DWIDTH 10 0
BBX 9 13 0 0
BITMAP
6000
FC00
FC00
6000
6F00
6F00
7180
6180
6180
6180
6180
6180
6180
ENDCHAR
STARTCHAR 045C
ENCODING 1116
SWIDTH 600 0
DWIDTH 10 0
BBX 7 14 2 0
BITMAP
10
18
10
30
00
86
8C
98
F8
F8
98
8C
8E
86
ENDCHAR
STARTCHAR 045D
ENCODING 1117
SWIDTH 600 0
DWIDTH 10 0
BBX 8 14 1 0
BITMAP
10
30
18
08
00
C3
C7
C7
CB
DB
D3
F3
E3
C3
ENDCHAR
STARTCHAR 045E
ENCODING 1118
SWIDTH 600 0
DWIDTH 10 0
BBX 9 16 1 -3
BITMAP
6600
6600
3C00
0000
C380
C300
6300
6600
2600
3400
3C00
1800
1800
1800
F000
E000
ENDCHAR
STARTCHAR 045F
ENCODING 1119
SWIDTH 600 0
DWIDTH 10 0
BBX 8 11 1 -2
BITMAP
C3
C3
C3
C3
C3
C3
C3
FF
FF
18
18
ENDCHAR
STARTCHAR 0472
ENCODING 1138
SWIDTH 600 0
DWIDTH 10 0
BBX 8 12 1 0
BITMAP
3C
7E
C3
C3
C3
FF
FF
C3
C3
C3
7E
3C
ENDCHAR
STARTCHAR 0473
ENCODING 1139
SWIDTH 600 0
DWIDTH 10 0
BBX 8 9 1 0
BITMAP
3C
7E
C3
C3
FF
C3
C3
7E
3C
ENDCHAR
STARTCHAR 0490
ENCODING 1168
SWIDTH 600 0
DWIDTH 10 0
BBX 7 15 2 0
BITMAP
06
06
06
FE
FE
C0
C0
C0
C0
C0
C0
C0
C0
C0
C0
ENDCHAR
STARTCHAR 0491
ENCODING 1169
SWIDTH 600 0
DWIDTH 10 0
BBX 7 11 2 0
BITMAP
06
06
FE
FE
C0
C0
C0
C0
C0
C0
C0
ENDCHAR
STARTCHAR 0492
ENCODING 1170
SWIDTH 600 0
DWIDTH 10 0
BBX 8 12 1 0
BITMAP
7F
7F
60
60
60
FC
FC
60
60
60
60
60
ENDCHAR
STARTCHAR 0493
ENCODING 1171
SWIDTH 600 0
DWIDTH 10 0
BBX 8 9 1 0
BITMAP
3F
3F
20
20
FC
FC
20
20
20
ENDCHAR
STARTCHAR 0494
ENCODING 1172
SWIDTH 600 0
DWIDTH 10 0
BBX 8 15 1 -3
BITMAP
FE
FE
C0
C0
C0
FE
FF
C3
C3
C3
C3
C3
03
1F
1E
ENDCHAR
STARTCHAR 0495
ENCODING 1173
SWIDTH 600 0
DWIDTH 10 0
BBX 7 12 2 -3
BITMAP
FC
FC
80
80
BC
FE
C6
86
86
06
1E
1C
ENDCHAR
STARTCHAR 0496
ENCODING 1174
SWIDTH 600 0
DWIDTH 10 0
BBX 11 14 0 -2
BITMAP
CCC0
CC80
4D80
6D80
6D80
3F00
7F00
6D80
6D80
4D80
CCE0
CCE0
0060
0060
ENDCHAR
STARTCHAR 0497
ENCODING 1175
SWIDTH 600 0
DWIDTH 10 0
BBX 10 11 0 -2
BITMAP
CCC0
4D80
6D80
3F00
7F00
6D80
6D80
4CC0
CCC0
0040
0040
ENDCHAR
STARTCHAR 0498
ENCODING 1176
SWIDTH 600 0
DWIDTH 10 0
BBX 8 14 1 -2
BITMAP
3C
7E
C7
03
06
3C
3E
03
83
C3
FE
7C
18
18
ENDCHAR
STARTCHAR 0499
ENCODING 1177
SWIDTH 600 0
DWIDTH 10 0
BBX 8 11 1 -2
BITMAP
3C
7E
C3
02
3C
03
C3
FE
3C
18
18
ENDCHAR
STARTCHAR 049A
ENCODING 1178
SWIDTH 600 0
DWIDTH 10 0
BBX 9 14 1 -2
BITMAP
C300
C600
C600
C600
CC00
F800
FC00
CC00
CE00
C600
C780
C380
0180
0180
ENDCHAR
STARTCHAR 049B
ENCODING 1179
SWIDTH 600 0
DWIDTH 10 0
BBX 8 11 1 -2
BITMAP
C3
C6
CC
FC
FC
CC
C6
C7
C3
01
01
ENDCHAR
STARTCHAR 049C
ENCODING 1180
SWIDTH 600 0
DWIDTH 10 0
BBX 9 12 1 0
BITMAP
C380
C300
F300
F600
F600
FC00
FC00
F600
F600
F300
C380
C180
ENDCHAR
STARTCHAR 049D
ENCODING 1181
SWIDTH 600 0
DWIDTH 10 0
BBX 9 9 1 0
BITMAP
C300
D300
D600
FC00
FC00
D600
D600
C380
C380
ENDCHAR
STARTCHAR 04A0
ENCODING 1184
SWIDTH 600 0
DWIDTH 10 0
BBX 10 12 0 0
BITMAP
F0C0
F180
3180
3300
3300
3E00
3F00
3300
3380
3180
31C0
30C0
ENDCHAR
STARTCHAR 04A1
ENCODING 1185
SWIDTH 600 0
DWIDTH 10 0
BBX 10 9 0 0
BITMAP
F1C0
F180
3300
3E00
3E00
3300
3380
31C0
31C0
ENDCHAR
STARTCHAR 04A2
ENCODING 1186
SWIDTH 600 0
DWIDTH 10 0
BBX 9 14 1 -2
BITMAP
C300
C300
C300
C300
C300
FF00
FF00
C300
C300
C300
C380
C380
0180
0180
ENDCHAR
STARTCHAR 04A3
ENCODING 1187
SWIDTH 600 0
DWIDTH 10 0
BBX 9 11 1 -2
BITMAP
C200
C200
C200
FE00
FE00
C200
C200
C380
C380
0180
0180
ENDCHAR
STARTCHAR 04A4
ENCODING 1188
SWIDTH 600 0
DWIDTH 10 0
BBX 9 12 1 0
BITMAP
CF80
CF80
CC00
CC00
CC00
FC00
FC00
CC00
CC00
CC00
CC00
CC00
ENDCHAR
STARTCHAR 04A5
ENCODING 1189
SWIDTH 600 0
DWIDTH 10 0
BBX 9 9 1 0
BITMAP
CF80
CF80
CC00
FC00
FC00
CC00
CC00
CC00
CC00
ENDCHAR
STARTCHAR 04AA
ENCODING 1194
SWIDTH 600 0
DWIDTH 10 0
BBX 8 14 1 -2
BITMAP
3C
7E
63
C3
C0
C0
C0
C0
C3
63
7E
3C
08
08
ENDCHAR
STARTCHAR 04AB
ENCODING 1195
SWIDTH 600 0
DWIDTH 10 0
BBX 8 11 1 -2
BITMAP
3C
7E
63
C0
C0
C0
63
7E
3C
08
08
ENDCHAR
STARTCHAR 04AE
ENCODING 1198
SWIDTH 600 0
DWIDTH 10 0
BBX 10 12 0 0
BITMAP
E0C0
6180
6180
3300
3300
1E00
1E00
0C00
0C00
0C00
0C00
0C00
ENDCHAR
STARTCHAR 04AF
ENCODING 1199
SWIDTH 600 0
DWIDTH 10 0
BBX 8 12 1 -3
BITMAP
C3
C3
62
66
66
34
3C
1C
18
18
18
18
ENDCHAR
STARTCHAR 04B0
ENCODING 1200
SWIDTH 600 0
DWIDTH 10 0
BBX 10 12 0 0
BITMAP
E0C0
6180
3180
3300
1E00
1E00
0C00
3F00
3F00
0C00
0C00
0C00
ENDCHAR
STARTCHAR 04B1
ENCODING 1201
SWIDTH 600 0
DWIDTH 10 0
BBX 8 12 1 -3
BITMAP
C3
C3
62
66
66
34
3C
1C
18
7E
7E
18
ENDCHAR
STARTCHAR 04B2
ENCODING 1202
SWIDTH 600 0
DWIDTH 10 0
BBX 10 14 0 -2
BITMAP
E1C0
6180
3300
3B00
1E00
0C00
1E00
1E00
3300
3380
61C0
61C0
80C0
00C0
ENDCHAR
STARTCHAR 04B3
ENCODING 1203
SWIDTH 600 0
DWIDTH 10 0
BBX 9 11 1 -2
BITMAP
C300
6600
3400
3C00
1800
3C00
2600
6780
C380
0180
0180
ENDCHAR
STARTCHAR 04B6
ENCODING 1206
SWIDTH 600 0
DWIDTH 10 0
BBX 9 14 1 -2
BITMAP
C300
C300
C300
C300
C300
C300
FF00
7F00
0300
0300
0380
0380
0180
0180
ENDCHAR
STARTCHAR 04B7
ENCODING 1207
SWIDTH 600 0
DWIDTH 10 0
BBX 9 11 1 -2
BITMAP
C200
C200
C200
C200
C600
FE00
7A00
0380
0380
0180
0180
ENDCHAR
STARTCHAR 04B8
ENCODING 1208
SWIDTH 600 0
DWIDTH 10 0
BBX 8 12 1 0
BITMAP
C3
C3
C3
DB
DB
DB
FF
7F
1B
1B
03
03
ENDCHAR
STARTCHAR 04B9
ENCODING 1209
SWIDTH 600 0
DWIDTH 10 0
BBX 8 9 1 0
BITMAP
C3
C3
C3
DB
DB
FF
7B
1B
03
ENDCHAR
STARTCHAR 04BA
ENCODING 1210
SWIDTH 600 0
DWIDTH 10 0
BBX 8 12 1 0
BITMAP
C0
C0
C0
C0
C0
FE
FF
C3
C3
C3
C3
C3
ENDCHAR
STARTCHAR 04BB
ENCODING 1211
SWIDTH 600 0
DWIDTH 10 0
BBX 8 13 1 0
BITMAP
C0
C0
C0
C0
DE
DE
E3
C3
C3
C3
C3
C3
C3
ENDCHAR
STARTCHAR 04C0
ENCODING 1216
SWIDTH 600 0
DWIDTH 10 0
BBX 8 12 1 0
BITMAP
FF
FF
18
18
18
18
18
18
18
18
FF
FF
ENDCHAR
STARTCHAR 04C1
ENCODING 1217
SWIDTH 600 0
DWIDTH 10 0
BBX 10 16 0 0
BITMAP
3300
3300
1E00
0000
CCC0
4CC0
6C80
6D80
6D80
3F00
3F80
6D80
6D80
6CC0
CCC0
CCC0
ENDCHAR
STARTCHAR 04C2
ENCODING 1218
SWIDTH 600 0
DWIDTH 10 0
BBX 10 13 0 0
BITMAP
3300
3300
1E00
0000
4CC0
6C80
6D80
3F80
3F00
6D80
6C80
4C80
CCC0
ENDCHAR
STARTCHAR 04CF
ENCODING 1231
SWIDTH 600 0
DWIDTH 10 0
BBX 8 13 1 0
BITMAP
FF
FF
18
18
18
18
18
18
18
18
18
FF
FF
ENDCHAR
STARTCHAR 04D0
ENCODING 1232
SWIDTH 600 0
DWIDTH 10 0
BBX 10 16 0 0
BITMAP
3300
3300
1E00
0000
0E00
1E00
1E00
1A00
1300
3300
3300
3F80
7F80
6180
6180
C0C0
ENDCHAR
STARTCHAR 04D1
ENCODING 1233
SWIDTH 600 0
DWIDTH 10 0
BBX 9 13 1 0
BITMAP
6600
6600
3C00
0000
3C00
7E00
C600
0200
7E00
C200
C600
FB80
7B80
ENDCHAR
STARTCHAR 04D2
ENCODING 1234
SWIDTH 600 0
DWIDTH 10 0
BBX 10 15 0 0
BITMAP
3300
3B00
0000
0E00
1E00
1E00
1A00
1300
3300
3300
3F80
7F80
6180
6180
C0C0
ENDCHAR
STARTCHAR 04D3
ENCODING 1235
SWIDTH 600 0
DWIDTH 10 0
BBX 9 12 1 0
BITMAP
6600
6E00
0000
3C00
7E00
C600
0200
7E00
C200
C600
FB80
7B80
ENDCHAR
STARTCHAR 04D4
ENCODING 1236
SWIDTH 600 0
DWIDTH 10 0
BBX 10 12 0 0
BITMAP
1FC0
1FC0
1600
3600
3600
3780
2780
7E00
7E00
6600
47C0
C7C0
ENDCHAR
STARTCHAR 04D5
ENCODING 1237
SWIDTH 600 0
DWIDTH 10 0
BBX 10 9 0 0
BITMAP
3380
7F80
CCC0
0CC0
7FC0
CC00
CCC0
F780
7380
ENDCHAR
STARTCHAR 04D6
ENCODING 1238
SWIDTH 600 0
DWIDTH 10 0
BBX 8 16 1 0
BITMAP
66
26
3C
00
FF
FF
C0
C0
C0
FF
FF
C0
C0
C0
FF
FF
ENDCHAR
STARTCHAR 04D7
ENCODING 1239
SWIDTH 600 0
DWIDTH 10 0
BBX 8 13 1 0
BITMAP
66
66
3C
00
3C
7E
E3
C3
FF
C0
E2
7F
3C
ENDCHAR
STARTCHAR 04D8
ENCODING 1240
SWIDTH 600 0
DWIDTH 10 0
BBX 8 12 1 0
BITMAP
3C
7E
E3
C3
03
FF
FF
C3
C3
E3
7E
3C
ENDCHAR
STARTCHAR 04D9
ENCODING 1241
SWIDTH 600 0
DWIDTH 10 0
BBX 8 9 1 0
BITMAP
3C
7E
C3
03
FF
C3
E3
7E
3C
ENDCHAR
STARTCHAR 04DC
ENCODING 1244
SWIDTH 600 0
DWIDTH 10 0
BBX 10 15 0 0
BITMAP
3300
3B00
0000
CCC0
4CC0
6C80
6D80
6D80
3F00
3F80
6D80
6D80
6CC0
CCC0
CCC0
ENDCHAR
STARTCHAR 04DD
ENCODING 1245
SWIDTH 600 0
DWIDTH 10 0
BBX 10 12 0 0
BITMAP
3300
3B00
0000
4CC0
6C80
6D80
3F80
3F00
6D80
6C80
4C80
CCC0
ENDCHAR
STARTCHAR 04DE
ENCODING 1246
SWIDTH 600 0
DWIDTH 10 0
BBX 8 15 1 0
BITMAP
6E
6E
00
3C
7E
C7
03
06
3C
3E
03
83
C3
FE
3C
ENDCHAR
STARTCHAR 04DF
ENCODING 1247
SWIDTH 600 0
DWIDTH 10 0
BBX 8 12 1 0
BITMAP
66
66
00
3C
7E
C3
02
3C
03
C3
FE
3C
ENDCHAR
STARTCHAR 04E2
ENCODING 1250
SWIDTH 600 0
DWIDTH 10 0
BBX 8 15 1 0
BITMAP
3E
00
00
C3
C7
C7
C7
CF
CB
DB
D3
F3
E3
E3
C3
ENDCHAR
STARTCHAR 04E3
ENCODING 1251
SWIDTH 600 0
DWIDTH 10 0
BBX 8 12 1 0
BITMAP
3E
00
00
C3
C7
C7
CB
DB
D3
F3
E3
C3
ENDCHAR
STARTCHAR 04E4
ENCODING 1252
SWIDTH 600 0
DWIDTH 10 0
BBX 8 15 1 0
BITMAP
66
76
00
C3
C7
C7
C7
CF
CB
DB
D3
F3
E3
E3
C3
ENDCHAR
STARTCHAR 04E5
ENCODING 1253
SWIDTH 600 0
DWIDTH 10 0
BBX 8 12 1 0
BITMAP
66
76
00
C3
C7
C7
CB
DB
D3
F3
E3
C3
ENDCHAR
STARTCHAR 04E6
ENCODING 1254
SWIDTH 600 0
DWIDTH 10 0
BBX 8 15 1 0
BITMAP
66
76
00
3C
7E
E3
C3
C3
C3
C3
C3
C3
E3
7E
3C
ENDCHAR
STARTCHAR 04E7
ENCODING 1255
SWIDTH 600 0
DWIDTH 10 0
BBX 8 12 1 0
BITMAP
66
76
00
3C
7E
C3
C3
C3
C3
C3
7E
3C
ENDCHAR
STARTCHAR 04E8
ENCODING 1256
SWIDTH 600 0
DWIDTH 10 0
BBX 8 12 1 0
BITMAP
3C
7E
C3
C3
C3
FF
FF
C3
C3
C3
7E
3C
ENDCHAR
STARTCHAR 04E9
ENCODING 1257
SWIDTH 600 0
DWIDTH 10 0
BBX 8 9 1 0
BITMAP
3C
7E
C3
C3
FF
C3
C3
7E
3C
ENDCHAR
STARTCHAR 04EE
ENCODING 1262
SWIDTH 600 0
DWIDTH 10 0
BBX 9 15 1 0
BITMAP
3E00
0000
0000
C180
C300
6300
6200
2600
3600
3400
1C00
1C00
1800
7800
7000
ENDCHAR
STARTCHAR 04EF
ENCODING 1263
SWIDTH 600 0
DWIDTH 10 0
BBX 9 15 1 -3
BITMAP
3E00
0000
0000
C380
C300
6300
6600
2600
3400
3C00
1800
1800
1800
F000
E000
ENDCHAR
STARTCHAR 04F0
ENCODING 1264
SWIDTH 600 0
DWIDTH 10 0
BBX 9 15 1 0
BITMAP
7600
7600
0000
C180
C300
6300
6200
2600
3600
3400
1C00
1C00
1800
7800
7000
ENDCHAR
STARTCHAR 04F1
ENCODING 1265
SWIDTH 600 0
DWIDTH 10 0
BBX 9 15 1 -3
BITMAP
6600
7600
0000
C380
C300
6300
6600
2600
3400
3C00
1800
1800
1800
F000
E000
ENDCHAR
STARTCHAR 04F2
ENCODING 1266
SWIDTH 600 0
DWIDTH 10 0
BBX 9 17 1 0
BITMAP
2400
1B00
3600
2400
0000
C180
C300
6300
6200
2600
3600
3400
1C00
1C00
1800
7800
7000
ENDCHAR
STARTCHAR 04F3
ENCODING 1267
SWIDTH 600 0
DWIDTH 10 0
BBX 9 17 1 -3
BITMAP
2400
1B00
3600
2400
0000
C380
C300
6300
6600
2600
3400
3C00
1800
1800
1800
F000
E000
ENDCHAR
STARTCHAR 04F4
ENCODING 1268
SWIDTH 600 0
DWIDTH 10 0
BBX 8 15 1 0
BITMAP
66
6E
00
C3
C3
C3
C3
C3
C3
FF
7F
03
03
03
03
ENDCHAR
STARTCHAR 04F5
ENCODING 1269
SWIDTH 600 0
DWIDTH 10 0
BBX 8 12 1 0
BITMAP
66
6E
00
C3
C3
C3
C3
C7
7F
7B
03
03
ENDCHAR
STARTCHAR 04F8
ENCODING 1272
SWIDTH 600 0
DWIDTH 10 0
BBX 9 15 1 0
BITMAP
6600
7600
0000
8180
8180
8180
8180
F180
F980
8D80
8D80
8D80
8D80
F980
F180
ENDCHAR
STARTCHAR 04F9
ENCODING 1273
SWIDTH 600 0
DWIDTH 10 0
BBX 8 12 1 0
BITMAP
66
76
00
81
81
F1
F9
8D
8D
8D
F9
F1
ENDCHAR
STARTCHAR 0E3F
ENCODING 3647
SWIDTH 600 0
DWIDTH 10 0
BBX 8 16 1 -2
BITMAP
18
18
FE
FF
DB
DB
DB
FE
FE
DB
DB
DB
FF
FE
18
18
ENDCHAR
STARTCHAR 1E80
ENCODING 7808
SWIDTH 600 0
DWIDTH 10 0
BBX 10 17 0 0
BITMAP
0800
1800
0C00
0400
0000
C0C0
40C0
40C0
4CC0
4C80
4E80
4E80
7A80
7280
7280
7380
7380
ENDCHAR
STARTCHAR 1E81
ENCODING 7809
SWIDTH 600 0
DWIDTH 10 0
BBX 10 14 0 0
BITMAP
0800
1800
0C00
0400
0000
CCC0
4CC0
4CC0
4E80
5A80
7280
7280
7280
7380
ENDCHAR
STARTCHAR 1E82
ENCODING 7810
SWIDTH 600 0
DWIDTH 10 0
BBX 10 17 0 0
BITMAP
0400
0600
0400
0C00
0000
C0C0
40C0
40C0
4CC0
4C80
4E80
4E80
7A80
7280
7280
7380
7380
ENDCHAR
STARTCHAR 1E83
ENCODING 7811
SWIDTH 600 0
DWIDTH 10 0
BBX 10 14 0 0
BITMAP
0400
0600
0400
0C00
0000
CCC0
4CC0
4CC0
4E80
5A80
7280
7280
7280
7380
ENDCHAR
STARTCHAR 1E84
ENCODING 7812
SWIDTH 600 0
DWIDTH 10 0
BBX 10 15 0 0
BITMAP
3300
3B00
0000
C0C0
40C0
40C0
4CC0
4C80
4E80
4E80
7A80
7280
7280
7380
7380
ENDCHAR
STARTCHAR 1E85
ENCODING 7813
SWIDTH 600 0
DWIDTH 10 0
BBX 10 12 0 0
BITMAP
3300
3B00
0000
CCC0
4CC0
4CC0
4E80
5A80
7280
7280
7280
7380
ENDCHAR
STARTCHAR 1E9E
ENCODING 7838
SWIDTH 600 0
DWIDTH 10 0
BBX 9 12 1 0
BITMAP
FF00
FF00
C300
C600
CC00
CE00
CF00
C180
C180
D180
FF00
CE00
ENDCHAR
STARTCHAR 1EA0
ENCODING 7840
SWIDTH 600 0
DWIDTH 10 0
BBX 10 15 0 -3
BITMAP
0E00
1E00
1E00
1A00
1300
3300
3300
3F80
7F80
6180
6180
C0C0
0000
0C00
0C00
ENDCHAR
STARTCHAR 1EA1
ENCODING 7841
SWIDTH 600 0
DWIDTH 10 0
BBX 9 12 1 -3
BITMAP
3C00
7E00
C600
0200
7E00
C200
C600
FB80
7B80
0000
1800
1800
ENDCHAR
STARTCHAR 1EA2
ENCODING 7842
SWIDTH 600 0
DWIDTH 10 0
BBX 10 16 0 0
BITMAP
1E00
0600
0400
0000
0E00
1E00
1E00
1A00
1300
3300
3300
3F80
7F80
6180
6180
C0C0
ENDCHAR
STARTCHAR 1EA3
ENCODING 7843
SWIDTH 600 0
DWIDTH 10 0
BBX 9 13 1 0
BITMAP
3C00
0C00
1800
0000
3C00
7E00
C600
0200
7E00
C200
C600
FB80
7B80
ENDCHAR
STARTCHAR 1EA4
ENCODING 7844
SWIDTH 600 0
DWIDTH 10 0
BBX 10 19 0 0
BITMAP
0080
00C0
0180
0D00
1E00
3100
0000
0E00
1E00
1E00
1A00
1300
3300
3300
3F80
7F80
6180
6180
C0C0
ENDCHAR
STARTCHAR 1EA5
ENCODING 7845
SWIDTH 600 0
DWIDTH 10 0
BBX 9 16 1 0
BITMAP
0200
0180
0300
1A00
3C00
4600
0000
3C00
7E00
C600
0200
7E00
C200
C600
FB80
7B80
ENDCHAR
STARTCHAR 1EA6
ENCODING 7846
SWIDTH 600 0
DWIDTH 10 0
BBX 10 19 0 0
BITMAP
4000
C000
6000
2C00
1E00
3100
0000
0E00
1E00
1E00
1A00
1300
3300
3300
3F80
7F80
6180
6180
C0C0
ENDCHAR
STARTCHAR 1EA7
ENCODING 7847
SWIDTH 600 0
DWIDTH 10 0
BBX 10 16 0 0
BITMAP
4000
C000
6000
2C00
1E00
2300
0000
1E00
3F00
6300
0100
3F00
6100
6300
7DC0
3DC0
ENDCHAR
STARTCHAR 1EA8
ENCODING 7848
SWIDTH 600 0
DWIDTH 10 0
BBX 10 18 0 0
BITMAP
0380
0080
0D00
1E00
3100
0000
0E00
1E00
1E00
1A00
1300
3300
3300
3F80
7F80
6180
6180
C0C0
ENDCHAR
STARTCHAR 1EA9
ENCODING 7849
SWIDTH 600 0
DWIDTH 10 0
BBX 9 16 1 0
BITMAP
0700
0300
0200
1800
3C00
4600
0000
3C00
7E00
C600
0200
7E00
C200
C600
FB80
7B80
ENDCHAR
STARTCHAR 1EAA
ENCODING 7850
SWIDTH 600 0
DWIDTH 10 0
BBX 10 18 0 0
BITMAP
1900
2700
0C00
1E00
3100
0000
0E00
1E00
1E00
1A00
1300
3300
3300
3F80
7F80
6180
6180
C0C0
ENDCHAR
STARTCHAR 1EAB
ENCODING 7851
SWIDTH 600 0
DWIDTH 10 0
BBX 9 16 1 0
BITMAP
7200
4C00
0000
1800
2C00
4600
0000
3C00
7E00
C600
0200
7E00
C200
C600
FB80
7B80
ENDCHAR
STARTCHAR 1EAC
ENCODING 7852
SWIDTH 600 0
DWIDTH 10 0
BBX 10 19 0 -3
BITMAP
0C00
1E00
3100
0000
0E00
1E00
1E00
1A00
1300
3300
3300
3F80
7F80
6180
6180
C0C0
0000
0C00
0C00
ENDCHAR
STARTCHAR 1EAD
ENCODING 7853
SWIDTH 600 0
DWIDTH 10 0
BBX 9 16 1 -3
BITMAP
1800
3C00
4600
0000
3C00
7E00
C600
0200
7E00
C200
C600
FB80
7B80
0000
1800
1800
ENDCHAR
STARTCHAR 1EAE
ENCODING 7854
SWIDTH 600 0
DWIDTH 10 0
BBX 10 19 0 0
BITMAP
0400
0600
0400
2E00
3300
1E00
0000
0E00
1E00
1E00
1A00
1300
3300
3300
3F80
7F80
6180
6180
C0C0
ENDCHAR
STARTCHAR 1EAF
ENCODING 7855
SWIDTH 600 0
DWIDTH 10 0
BBX 9 16 1 0
BITMAP
0800
0C00
0800
5400
6600
3C00
0000
3C00
7E00
C600
0200
7E00
C200
C600
FB80
7B80
ENDCHAR
STARTCHAR 1EB0
ENCODING 7856
SWIDTH 600 0
DWIDTH 10 0
BBX 10 19 0 0
BITMAP
1000
1800
0800
2600
3300
1E00
0000
0E00
1E00
1E00
1A00
1300
3300
3300
3F80
7F80
6180
6180
C0C0
ENDCHAR
STARTCHAR 1EB1
ENCODING 7857
SWIDTH 600 0
DWIDTH 10 0
BBX 9 16 1 0
BITMAP
2000
3000
1000
5C00
6600
3C00
0000
3C00
7E00
C600
0200
7E00
C200
C600
FB80
7B80
ENDCHAR
STARTCHAR 1EB2
ENCODING 7858
SWIDTH 600 0
DWIDTH 10 0
BBX 10 18 0 0
BITMAP
1E00
0400
2E00
3300
1E00
0000
0E00
1E00
1E00
1A00
1300
3300
3300
3F80
7F80
6180
6180
C0C0
ENDCHAR
STARTCHAR 1EB3
ENCODING 7859
SWIDTH 600 0
DWIDTH 10 0
BBX 9 15 1 0
BITMAP
3800
0800
5400
6600
3C00
0000
3C00
7E00
C600
0200
7E00
C200
C600
FB80
7B80
ENDCHAR
STARTCHAR 1EB4
ENCODING 7860
SWIDTH 600 0
DWIDTH 10 0
BBX 10 18 0 0
BITMAP
1900
2700
0000
3100
1E00
0000
0E00
1E00
1E00
1A00
1300
3300
3300
3F80
7F80
6180
6180
C0C0
ENDCHAR
STARTCHAR 1EB5
ENCODING 7861
SWIDTH 600 0
DWIDTH 10 0
BBX 9 16 1 0
BITMAP
7000
0E00
0000
4200
6600
3C00
0000
3C00
7E00
C600
0200
7E00
C200
C600
FB80
7B80
ENDCHAR
STARTCHAR 1EB6
ENCODING 7862
SWIDTH 600 0
DWIDTH 10 0
BBX 10 19 0 -3
BITMAP
2100
3300
1E00
0000
0E00
1E00
1E00
1A00
1300
3300
3300
3F80
7F80
6180
6180
C0C0
0000
0C00
0C00
ENDCHAR
STARTCHAR 1EB7
ENCODING 7863
SWIDTH 600 0
DWIDTH 10 0
BBX 9 16 1 -3
BITMAP
4400
6600
3C00
0000
3C00
7E00
C600
0200
7E00
C200
C600
FB80
7B80
0000
1800
1800
ENDCHAR
STARTCHAR 1EB8
ENCODING 7864
SWIDTH 600 0
DWIDTH 10 0
BBX 8 15 1 -3
BITMAP
FF
FF
C0
C0
C0
FF
FF
C0
C0
C0
FF
FF
00
18
18
ENDCHAR
STARTCHAR 1EB9
ENCODING 7865
SWIDTH 600 0
DWIDTH 10 0
BBX 8 12 1 -3
BITMAP
3C
7E
E3
C3
FF
C0
E2
7F
3C
00
18
18
ENDCHAR
STARTCHAR 1EBA
ENCODING 7866
SWIDTH 600 0
DWIDTH 10 0
BBX 8 16 1 0
BITMAP
3C
0C
08
00
FF
FF
C0
C0
C0
FF
FF
C0
C0
C0
FF
FF
ENDCHAR
STARTCHAR 1EBB
ENCODING 7867
SWIDTH 600 0
DWIDTH 10 0
BBX 8 13 1 0
BITMAP
3C
0C
08
00
3C
7E
E3
C3
FF
C0
E2
7F
3C
ENDCHAR
STARTCHAR 1EBC
ENCODING 7868
SWIDTH 600 0
DWIDTH 10 0
BBX 8 16 1 0
BITMAP
32
4E
00
00
FF
FF
C0
C0
C0
FF
FF
C0
C0
C0
FF
FF
ENDCHAR
STARTCHAR 1EBD
ENCODING 7869
SWIDTH 600 0
DWIDTH 10 0
BBX 8 12 1 0
BITMAP
32
4E
00
3C
7E
E3
C3
FF
C0
E2
7F
3C
ENDCHAR
STARTCHAR 1EBE
ENCODING 7870
SWIDTH 600 0
DWIDTH 10 0
BBX 9 19 1 0
BITMAP
0100
0180
0300
1A00
3C00
6200
0000
FF00
FF00
C000
C000
C000
FF00
FF00
C000
C000
C000
FF00
FF00
ENDCHAR
STARTCHAR 1EBF
ENCODING 7871
SWIDTH 600 0
DWIDTH 10 0
BBX 9 16 1 0
BITMAP
0100
0180
0300
1A00
3C00
6200
0000
3C00
7E00
E300
C300
FF00
C000
E200
7F00
3C00
ENDCHAR
STARTCHAR 1EC0
ENCODING 7872
SWIDTH 600 0
DWIDTH 10 0
BBX 9 19 0 0
BITMAP
4000
C000
6000
2C00
1E00
3100
0000
7F80
7F80
6000
6000
6000
7F80
7F80
6000
6000
6000
7F80
7F80
ENDCHAR
STARTCHAR 1EC1
ENCODING 7873
SWIDTH 600 0
DWIDTH 10 0
BBX 9 16 0 0
BITMAP
4000
C000
6000
2C00
1E00
3100
0000
1E00
3F00
7180
6180
7F80
6000
7100
3F80
1E00
ENDCHAR
STARTCHAR 1EC2
ENCODING 7874
SWIDTH 600 0
DWIDTH 10 0
BBX 8 18 1 0
BITMAP
07
01
1A
3C
62
00
FF
FF
C0
C0
C0
FF
FF
C0
C0
C0
FF
FF
ENDCHAR
STARTCHAR 1EC3
ENCODING 7875
SWIDTH 600 0
DWIDTH 10 0
BBX 8 16 1 0
BITMAP
07
01
02
18
3C
62
00
3C
7E
E3
C3
FF
C0
E2
7F
3C
ENDCHAR
STARTCHAR 1EC4
ENCODING 7876
SWIDTH 600 0
DWIDTH 10 0
BBX 8 18 1 0
BITMAP
32
4E
18
3C
62
00
FF
FF
C0
C0
C0
FF
FF
C0
C0
C0
FF
FF
ENDCHAR
STARTCHAR 1EC5
ENCODING 7877
SWIDTH 600 0
DWIDTH 10 0
BBX 8 16 1 0
BITMAP
32
4E
00
18
34
62
00
3C
7E
E3
C3
FF
C0
E2
7F
3C
ENDCHAR
STARTCHAR 1EC6
ENCODING 7878
SWIDTH 600 0
DWIDTH 10 0
BBX 8 19 1 -3
BITMAP
1C
3C
62
00
FF
FF
C0
C0
C0
FF
FF
C0
C0
C0
FF
FF
00
18
18
ENDCHAR
STARTCHAR 1EC7
ENCODING 7879
SWIDTH 600 0
DWIDTH 10 0
BBX 8 16 1 -3
BITMAP
18
3C
62
00
3C
7E
E3
C3
FF
C0
E2
7F
3C
00
18
18
ENDCHAR
STARTCHAR 1EC8
ENCODING 7880
SWIDTH 600 0
DWIDTH 10 0
BBX 8 16 1 0
BITMAP
3C
0C
08
00
FF
FF
18
18
18
18
18
18
18
18
FF
FF
ENDCHAR
STARTCHAR 1EC9
ENCODING 7881
SWIDTH 600 0
DWIDTH 10 0
BBX 7 13 2 0
BITMAP
38
08
18
00
F8
F8
18
18
18
18
18
FE
FE
ENDCHAR
STARTCHAR 1ECA
ENCODING 7882
SWIDTH 600 0
DWIDTH 10 0
BBX 8 15 1 -3
BITMAP
FF
FF
18
18
18
18
18
18
18
18
FF
FF
00
18
18
ENDCHAR
STARTCHAR 1ECB
ENCODING 7883
SWIDTH 600 0
DWIDTH 10 0
BBX 7 16 2 -3
BITMAP
38
38
00
00
F8
F8
18
18
18
18
18
FE
FE
00
18
38
ENDCHAR
STARTCHAR 1ECC
ENCODING 7884
SWIDTH 600 0
DWIDTH 10 0
BBX 8 15 1 -3
BITMAP
3C
7E
E3
C3
C3
C3
C3
C3
C3
E3
7E
3C
00
18
18
ENDCHAR
STARTCHAR 1ECD
ENCODING 7885
SWIDTH 600 0
DWIDTH 10 0
BBX 8 12 1 -3
BITMAP
3C
7E
C3
C3
C3
C3
C3
7E
3C
00
18
18
ENDCHAR
STARTCHAR 1ECE
ENCODING 7886
SWIDTH 600 0
DWIDTH 10 0
BBX 8 16 1 0
BITMAP
3C
0C
08
00
3C
7E
E3
C3
C3
C3
C3
C3
C3
E3
7E
3C
ENDCHAR
STARTCHAR 1ECF
ENCODING 7887
SWIDTH 600 0
DWIDTH 10 0
BBX 8 13 1 0
BITMAP
3C
0C
08
00
3C
7E
C3
C3
C3
C3
C3
7E
3C
ENDCHAR
STARTCHAR 1ED0
ENCODING 7888
SWIDTH 600 0
DWIDTH 10 0
BBX 9 19 1 0
BITMAP
0100
0180
0300
1A00
3C00
6200
0000
3C00
7E00
E300
C300
C300
C300
C300
C300
C300
E300
7E00
3C00
ENDCHAR
STARTCHAR 1ED1
ENCODING 7889
SWIDTH 600 0
DWIDTH 10 0
BBX 9 16 1 0
BITMAP
0100
0180
0300
1A00
3C00
6200
0000
3C00
7E00
C300
C300
C300
C300
C300
7E00
3C00
ENDCHAR
STARTCHAR 1ED2
ENCODING 7890
SWIDTH 600 0
DWIDTH 10 0
BBX 9 19 0 0
BITMAP
4000
C000
6000
2C00
1E00
3100
0000
1E00
3F00
7180
6180
6180
6180
6180
6180
6180
7180
3F00
1E00
ENDCHAR
STARTCHAR 1ED3
ENCODING 7891
SWIDTH 600 0
DWIDTH 10 0
BBX 9 16 0 0
BITMAP
4000
C000
6000
2C00
1E00
3100
0000
1E00
3F00
6180
6180
6180
6180
6180
3F00
1E00
ENDCHAR
STARTCHAR 1ED4
ENCODING 7892
SWIDTH 600 0
DWIDTH 10 0
BBX 8 18 1 0
BITMAP
07
01
1A
3C
62
00
3C
7E
E3
C3
C3
C3
C3
C3
C3
E3
7E
3C
ENDCHAR
STARTCHAR 1ED5
ENCODING 7893
SWIDTH 600 0
DWIDTH 10 0
BBX 8 16 1 0
BITMAP
07
01
02
18
3C
62
00
3C
7E
C3
C3
C3
C3
C3
7E
3C
ENDCHAR
STARTCHAR 1ED6
ENCODING 7894
SWIDTH 600 0
DWIDTH 10 0
BBX 8 18 1 0
BITMAP
32
4E
18
3C
62
00
3C
7E
E3
C3
C3
C3
C3
C3
C3
E3
7E
3C
ENDCHAR
STARTCHAR 1ED7
ENCODING 7895
SWIDTH 600 0
DWIDTH 10 0
BBX 8 16 1 0
BITMAP
32
4E
00
18
34
62
00
3C
7E
C3
C3
C3
C3
C3
7E
3C
ENDCHAR
STARTCHAR 1ED8
ENCODING 7896
SWIDTH 600 0
DWIDTH 10 0
BBX 8 19 1 -3
BITMAP
18
3C
62
00
3C
7E
E3
C3
C3
C3
C3
C3
C3
E3
7E
3C
00
18
18
ENDCHAR
STARTCHAR 1ED9
ENCODING 7897
SWIDTH 600 0
DWIDTH 10 0
BBX 8 16 1 -3
BITMAP
18
3C
62
00
3C
7E
C3
C3
C3
C3
C3
7E
3C
00
18
18
ENDCHAR
STARTCHAR 1EDA
ENCODING 7898
SWIDTH 600 0
DWIDTH 10 0
BBX 9 17 1 0
BITMAP
0800
0C00
0800
1980
0180
3F80
7F00
E300
C300
C300
C300
C300
C300
C300
E300
7E00
3C00
ENDCHAR
STARTCHAR 1EDB
ENCODING 7899
SWIDTH 600 0
DWIDTH 10 0
BBX 8 14 1 0
BITMAP
08
0C
08
19
01
3F
7F
C3
C3
C3
C3
C3
7E
3C
ENDCHAR
STARTCHAR 1EDC
ENCODING 7900
SWIDTH 600 0
DWIDTH 10 0
BBX 9 17 1 0
BITMAP
1000
3000
1800
0980
0180
3F80
7F00
E300
C300
C300
C300
C300
C300
C300
E300
7E00
3C00
ENDCHAR
STARTCHAR 1EDD
ENCODING 7901
SWIDTH 600 0
DWIDTH 10 0
BBX 8 14 1 0
BITMAP
10
30
18
09
01
3F
7F
C3
C3
C3
C3
C3
7E
3C
ENDCHAR
STARTCHAR 1EDE
ENCODING 7902
SWIDTH 600 0
DWIDTH 10 0
BBX 9 16 1 0
BITMAP
3C00
0C00
0980
0180
3F80
7F00
E300
C300
C300
C300
C300
C300
C300
E300
7E00
3C00
ENDCHAR
STARTCHAR 1EDF
ENCODING 7903
SWIDTH 600 0
DWIDTH 10 0
BBX 8 13 1 0
BITMAP
3C
0C
09
01
3F
7F
C3
C3
C3
C3
C3
7E
3C
ENDCHAR
STARTCHAR 1EE0
ENCODING 7904
SWIDTH 600 0
DWIDTH 10 0
BBX 9 16 1 0
BITMAP
3400
4E00
0180
0180
3F80
7F00
E300
C300
C300
C300
C300
C300
C300
E300
7E00
3C00
ENDCHAR
STARTCHAR 1EE1
ENCODING 7905
SWIDTH 600 0
DWIDTH 10 0
BBX 8 12 1 0
BITMAP
34
4F
01
3F
7F
C3
C3
C3
C3
C3
7E
3C
ENDCHAR
STARTCHAR 1EE2
ENCODING 7906
SWIDTH 600 0
DWIDTH 10 0
BBX 9 17 1 -3
BITMAP
0180
0180
3F80
7F00
E300
C300
C300
C300
C300
C300
C300
E300
7E00
3C00
0000
1800
1800
ENDCHAR
STARTCHAR 1EE3
ENCODING 7907
SWIDTH 600 0
DWIDTH 10 0
BBX 8 14 1 -3
BITMAP
01
01
3F
7F
C3
C3
C3
C3
C3
7E
3C
00
18
18
ENDCHAR
STARTCHAR 1EE4
ENCODING 7908
SWIDTH 600 0
DWIDTH 10 0
BBX 8 15 1 -3
BITMAP
C3
C3
C3
C3
C3
C3
C3
C3
C3
E3
7E
3C
00
18
18
ENDCHAR
STARTCHAR 1EE5
ENCODING 7909
SWIDTH 600 0
DWIDTH 10 0
BBX 8 12 1 -3
BITMAP
C3
C3
C3
C3
C3
C3
E3
7F
3B
00
18
18
ENDCHAR
STARTCHAR 1EE6
ENCODING 7910
SWIDTH 600 0
DWIDTH 10 0
BBX 8 16 1 0
BITMAP
3C
0C
08
00
C3
C3
C3
C3
C3
C3
C3
C3
C3
E3
7E
3C
ENDCHAR
STARTCHAR 1EE7
ENCODING 7911
SWIDTH 600 0
DWIDTH 10 0
BBX 8 13 1 0
BITMAP
3C
0C
08
00
C3
C3
C3
C3
C3
C3
E3
7F
3B
ENDCHAR
STARTCHAR 1EE8
ENCODING 7912
SWIDTH 600 0
DWIDTH 10 0
BBX 9 17 1 0
BITMAP
0800
0C00
0800
1880
0080
C380
C300
C300
C300
C300
C300
C300
C300
C300
E300
7E00
3C00
ENDCHAR
STARTCHAR 1EE9
ENCODING 7913
SWIDTH 600 0
DWIDTH 10 0
BBX 9 14 1 0
BITMAP
0800
0C00
0800
1980
0180
C380
C300
C300
C300
C300
C300
E300
7F00
3B00
ENDCHAR
STARTCHAR 1EEA
ENCODING 7914
SWIDTH 600 0
DWIDTH 10 0
BBX 9 17 1 0
BITMAP
1000
3000
1800
0880
0080
C380
C300
C300
C300
C300
C300
C300
C300
C300
E300
7E00
3C00
ENDCHAR
STARTCHAR 1EEB
ENCODING 7915
SWIDTH 600 0
DWIDTH 10 0
BBX 9 14 1 0
BITMAP
1000
3000
1800
0980
0180
C380
C300
C300
C300
C300
C300
E300
7F00
3B00
ENDCHAR
STARTCHAR 1EEC
ENCODING 7916
SWIDTH 600 0
DWIDTH 10 0
BBX 9 16 1 0
BITMAP
3C00
0C00
0880
0080
C380
C300
C300
C300
C300
C300
C300
C300
C300
E300
7E00
3C00
ENDCHAR
STARTCHAR 1EED
ENCODING 7917
SWIDTH 600 0
DWIDTH 10 0
BBX 9 13 1 0
BITMAP
3C00
0C00
0980
0180
C380
C300
C300
C300
C300
C300
E300
7F00
3B00
ENDCHAR
STARTCHAR 1EEE
ENCODING 7918
SWIDTH 600 0
DWIDTH 10 0
BBX 9 16 1 0
BITMAP
3400
4E00
0080
0080
C380
C300
C300
C300
C300
C300
C300
C300
C300
E300
7E00
3C00
ENDCHAR
STARTCHAR 1EEF
ENCODING 7919
SWIDTH 600 0
DWIDTH 10 0
BBX 9 12 1 0
BITMAP
3400
4F80
0180
C380
C300
C300
C300
C300
C300
E300
7F00
3B00
ENDCHAR
STARTCHAR 1EF0
ENCODING 7920
SWIDTH 600 0
DWIDTH 10 0
BBX 9 17 1 -3
BITMAP
0080
0080
C380
C300
C300
C300
C300
C300
C300
C300
C300
E300
7E00
3C00
0000
1800
1800
ENDCHAR
STARTCHAR 1EF1
ENCODING 7921
SWIDTH 600 0
DWIDTH 10 0
BBX 9 14 1 -3
BITMAP
0180
0180
C380
C300
C300
C300
C300
C300
E300
7F00
3B00
0000
1800
1800
ENDCHAR
STARTCHAR 1EF2
ENCODING 7922
SWIDTH 600 0
DWIDTH 10 0
BBX 10 17 0 0
BITMAP
0800
1800
0C00
0400
0000
E0C0
6180
6180
3300
3300
1E00
1E00
0C00
0C00
0C00
0C00
0C00
ENDCHAR
STARTCHAR 1EF3
ENCODING 7923
SWIDTH 600 0
DWIDTH 10 0
BBX 9 17 1 -3
BITMAP
1000
3000
1800
0800
0000
C380
C300
6300
6600
2600
3400
3C00
1800
1800
1800
F000
E000
ENDCHAR
STARTCHAR 1EF4
ENCODING 7924
SWIDTH 600 0
DWIDTH 10 0
BBX 10 15 0 -3
BITMAP
E0C0
6180
6180
3300
3300
1E00
1E00
0C00
0C00
0C00
0C00
0C00
0000
0C00
0C00
ENDCHAR
STARTCHAR 1EF5
ENCODING 7925
SWIDTH 600 0
DWIDTH 10 0
BBX 9 12 1 -3
BITMAP
C380
C300
6300
6600
2600
3400
3C00
1800
1800
1800
F300
E300
ENDCHAR
STARTCHAR 1EF6
ENCODING 7926
SWIDTH 600 0
DWIDTH 10 0
BBX 10 16 0 0
BITMAP
1E00
0600
0400
0000
E0C0
6180
6180
3300
3300
1E00
1E00
0C00
0C00
0C00
0C00
0C00
ENDCHAR
STARTCHAR 1EF7
ENCODING 7927
SWIDTH 600 0
DWIDTH 10 0
BBX 9 16 1 -3
BITMAP
3C00
0C00
0800
0000
C380
C300
6300
6600
2600
3400
3C00
1800
1800
1800
F000
E000
ENDCHAR
STARTCHAR 1EF8
ENCODING 7928
SWIDTH 600 0
DWIDTH 10 0
BBX 10 16 0 0
BITMAP
1900
2700
0000
0000
E0C0
6180
6180
3300
3300
1E00
1E00
0C00
0C00
0C00
0C00
0C00
ENDCHAR
STARTCHAR 1EF9
ENCODING 7929
SWIDTH 600 0
DWIDTH 10 0
BBX 9 15 1 -3
BITMAP
3200
4E00
0000
C380
C300
6300
6600
2600
3400
3C00
1800
1800
1800
F000
E000
ENDCHAR
STARTCHAR 2013
ENCODING 8211
SWIDTH 600 0
DWIDTH 10 0
BBX 8 2 1 4
BITMAP
FF
FF
ENDCHAR
STARTCHAR 2014
ENCODING 8212
SWIDTH 600 0
DWIDTH 10 0
BBX 10 2 0 4
BITMAP
FFC0
FFC0
ENDCHAR
STARTCHAR 2018
ENCODING 8216
SWIDTH 600 0
DWIDTH 10 0
BBX 4 5 3 8
BITMAP
30
20
60
60
E0
ENDCHAR
STARTCHAR 2019
ENCODING 8217
SWIDTH 600 0
DWIDTH 10 0
BBX 3 5 4 8
BITMAP
E0
C0
C0
C0
80
ENDCHAR
STARTCHAR 201A
ENCODING 8218
SWIDTH 600 0
DWIDTH 10 0
BBX 4 5 3 -2
BITMAP
70
60
60
40
C0
ENDCHAR
STARTCHAR 201C
ENCODING 8220
SWIDTH 600 0
DWIDTH 10 0
BBX 8 5 1 8
BITMAP
33
23
66
66
EE
ENDCHAR
STARTCHAR 201D
ENCODING 8221
SWIDTH 600 0
DWIDTH 10 0
BBX 7 5 2 8
BITMAP
E6
CE
CC
CC
88
ENDCHAR
STARTCHAR 201E
ENCODING 8222
SWIDTH 600 0
DWIDTH 10 0
BBX 8 5 1 -2
BITMAP
77
67
66
46
C4
ENDCHAR
STARTCHAR 2020
ENCODING 8224
SWIDTH 600 0
DWIDTH 10 0
BBX 8 16 1 -3
BITMAP
18
18
18
18
FF
FF
18
18
18
18
18
18
18
18
18
18
ENDCHAR
STARTCHAR 2021
ENCODING 8225
SWIDTH 600 0
DWIDTH 10 0
BBX 8 16 1 -3
BITMAP
18
18
18
18
FF
FF
18
18
18
18
18
FF
FF
18
18
18
ENDCHAR
STARTCHAR 2022
ENCODING 8226
SWIDTH 600 0
DWIDTH 10 0
BBX 4 4 3 3
BITMAP
F0
F0
F0
F0
ENDCHAR
STARTCHAR 2026
ENCODING 8230
SWIDTH 600 0
DWIDTH 10 0
BBX 9 2 1 0
BITMAP
DB80
DB80
ENDCHAR
STARTCHAR 2030
ENCODING 8240
SWIDTH 600 0
DWIDTH 10 0
BBX 10 12 0 0
BITMAP
7000
D800
9800
D800
7180
1E00
6000
1F80
2640
2640
2640
1F80
ENDCHAR
STARTCHAR 2032
ENCODING 8242
SWIDTH 600 0
DWIDTH 10 0
BBX 2 6 4 6
BITMAP
40
C0
C0
C0
C0
80
ENDCHAR
STARTCHAR 2033
ENCODING 8243
SWIDTH 600 0
DWIDTH 10 0
BBX 6 6 2 6
BITMAP
6C
4C
4C
CC
C8
D8
ENDCHAR
STARTCHAR 2039
ENCODING 8249
SWIDTH 600 0
DWIDTH 10 0
BBX 4 7 3 1
BITMAP
10
70
E0
C0
E0
70
10
ENDCHAR
STARTCHAR 203A
ENCODING 8250
SWIDTH 600 0
DWIDTH 10 0
BBX 4 7 3 1
BITMAP
80
60
30
10
30
60
80
ENDCHAR
STARTCHAR 2044
ENCODING 8260
SWIDTH 600 0
DWIDTH 10 0
BBX 10 12 0 0
BITMAP
00C0
0080
0180
0100
0200
0000
0000
1000
3000
2000
4000
C000
ENDCHAR
STARTCHAR 2070
ENCODING 8304
SWIDTH 600 0
DWIDTH 10 0
BBX 5 6 3 6
BITMAP
F0
90
B8
98
90
F0
ENDCHAR
STARTCHAR 2074
ENCODING 8308
SWIDTH 600 0
DWIDTH 10 0
BBX 6 6 2 6
BITMAP
18
28
48
48
FC
08
ENDCHAR
STARTCHAR 2075
ENCODING 8309
SWIDTH 600 0
DWIDTH 10 0
BBX 5 6 3 6
BITMAP
F0
80
F0
10
98
F0
ENDCHAR
STARTCHAR 2076
ENCODING 8310
SWIDTH 600 0
DWIDTH 10 0
BBX 5 6 3 6
BITMAP
70
C0
F0
98
98
F0
ENDCHAR
STARTCHAR 2077
ENCODING 8311
SWIDTH 600 0
DWIDTH 10 0
BBX 5 6 3 6
BITMAP
F8
90
30
20
20
60
ENDCHAR
STARTCHAR 2078
ENCODING 8312
SWIDTH 600 0
DWIDTH 10 0
BBX 5 6 3 6
BITMAP
F0
90
60
98
98
F0
ENDCHAR
STARTCHAR 2079
ENCODING 8313
SWIDTH 600 0
DWIDTH 10 0
BBX 5 6 3 6
BITMAP
F0
90
98
F0
30
E0
ENDCHAR
STARTCHAR 2080
ENCODING 8320
SWIDTH 600 0
DWIDTH 10 0
BBX 5 6 3 0
BITMAP
F0
90
B8
98
90
F0
ENDCHAR
STARTCHAR 2081
ENCODING 8321
SWIDTH 600 0
DWIDTH 10 0
BBX 5 6 3 0
BITMAP
E0
A0
20
20
20
F8
ENDCHAR
STARTCHAR 2082
ENCODING 8322
SWIDTH 600 0
DWIDTH 10 0
BBX 5 6 3 0
BITMAP
F0
90
10
20
C0
F8
ENDCHAR
STARTCHAR 2083
ENCODING 8323
SWIDTH 600 0
DWIDTH 10 0
BBX 5 6 2 0
BITMAP
78
48
38
08
48
F8
ENDCHAR
STARTCHAR 2084
ENCODING 8324
SWIDTH 600 0
DWIDTH 10 0
BBX 6 6 2 0
BITMAP
18
28
48
48
FC
08
ENDCHAR
STARTCHAR 2085
ENCODING 8325
SWIDTH 600 0
DWIDTH 10 0
BBX 5 6 3 0
BITMAP
F0
80
F0
10
98
F0
ENDCHAR
STARTCHAR 2086
ENCODING 8326
SWIDTH 600 0
DWIDTH 10 0
BBX 5 6 3 0
BITMAP
70
C0
F0
98
98
F0
ENDCHAR
STARTCHAR 2087
ENCODING 8327
SWIDTH 600 0
DWIDTH 10 0
BBX 5 6 3 0
BITMAP
F8
90
30
20
20
60
ENDCHAR
STARTCHAR 2088
ENCODING 8328
SWIDTH 600 0
DWIDTH 10 0
BBX 5 6 3 0
BITMAP
F0
90
60
98
98
F0
ENDCHAR
STARTCHAR 2089
ENCODING 8329
SWIDTH 600 0
DWIDTH 10 0
BBX 5 6 3 0
BITMAP
F0
90
98
F0
30
E0
ENDCHAR
STARTCHAR 20A1
ENCODING 8353
SWIDTH 600 0
DWIDTH 10 0
BBX 8 16 1 -2
BITMAP
1E
14
3E
7F
77
D5
D4
D4
D4
D4
F5
6B
7E
3C
28
28
ENDCHAR
STARTCHAR 20A4
ENCODING 8356
SWIDTH 600 0
DWIDTH 10 0
BBX 8 12 1 0
BITMAP
3E
7F
63
60
60
FC
60
FC
60
60
FF
FF
ENDCHAR
STARTCHAR 20A6
ENCODING 8358
SWIDTH 600 0
DWIDTH 10 0
BBX 10 12 0 0
BITMAP
7180
7180
7980
6980
6980
EFC0
6D80
FDC0
6780
6780
6380
6380
ENDCHAR
STARTCHAR 20A8
ENCODING 8360
SWIDTH 600 0
DWIDTH 10 0
BBX 9 12 1 0
BITMAP
F000
F800
9800
9800
9B80
FF80
E600
B300
9B80
9980
9F80
8F00
ENDCHAR
STARTCHAR 20A9
ENCODING 8361
SWIDTH 600 0
DWIDTH 10 0
BBX 10 12 0 0
BITMAP
6180
6180
6180
6180
FFC0
6D80
EFC0
6B80
7B80
7380
7380
7380
ENDCHAR
STARTCHAR 20AA
ENCODING 8362
SWIDTH 600 0
DWIDTH 10 0
BBX 8 12 1 0
BITMAP
F9
8D
B5
B5
B5
B5
B5
B5
B5
B5
B3
BE
ENDCHAR
STARTCHAR 20AB
ENCODING 8363
SWIDTH 600 0
DWIDTH 10 0
BBX 9 13 1 0
BITMAP
0300
1F80
0300
3B00
7F00
E700
C300
C300
E700
7F00
3B00
0000
FF00
ENDCHAR
STARTCHAR 20AC
ENCODING 8364
SWIDTH 600 0
DWIDTH 10 0
BBX 8 12 1 0
BITMAP
3C
7F
63
C2
FC
C0
FC
C0
C2
63
7F
3C
ENDCHAR
STARTCHAR 20AD
ENCODING 8365
SWIDTH 600 0
DWIDTH 10 0
BBX 10 12 0 0
BITMAP
61C0
6380
6300
6600
6600
FF80
FF80
6600
6600
6300
6180
61C0
ENDCHAR
STARTCHAR 20AE
ENCODING 8366
SWIDTH 600 0
DWIDTH 10 0
BBX 10 12 0 0
BITMAP
FFC0
FFC0
0C00
0C00
0D00
0E00
1D00
2E00
1C00
2C00
0C00
0C00
ENDCHAR
STARTCHAR 20B1
ENCODING 8369
SWIDTH 600 0
DWIDTH 10 0
BBX 10 12 0 0
BITMAP
7E00
6300
6180
FFC0
6180
FFC0
6180
6300
7E00
6000
6000
6000
ENDCHAR
STARTCHAR 20B2
ENCODING 8370
SWIDTH 600 0
DWIDTH 10 0
BBX 8 16 1 -2
BITMAP
04
0C
3C
7E
EB
CA
C8
CF
DF
D3
D3
F3
7E
3C
30
30
ENDCHAR
STARTCHAR 20B4
ENCODING 8372
SWIDTH 600 0
DWIDTH 10 0
BBX 10 12 0 0
BITMAP
1E00
3F00
2300
0100
FFC0
0600
1C00
FFC0
2000
3100
3F80
1E00
ENDCHAR
STARTCHAR 20B5
ENCODING 8373
SWIDTH 600 0
DWIDTH 10 0
BBX 8 16 1 -2
BITMAP
04
04
3C
7E
6F
C9
C8
C8
D8
D8
D1
73
7E
3C
30
30
ENDCHAR
STARTCHAR 20B8
ENCODING 8376
SWIDTH 600 0
DWIDTH 10 0
BBX 8 12 1 0
BITMAP
FF
00
FF
18
18
18
18
18
18
18
18
18
ENDCHAR
STARTCHAR 20B9
ENCODING 8377
SWIDTH 600 0
DWIDTH 10 0
BBX 8 12 1 0
BITMAP
FF
FF
0C
FF
0C
0C
FC
F0
38
1C
0C
07
ENDCHAR
STARTCHAR 20BA
ENCODING 8378
SWIDTH 600 0
DWIDTH 10 0
BBX 9 12 1 0
BITMAP
6000
6000
6400
7800
6400
F800
6180
E180
6300
6300
7E00
7C00
ENDCHAR
STARTCHAR 20BD
ENCODING 8381
SWIDTH 600 0
DWIDTH 10 0
BBX 9 12 1 0
BITMAP
7E00
7F00
6300
6100
6380
FF00
FE00
6000
FE00
6000
6000
6000
ENDCHAR
STARTCHAR 20BF
ENCODING 8383
SWIDTH 600 0
DWIDTH 10 0
BBX 8 16 1 -2
BITMAP
2C
2C
FE
FF
C3
C3
C3
FE
FE
C3
C3
C3
FF
FE
2C
2C
ENDCHAR
STARTCHAR 2113
ENCODING 8467
SWIDTH 600 0
DWIDTH 10 0
BBX 8 13 1 0
BITMAP
1C
3E
26
26
26
24
2C
38
70
E2
23
3E
1C
ENDCHAR
STARTCHAR 2116
ENCODING 8470
SWIDTH 600 0
DWIDTH 10 0
BBX 9 12 1 0
BITMAP
DB00
DE80
DC80
DC80
FE80
FB00
B800
BF80
B800
B800
B800
B800
ENDCHAR
STARTCHAR 2122
ENCODING 8482
SWIDTH 600 0
DWIDTH 10 0
BBX 9 5 0 7
BITMAP
F480
2780
2780
2680
2480
ENDCHAR
STARTCHAR 2126
ENCODING 8486
SWIDTH 600 0
DWIDTH 10 0
BBX 8 12 1 0
BITMAP
3C
7E
E3
C3
C3
C3
C3
C3
43
26
F7
F7
ENDCHAR
STARTCHAR 212E
ENCODING 8494
SWIDTH 600 0
DWIDTH 10 0
BBX 10 12 0 0
BITMAP
1E00
2100
6180
6180
61C0
FFC0
E000
6000
6000
6080
2100
1E00
ENDCHAR
STARTCHAR 2150
ENCODING 8528
SWIDTH 600 0
DWIDTH 10 0
BBX 10 12 0 0
BITMAP
60C0
A080
2180
2100
2200
7800
03C0
12C0
3080
2080
4100
C300
ENDCHAR
STARTCHAR 2151
ENCODING 8529
SWIDTH 600 0
DWIDTH 10 0
BBX 10 12 0 0
BITMAP
60C0
A080
2180
2100
2200
7800
0380
1640
3640
23C0
4080
C300
ENDCHAR
STARTCHAR 2153
ENCODING 8531
SWIDTH 600 0
DWIDTH 10 0
BBX 10 12 0 0
BITMAP
60C0
A080
2180
2100
2200
7800
0380
14C0
3180
20C0
44C0
C380
ENDCHAR
STARTCHAR 2154
ENCODING 8532
SWIDTH 600 0
DWIDTH 10 0
BBX 10 12 0 0
BITMAP
70C0
D880
1180
3100
4200
F800
0380
14C0
3180
20C0
44C0
C380
ENDCHAR
STARTCHAR 2155
ENCODING 8533
SWIDTH 600 0
DWIDTH 10 0
BBX 10 12 0 0
BITMAP
60C0
A080
2180
2100
2200
7800
03C0
1200
3380
2040
42C0
C780
ENDCHAR
STARTCHAR 2156
ENCODING 8534
SWIDTH 600 0
DWIDTH 10 0
BBX 10 12 0 0
BITMAP
70C0
D880
1180
3100
4200
F800
03C0
1200
3380
2040
42C0
C780
ENDCHAR
STARTCHAR 2157
ENCODING 8535
SWIDTH 600 0
DWIDTH 10 0
BBX 10 12 0 0
BITMAP
70C0
9880
2180
1900
9A00
7000
03C0
1200
3380
2040
42C0
C780
ENDCHAR
STARTCHAR 2158
ENCODING 8536
SWIDTH 600 0
DWIDTH 10 0
BBX 10 12 0 0
BITMAP
30C0
3080
5180
9100
FA00
1000
03C0
1200
3380
2040
42C0
C780
ENDCHAR
STARTCHAR 2159
ENCODING 8537
SWIDTH 600 0
DWIDTH 10 0
BBX 10 12 0 0
BITMAP
60C0
A080
2180
2100
2200
7800
0180
1200
3380
2640
4240
C380
ENDCHAR
STARTCHAR 215A
ENCODING 8538
SWIDTH 600 0
DWIDTH 10 0
BBX 10 12 0 0
BITMAP
78C0
4080
7180
1900
5A00
F000
0180
1200
3380
2640
4240
C380
ENDCHAR
STARTCHAR 215B
ENCODING 8539
SWIDTH 600 0
DWIDTH 10 0
BBX 10 12 0 0
BITMAP
60C0
A080
2180
2100
2200
7800
0380
1240
3180
2240
4640
C380
ENDCHAR
STARTCHAR 215C
ENCODING 8540
SWIDTH 600 0
DWIDTH 10 0
BBX 10 12 0 0
BITMAP
70C0
9880
2180
1900
9A00
7000
0380
1240
3180
2240
4640
C380
ENDCHAR
STARTCHAR 215D
ENCODING 8541
SWIDTH 600 0
DWIDTH 10 0
BBX 10 12 0 0
BITMAP
78C0
4080
7180
1900
5A00
F000
0380
1240
3180
2240
4640
C380
ENDCHAR
STARTCHAR 215E
ENCODING 8542
SWIDTH 600 0
DWIDTH 10 0
BBX 10 12 0 0
BITMAP
F8C0
D880
D180
3100
2200
2000
4380
1240
3180
2240
4640
C380
ENDCHAR
STARTCHAR 2190
ENCODING 8592
SWIDTH 600 0
DWIDTH 10 0
BBX 10 7 0 2
BITMAP
1000
3800
7000
FFC0
7000
3800
1000
ENDCHAR
STARTCHAR 2191
ENCODING 8593
SWIDTH 600 0
DWIDTH 10 0
BBX 8 12 1 0
BITMAP
08
1C
3E
7B
DA
18
18
18
18
18
18
18
ENDCHAR
STARTCHAR 2192
ENCODING 8594
SWIDTH 600 0
DWIDTH 10 0
BBX 10 7 0 2
BITMAP
0200
0700
0180
FFC0
0180
0300
0600
ENDCHAR
STARTCHAR 2193
ENCODING 8595
SWIDTH 600 0
DWIDTH 10 0
BBX 8 12 1 0
BITMAP
18
18
18
18
18
18
18
5A
FB
3E
1C
08
ENDCHAR
STARTCHAR 2194
ENCODING 8596
SWIDTH 600 0
DWIDTH 10 0
BBX 10 7 0 2
BITMAP
1200
3B00
6180
FFC0
6180
3300
1A00
ENDCHAR
STARTCHAR 2195
ENCODING 8597
SWIDTH 600 0
DWIDTH 10 0
BBX 8 12 1 0
BITMAP
08
1C
3E
7B
DA
18
18
5A
FB
3E
1C
08
ENDCHAR
STARTCHAR 2196
ENCODING 8598
SWIDTH 600 0
DWIDTH 10 0
BBX 9 8 1 2
BITMAP
F800
E000
B000
9800
8C00
0600
0300
0180
ENDCHAR
STARTCHAR 2197
ENCODING 8599
SWIDTH 600 0
DWIDTH 10 0
BBX 9 8 0 2
BITMAP
0F80
0380
0680
0C80
1880
3000
6000
C000
ENDCHAR
STARTCHAR 2198
ENCODING 8600
SWIDTH 600 0
DWIDTH 10 0
BBX 9 8 0 2
BITMAP
4000
E000
3000
1880
0C80
0680
0380
0F80
ENDCHAR
STARTCHAR 2199
ENCODING 8601
SWIDTH 600 0
DWIDTH 10 0
BBX 9 8 1 2
BITMAP
0180
0300
0600
8C00
9800
B000
E000
F800
ENDCHAR
STARTCHAR 21A9
ENCODING 8617
SWIDTH 600 0
DWIDTH 10 0
BBX 10 9 0 1
BITMAP
0300
03C0
10C0
38C0
60C0
FF80
6000
3800
1000
ENDCHAR
STARTCHAR 21AA
ENCODING 8618
SWIDTH 600 0
DWIDTH 10 0
BBX 10 9 0 1
BITMAP
3000
7000
C200
C700
C180
7FC0
0180
0300
0600
ENDCHAR
STARTCHAR 21B0
ENCODING 8624
SWIDTH 600 0
DWIDTH 10 0
BBX 8 12 1 0
BITMAP
10
30
60
FF
63
33
13
03
03
03
03
03
ENDCHAR
STARTCHAR 21B1
ENCODING 8625
SWIDTH 600 0
DWIDTH 10 0
BBX 9 12 1 0
BITMAP
0800
0C00
0700
FF80
C700
CC00
C800
C000
C000
C000
C000
C000
ENDCHAR
STARTCHAR 21B2
ENCODING 8626
SWIDTH 600 0
DWIDTH 10 0
BBX 8 12 1 0
BITMAP
03
03
03
03
03
13
33
63
FF
60
30
10
ENDCHAR
STARTCHAR 21B3
ENCODING 8627
SWIDTH 600 0
DWIDTH 10 0
BBX 9 12 1 0
BITMAP
C000
C000
C000
C000
C000
C800
CC00
C700
FF80
0700
0C00
0800
ENDCHAR
STARTCHAR 21B6
ENCODING 8630
SWIDTH 600 0
DWIDTH 10 0
BBX 10 10 0 1
BITMAP
0F80
18C0
18C0
1800
1800
9A00
DF00
7C00
3800
1000
ENDCHAR
STARTCHAR 21B7
ENCODING 8631
SWIDTH 600 0
DWIDTH 10 0
BBX 10 10 0 1
BITMAP
3C00
4600
C600
0200
0200
1280
1AC0
0F80
0700
0200
ENDCHAR
STARTCHAR 21BA
ENCODING 8634
SWIDTH 600 0
DWIDTH 10 0
BBX 10 12 0 0
BITMAP
0FC0
0F00
2F80
3D80
6CC0
40C0
C0C0
C0C0
40C0
6080
6100
1E00
ENDCHAR
STARTCHAR 21BB
ENCODING 8635
SWIDTH 600 0
DWIDTH 10 0
BBX 10 12 0 0
BITMAP
7C00
1C00
3D00
6F80
4D80
C0C0
C0C0
C0C0
40C0
6080
2180
1F00
ENDCHAR
STARTCHAR 21C4
ENCODING 8644
SWIDTH 600 0
DWIDTH 10 0
BBX 10 13 0 -1
BITMAP
0200
0700
0180
FFC0
0180
0300
1600
3800
7000
FFC0
7000
3800
1000
ENDCHAR
STARTCHAR 21C6
ENCODING 8646
SWIDTH 600 0
DWIDTH 10 0
BBX 10 13 0 -1
BITMAP
1000
3800
7000
FFC0
7000
3800
1200
0700
0180
FFC0
0180
0300
0600
ENDCHAR
STARTCHAR 2202
ENCODING 8706
SWIDTH 600 0
DWIDTH 10 0
BBX 8 12 1 0
BITMAP
78
0C
06
3A
7F
C3
C3
C3
C3
C3
7E
3C
ENDCHAR
STARTCHAR 2206
ENCODING 8710
SWIDTH 600 0
DWIDTH 10 0
BBX 8 12 1 0
BITMAP
1C
3C
3C
34
66
66
62
43
C3
C3
FF
FF
ENDCHAR
STARTCHAR 220F
ENCODING 8719
SWIDTH 600 0
DWIDTH 10 0
BBX 8 12 1 0
BITMAP
FF
FF
C3
C3
C3
C3
C3
C3
C3
C3
C3
C3
ENDCHAR
STARTCHAR 2211
ENCODING 8721
SWIDTH 600 0
DWIDTH 10 0
BBX 8 15 1 -3
BITMAP
FF
FF
40
60
30
18
1C
0C
1C
18
30
60
40
FF
FF
ENDCHAR
STARTCHAR 2212
ENCODING 8722
SWIDTH 600 0
DWIDTH 10 0
BBX 8 2 1 4
BITMAP
FF
FF
ENDCHAR
STARTCHAR 2215
ENCODING 8725
SWIDTH 600 0
DWIDTH 10 0
BBX 10 12 0 0
BITMAP
00C0
0080
0180
0100
0200
0000
0000
1000
3000
2000
4000
C000
ENDCHAR
STARTCHAR 221A
ENCODING 8730
SWIDTH 600 0
DWIDTH 10 0
BBX 10 12 0 0
BITMAP
00C0
0080
0080
E180
F180
3100
3300
1300
1A00
1A00
0E00
0E00
ENDCHAR
STARTCHAR 221E
ENCODING 8734
SWIDTH 600 0
DWIDTH 10 0
BBX 10 7 0 2
BITMAP
7380
7BC0
CCC0
CCC0
CCC0
77C0
7380
ENDCHAR
STARTCHAR 222B
ENCODING 8747
SWIDTH 600 0
DWIDTH 10 0
BBX 8 16 1 -3
BITMAP
0F
1F
18
18
18
18
18
18
18
18
18
18
18
18
F8
F0
ENDCHAR
STARTCHAR 2248
ENCODING 8776
SWIDTH 600 0
DWIDTH 10 0
BBX 8 7 1 2
BITMAP
71
FF
8E
00
71
FF
8E
ENDCHAR
STARTCHAR 2260
ENCODING 8800
SWIDTH 600 0
DWIDTH 10 0
BBX 8 10 1 0
BITMAP
06
06
FF
FF
08
18
FF
FF
20
60
ENDCHAR
STARTCHAR 2264
ENCODING 8804
SWIDTH 600 0
DWIDTH 10 0
BBX 8 10 1 0
BITMAP
03
0F
78
E0
F0
3C
07
01
FF
FF
ENDCHAR
STARTCHAR 2265
ENCODING 8805
SWIDTH 600 0
DWIDTH 10 0
BBX 8 10 1 0
BITMAP
C0
F0
1E
07
07
3C
F0
80
FF
FF
ENDCHAR
STARTCHAR 2500
ENCODING 9472
SWIDTH 600 0
DWIDTH 10 0
BBX 12 1 -1 5
BITMAP
FFF0
ENDCHAR
STARTCHAR 2501
ENCODING 9473
SWIDTH 600 0
DWIDTH 10 0
BBX 12 3 -1 4
BITMAP
FFF0
FFF0
FFF0
ENDCHAR
STARTCHAR 2502
ENCODING 9474
SWIDTH 600 0
DWIDTH 10 0
BBX 1 22 5 -6
BITMAP
80
80
80
80
80
80
80
80
80
80
80
80
80
80
80
80
80
80
80
80
80
80
ENDCHAR
STARTCHAR 2503
ENCODING 9475
SWIDTH 600 0
DWIDTH 10 0
BBX 2 22 4 -6
BITMAP
C0
C0
C0
C0
C0
C0
C0
C0
C0
C0
C0
C0
C0
C0
C0
C0
C0
C0
C0
C0
C0
C0
ENDCHAR
STARTCHAR 2504
ENCODING 9476
SWIDTH 600 0
DWIDTH 10 0
BBX 9 1 1 5
BITMAP
DB80
ENDCHAR
STARTCHAR 2505
ENCODING 9477
SWIDTH 600 0
DWIDTH 10 0
BBX 9 3 1 4
BITMAP
DB80
DB80
DB80
ENDCHAR
STARTCHAR 2506
ENCODING 9478
SWIDTH 600 0
DWIDTH 10 0
BBX 1 22 5 -6
BITMAP
80
80
80
80
00
00
80
80
80
80
00
00
80
80
80
80
00
00
80
80
80
80
ENDCHAR
STARTCHAR 2507
ENCODING 9479
SWIDTH 600 0
DWIDTH 10 0
BBX 2 22 4 -6
BITMAP
C0
C0
C0
C0
00
00
C0
C0
C0
C0
00
00
C0
C0
C0
C0
00
00
C0
C0
C0
C0
ENDCHAR
STARTCHAR 2508
ENCODING 9480
SWIDTH 600 0
DWIDTH 10 0
BBX 10 1 0 5
BITMAP
DEC0
ENDCHAR
STARTCHAR 2509
ENCODING 9481
SWIDTH 600 0
DWIDTH 10 0
BBX 10 3 0 4
BITMAP
DEC0
DEC0
DEC0
ENDCHAR
STARTCHAR 250A
ENCODING 9482
SWIDTH 600 0
DWIDTH 10 0
BBX 1 19 5 -4
BITMAP
80
80
80
00
80
80
80
00
80
80
80
00
80
80
80
00
80
80
80
ENDCHAR
STARTCHAR 250B
ENCODING 9483
SWIDTH 600 0
DWIDTH 10 0
BBX 2 19 4 -4
BITMAP
C0
C0
C0
00
C0
C0
C0
00
C0
C0
C0
00
C0
C0
C0
00
C0
C0
C0
ENDCHAR
STARTCHAR 250C
ENCODING 9484
SWIDTH 600 0
DWIDTH 10 0
BBX 6 12 5 -6
BITMAP
FC
80
80
80
80
80
80
80
80
80
80
80
ENDCHAR
STARTCHAR 250D
ENCODING 9485
SWIDTH 600 0
DWIDTH 10 0
BBX 6 13 5 -6
BITMAP
FC
FC
FC
80
80
80
80
80
80
80
80
80
80
ENDCHAR
STARTCHAR 250E
ENCODING 9486
SWIDTH 600 0
DWIDTH 10 0
BBX 7 12 4 -6
BITMAP
FE
C0
C0
C0
C0
C0
C0
C0
C0
C0
C0
C0
ENDCHAR
STARTCHAR 250F
ENCODING 9487
SWIDTH 600 0
DWIDTH 10 0
BBX 7 13 4 -6
BITMAP
FE
FE
FE
C0
C0
C0
C0
C0
C0
C0
C0
C0
C0
ENDCHAR
STARTCHAR 2510
ENCODING 9488
SWIDTH 600 0
DWIDTH 10 0
BBX 7 12 -1 -6
BITMAP
FE
02
02
02
02
02
02
02
02
02
02
02
ENDCHAR
STARTCHAR 2511
ENCODING 9489
SWIDTH 600 0
DWIDTH 10 0
BBX 7 13 -1 -6
BITMAP
FE
FE
FE
02
02
02
02
02
02
02
02
02
02
ENDCHAR
STARTCHAR 2512
ENCODING 9490
SWIDTH 600 0
DWIDTH 10 0
BBX 7 12 -1 -6
BITMAP
FE
06
06
06
06
06
06
06
06
06
06
06
ENDCHAR
STARTCHAR 2513
ENCODING 9491
SWIDTH 600 0
DWIDTH 10 0
BBX 7 13 -1 -6
BITMAP
FE
FE
FE
06
06
06
06
06
06
06
06
06
06
ENDCHAR
STARTCHAR 2514
ENCODING 9492
SWIDTH 600 0
DWIDTH 10 0
BBX 6 11 5 5
BITMAP
80
80
80
80
80
80
80
80
80
80
FC
ENDCHAR
STARTCHAR 2515
ENCODING 9493
SWIDTH 600 0
DWIDTH 10 0
BBX 6 12 5 4
BITMAP
80
80
80
80
80
80
80
80
80
FC
FC
FC
ENDCHAR
STARTCHAR 2516
ENCODING 9494
SWIDTH 600 0
DWIDTH 10 0
BBX 7 11 4 5
BITMAP
C0
C0
C0
C0
C0
C0
C0
C0
C0
C0
FE
ENDCHAR
STARTCHAR 2517
ENCODING 9495
SWIDTH 600 0
DWIDTH 10 0
BBX 7 12 4 4
BITMAP
C0
C0
C0
C0
C0
C0
C0
C0
C0
FE
FE
FE
ENDCHAR
STARTCHAR 2518
ENCODING 9496
SWIDTH 600 0
DWIDTH 10 0
BBX 7 11 -1 5
BITMAP
02
02
02
02
02
02
02
02
02
02
FE
ENDCHAR
STARTCHAR 2519
ENCODING 9497
SWIDTH 600 0
DWIDTH 10 0
BBX 7 12 -1 4
BITMAP
02
02
02
02
02
02
02
02
02
FE
FE
FE
ENDCHAR
STARTCHAR 251A
ENCODING 9498
SWIDTH 600 0
DWIDTH 10 0
BBX 7 11 -1 5
BITMAP
06
06
06
06
06
06
06
06
06
06
FE
ENDCHAR
STARTCHAR 251B
ENCODING 9499
SWIDTH 600 0
DWIDTH 10 0
BBX 7 12 -1 4
BITMAP
06
06
06
06
06
06
06
06
06
FE
FE
FE
ENDCHAR
STARTCHAR 251C
ENCODING 9500
SWIDTH 600 0
DWIDTH 10 0
BBX 6 22 5 -6
BITMAP
80
80
80
80
80
80
80
80
80
80
FC
80
80
80
80
80
80
80
80
80
80
80
ENDCHAR
STARTCHAR 251D
ENCODING 9501
SWIDTH 600 0
DWIDTH 10 0
BBX 6 22 5 -6
BITMAP
80
80
80
80
80
80
80
80
80
FC
FC
FC
80
80
80
80
80
80
80
80
80
80
ENDCHAR
STARTCHAR 251E
ENCODING 9502
SWIDTH 600 0
DWIDTH 10 0
BBX 7 22 4 -6
BITMAP
C0
C0
C0
C0
C0
C0
C0
C0
C0
C0
FE
40
40
40
40
40
40
40
40
40
40
40
ENDCHAR
STARTCHAR 251F
ENCODING 9503
SWIDTH 600 0
DWIDTH 10 0
BBX 7 22 4 -6
BITMAP
40
40
40
40
40
40
40
40
40
40
FE
C0
C0
C0
C0
C0
C0
C0
C0
C0
C0
C0
ENDCHAR
STARTCHAR 2520
ENCODING 9504
SWIDTH 600 0
DWIDTH 10 0
BBX 7 22 4 -6
BITMAP
C0
C0
C0
C0
C0
C0
C0
C0
C0
C0
FE
C0
C0
C0
C0
C0
C0
C0
C0
C0
C0
C0
ENDCHAR
STARTCHAR 2521
ENCODING 9505
SWIDTH 600 0
DWIDTH 10 0
BBX 7 22 4 -6
BITMAP
C0
C0
C0
C0
C0
C0
C0
C0
C0
FE
FE
FE
40
40
40
40
40
40
40
40
40
40
ENDCHAR
STARTCHAR 2522
ENCODING 9506
SWIDTH 600 0
DWIDTH 10 0
BBX 7 22 4 -6
BITMAP
40
40
40
40
40
40
40
40
40
FE
FE
FE
C0
C0
C0
C0
C0
C0
C0
C0
C0
C0
ENDCHAR
STARTCHAR 2523
ENCODING 9507
SWIDTH 600 0
DWIDTH 10 0
BBX 7 22 4 -6
BITMAP
C0
C0
C0
C0
C0
C0
C0
C0
C0
FE
FE
FE
C0
C0
C0
C0
C0
C0
C0
C0
C0
C0
ENDCHAR
STARTCHAR 2524
ENCODING 9508
SWIDTH 600 0
DWIDTH 10 0
BBX 7 22 -1 -6
BITMAP
02
02
02
02
02
02
02
02
02
02
FE
02
02
02
02
02
02
02
02
02
02
02
ENDCHAR
STARTCHAR 2525
ENCODING 9509
SWIDTH 600 0
DWIDTH 10 0
BBX 7 22 -1 -6
BITMAP
02
02
02
02
02
02
02
02
02
FE
FE
FE
02
02
02
02
02
02
02
02
02
02
ENDCHAR
STARTCHAR 2526
ENCODING 9510
SWIDTH 600 0
DWIDTH 10 0
BBX 7 22 -1 -6
BITMAP
06
06
06
06
06
06
06
06
06
06
FE
02
02
02
02
02
02
02
02
02
02
02
ENDCHAR
STARTCHAR 2527
ENCODING 9511
SWIDTH 600 0
DWIDTH 10 0
BBX 7 22 -1 -6
BITMAP
02
02
02
02
02
02
02
02
02
02
FE
06
06
06
06
06
06
06
06
06
06
06
ENDCHAR
STARTCHAR 2528
ENCODING 9512
SWIDTH 600 0
DWIDTH 10 0
BBX 7 22 -1 -6
BITMAP
06
06
06
06
06
06
06
06
06
06
FE
06
06
06
06
06
06
06
06
06
06
06
ENDCHAR
STARTCHAR 2529
ENCODING 9513
SWIDTH 600 0
DWIDTH 10 0
BBX 7 23 -1 -7
BITMAP
06
06
06
06
06
06
06
06
06
06
FE
FE
FE
02
02
02
02
02
02
02
02
02
02
ENDCHAR
STARTCHAR 252A
ENCODING 9514
SWIDTH 600 0
DWIDTH 10 0
BBX 7 23 -1 -7
BITMAP
02
02
02
02
02
02
02
02
02
02
FE
FE
FE
06
06
06
06
06
06
06
06
06
06
ENDCHAR
STARTCHAR 252B
ENCODING 9515
SWIDTH 600 0
DWIDTH 10 0
BBX 7 23 -1 -7
BITMAP
06
06
06
06
06
06
06
06
06
06
FE
FE
FE
06
06
06
06
06
06
06
06
06
06
ENDCHAR
STARTCHAR 252C
ENCODING 9516
SWIDTH 600 0
DWIDTH 10 0
BBX 12 11 -1 -5
BITMAP
FFF0
0200
0200
0200
0200
0200
0200
0200
0200
0200
0200
ENDCHAR
STARTCHAR 252D
ENCODING 9517
SWIDTH 600 0
DWIDTH 10 0
BBX 12 13 -1 -7
BITMAP
FFF0
FE00
FE00
0200
0200
0200
0200
0200
0200
0200
0200
0200
0200
ENDCHAR
STARTCHAR 252E
ENCODING 9518
SWIDTH 600 0
DWIDTH 10 0
BBX 12 13 -1 -7
BITMAP
FFF0
03F0
03F0
0200
0200
0200
0200
0200
0200
0200
0200
0200
0200
ENDCHAR
STARTCHAR 252F
ENCODING 9519
SWIDTH 600 0
DWIDTH 10 0
BBX 12 13 -1 -7
BITMAP
FFF0
FFF0
FFF0
0200
0200
0200
0200
0200
0200
0200
0200
0200
0200
ENDCHAR
STARTCHAR 2530
ENCODING 9520
SWIDTH 600 0
DWIDTH 10 0
BBX 12 11 -1 -5
BITMAP
FFF0
0600
0600
0600
0600
0600
0600
0600
0600
0600
0600
ENDCHAR
STARTCHAR 2531
ENCODING 9521
SWIDTH 600 0
DWIDTH 10 0
BBX 12 13 -1 -7
BITMAP
FFF0
FE00
FE00
0600
0600
0600
0600
0600
0600
0600
0600
0600
0600
ENDCHAR
STARTCHAR 2532
ENCODING 9522
SWIDTH 600 0
DWIDTH 10 0
BBX 12 13 -1 -7
BITMAP
FFF0
07F0
07F0
0600
0600
0600
0600
0600
0600
0600
0600
0600
0600
ENDCHAR
STARTCHAR 2533
ENCODING 9523
SWIDTH 600 0
DWIDTH 10 0
BBX 12 13 -1 -7
BITMAP
FFF0
FFF0
FFF0
0600
0600
0600
0600
0600
0600
0600
0600
0600
0600
ENDCHAR
STARTCHAR 2534
ENCODING 9524
SWIDTH 600 0
DWIDTH 10 0
BBX 12 11 -1 5
BITMAP
0200
0200
0200
0200
0200
0200
0200
0200
0200
0200
FFF0
ENDCHAR
STARTCHAR 2535
ENCODING 9525
SWIDTH 600 0
DWIDTH 10 0
BBX 12 13 -1 3
BITMAP
0200
0200
0200
0200
0200
0200
0200
0200
0200
0200
FFF0
FE00
FE00
ENDCHAR
STARTCHAR 2536
ENCODING 9526
SWIDTH 600 0
DWIDTH 10 0
BBX 12 13 -1 3
BITMAP
0200
0200
0200
0200
0200
0200
0200
0200
0200
0200
FFF0
03F0
03F0
ENDCHAR
STARTCHAR 2537
ENCODING 9527
SWIDTH 600 0
DWIDTH 10 0
BBX 12 13 -1 3
BITMAP
0200
0200
0200
0200
0200
0200
0200
0200
0200
0200
FFF0
FFF0
FFF0
ENDCHAR
STARTCHAR 2538
ENCODING 9528
SWIDTH 600 0
DWIDTH 10 0
BBX 12 11 -1 5
BITMAP
0600
0600
0600
0600
0600
0600
0600
0600
0600
0600
FFF0
ENDCHAR
STARTCHAR 2539
ENCODING 9529
SWIDTH 600 0
DWIDTH 10 0
BBX 12 13 -1 3
BITMAP
0600
0600
0600
0600
0600
0600
0600
0600
0600
0600
FFF0
FE00
FE00
ENDCHAR
STARTCHAR 253A
ENCODING 9530
SWIDTH 600 0
DWIDTH 10 0
BBX 12 13 -1 3
BITMAP
0600
0600
0600
0600
0600
0600
0600
0600
0600
0600
FFF0
07F0
07F0
ENDCHAR
STARTCHAR 253B
ENCODING 9531
SWIDTH 600 0
DWIDTH 10 0
BBX 12 13 -1 3
BITMAP
0600
0600
0600
0600
0600
0600
0600
0600
0600
0600
FFF0
FFF0
FFF0
ENDCHAR
STARTCHAR 253C
ENCODING 9532
SWIDTH 600 0
DWIDTH 10 0
BBX 12 21 -1 -5
BITMAP
0200
0200
0200
0200
0200
0200
0200
0200
0200
0200
FFF0
0200
0200
0200
0200
0200
0200
0200
0200
0200
0200
ENDCHAR
STARTCHAR 253D
ENCODING 9533
SWIDTH 600 0
DWIDTH 10 0
BBX 12 23 -1 -7
BITMAP
0200
0200
0200
0200
0200
0200
0200
0200
0200
0200
FFF0
FE00
FE00
0200
0200
0200
0200
0200
0200
0200
0200
0200
0200
ENDCHAR
STARTCHAR 253E
ENCODING 9534
SWIDTH 600 0
DWIDTH 10 0
BBX 12 23 -1 -7
BITMAP
0200
0200
0200
0200
0200
0200
0200
0200
0200
0200
FFF0
03F0
03F0
0200
0200
0200
0200
0200
0200
0200
0200
0200
0200
ENDCHAR
STARTCHAR 253F
ENCODING 9535
SWIDTH 600 0
DWIDTH 10 0
BBX 12 23 -1 -7
BITMAP
0200
0200
0200
0200
0200
0200
0200
0200
0200
0200
FFF0
FFF0
FFF0
0200
0200
0200
0200
0200
0200
0200
0200
0200
0200
ENDCHAR
STARTCHAR 2540
ENCODING 9536
SWIDTH 600 0
DWIDTH 10 0
BBX 12 21 -1 -5
BITMAP
0600
0600
0600
0600
0600
0600
0600
0600
0600
0600
FFF0
0200
0200
0200
0200
0200
0200
0200
0200
0200
0200
ENDCHAR
STARTCHAR 2541
ENCODING 9537
SWIDTH 600 0
DWIDTH 10 0
BBX 12 21 -1 -5
BITMAP
0200
0200
0200
0200
0200
0200
0200
0200
0200
0200
FFF0
0600
0600
0600
0600
0600
0600
0600
0600
0600
0600
ENDCHAR
STARTCHAR 2542
ENCODING 9538
SWIDTH 600 0
DWIDTH 10 0
BBX 12 21 -1 -5
BITMAP
0600
0600
0600
0600
0600
0600
0600
0600
0600
0600
FFF0
0600
0600
0600
0600
0600
0600
0600
0600
0600
0600
ENDCHAR
STARTCHAR 2543
ENCODING 9539
SWIDTH 600 0
DWIDTH 10 0
BBX 12 23 -1 -7
BITMAP
0600
0600
0600
0600
0600
0600
0600
0600
0600
0600
FFF0
FE00
FE00
0200
0200
0200
0200
0200
0200
0200
0200
0200
0200
ENDCHAR
STARTCHAR 2544
ENCODING 9540
SWIDTH 600 0
DWIDTH 10 0
BBX 12 23 -1 -7
BITMAP
0600
0600
0600
0600
0600
0600
0600
0600
0600
0600
FFF0
07F0
07F0
0200
0200
0200
0200
0200
0200
0200
0200
0200
0200
ENDCHAR
STARTCHAR 2545
ENCODING 9541
SWIDTH 600 0
DWIDTH 10 0
BBX 12 23 -1 -7
BITMAP
0200
0200
0200
0200
0200
0200
0200
0200
0200
0200
FFF0
FE00
FE00
0600
0600
0600
0600
0600
0600
0600
0600
0600
0600
ENDCHAR
STARTCHAR 2546
ENCODING 9542
SWIDTH 600 0
DWIDTH 10 0
BBX 12 23 -1 -7
BITMAP
0200
0200
0200
0200
0200
0200
0200
0200
0200
0200
FFF0
07F0
07F0
0600
0600
0600
0600
0600
0600
0600
0600
0600
0600
ENDCHAR
STARTCHAR 2547
ENCODING 9543
SWIDTH 600 0
DWIDTH 10 0
BBX 12 23 -1 -7
BITMAP
0600
0600
0600
0600
0600
0600
0600
0600
0600
0600
FFF0
FFF0
FFF0
0200
0200
0200
0200
0200
0200
0200
0200
0200
0200
ENDCHAR
STARTCHAR 2548
ENCODING 9544
SWIDTH 600 0
DWIDTH 10 0
BBX 12 23 -1 -7
BITMAP
0200
0200
0200
0200
0200
0200
0200
0200
0200
0200
FFF0
FFF0
FFF0
0600
0600
0600
0600
0600
0600
0600
0600
0600
0600
ENDCHAR
STARTCHAR 2549
ENCODING 9545
SWIDTH 600 0
DWIDTH 10 0
BBX 12 23 -1 -7
BITMAP
0600
0600
0600
0600
0600
0600
0600
0600
0600
0600
FFF0
FE00
FE00
0600
0600
0600
0600
0600
0600
0600
0600
0600
0600
ENDCHAR
STARTCHAR 254A
ENCODING 9546
SWIDTH 600 0
DWIDTH 10 0
BBX 12 23 -1 -7
BITMAP
0600
0600
0600
0600
0600
0600
0600
0600
0600
0600
FFF0
07F0
07F0
0600
0600
0600
0600
0600
0600
0600
0600
0600
0600
ENDCHAR
STARTCHAR 254B
ENCODING 9547
SWIDTH 600 0
DWIDTH 10 0
BBX 12 22 -1 -6
BITMAP
0600
0600
0600
0600
0600
0600
0600
0600
0600
FFF0
FFF0
FFF0
0600
0600
0600
0600
0600
0600
0600
0600
0600
0600
ENDCHAR
STARTCHAR 254C
ENCODING 9548
SWIDTH 600 0
DWIDTH 10 0
BBX 8 1 1 5
BITMAP
E7
ENDCHAR
STARTCHAR 254D
ENCODING 9549
SWIDTH 600 0
DWIDTH 10 0
BBX 8 3 1 4
BITMAP
E7
E7
E7
ENDCHAR
STARTCHAR 254E
ENCODING 9550
SWIDTH 600 0
DWIDTH 10 0
BBX 1 14 5 -2
BITMAP
80
80
80
80
80
00
00
00
00
80
80
80
80
80
ENDCHAR
STARTCHAR 254F
ENCODING 9551
SWIDTH 600 0
DWIDTH 10 0
BBX 2 14 4 -2
BITMAP
C0
C0
C0
C0
C0
00
00
00
00
C0
C0
C0
C0
C0
ENDCHAR
STARTCHAR 2550
ENCODING 9552
SWIDTH 600 0
DWIDTH 10 0
BBX 12 3 -1 4
BITMAP
FFF0
0000
FFF0
ENDCHAR
STARTCHAR 2551
ENCODING 9553
SWIDTH 600 0
DWIDTH 10 0
BBX 4 22 3 -6
BITMAP
D0
D0
D0
D0
D0
D0
D0
D0
D0
D0
D0
D0
D0
D0
D0
D0
D0
D0
D0
D0
D0
D0
ENDCHAR
STARTCHAR 2552
ENCODING 9554
SWIDTH 600 0
DWIDTH 10 0
BBX 6 13 5 -6
BITMAP
FC
80
FC
80
80
80
80
80
80
80
80
80
80
ENDCHAR
STARTCHAR 2553
ENCODING 9555
SWIDTH 600 0
DWIDTH 10 0
BBX 8 12 3 -6
BITMAP
FF
D0
D0
D0
D0
D0
D0
D0
D0
D0
D0
D0
ENDCHAR
STARTCHAR 2554
ENCODING 9556
SWIDTH 600 0
DWIDTH 10 0
BBX 8 13 3 -6
BITMAP
FF
C0
DF
D0
D0
D0
D0
D0
D0
D0
D0
D0
D0
ENDCHAR
STARTCHAR 2555
ENCODING 9557
SWIDTH 600 0
DWIDTH 10 0
BBX 7 13 -1 -6
BITMAP
FE
02
FE
02
02
02
02
02
02
02
02
02
02
ENDCHAR
STARTCHAR 2556
ENCODING 9558
SWIDTH 600 0
DWIDTH 10 0
BBX 8 12 -1 -6
BITMAP
FF
0D
0D
0D
0D
0D
0D
0D
0D
0D
0D
0D
ENDCHAR
STARTCHAR 2557
ENCODING 9559
SWIDTH 600 0
DWIDTH 10 0
BBX 8 13 -1 -6
BITMAP
FF
01
FD
0D
0D
0D
0D
0D
0D
0D
0D
0D
0D
ENDCHAR
STARTCHAR 2558
ENCODING 9560
SWIDTH 600 0
DWIDTH 10 0
BBX 6 12 5 4
BITMAP
80
80
80
80
80
80
80
80
80
FC
80
FC
ENDCHAR
STARTCHAR 2559
ENCODING 9561
SWIDTH 600 0
DWIDTH 10 0
BBX 8 11 3 5
BITMAP
D0
D0
D0
D0
D0
D0
D0
D0
D0
D0
FF
ENDCHAR
STARTCHAR 255A
ENCODING 9562
SWIDTH 600 0
DWIDTH 10 0
BBX 8 12 3 4
BITMAP
D0
D0
D0
D0
D0
D0
D0
D0
D0
DF
C0
FF
ENDCHAR
STARTCHAR 255B
ENCODING 9563
SWIDTH 600 0
DWIDTH 10 0
BBX 7 12 -1 4
BITMAP
02
02
02
02
02
02
02
02
02
FE
02
FE
ENDCHAR
STARTCHAR 255C
ENCODING 9564
SWIDTH 600 0
DWIDTH 10 0
BBX 8 11 -1 5
BITMAP
0D
0D
0D
0D
0D
0D
0D
0D
0D
0D
FF
ENDCHAR
STARTCHAR 255D
ENCODING 9565
SWIDTH 600 0
DWIDTH 10 0
BBX 8 12 -1 4
BITMAP
0D
0D
0D
0D
0D
0D
0D
0D
0D
FD
01
FF
ENDCHAR
STARTCHAR 255E
ENCODING 9566
SWIDTH 600 0
DWIDTH 10 0
BBX 6 22 5 -6
BITMAP
80
80
80
80
80
80
80
80
80
FC
80
FC
80
80
80
80
80
80
80
80
80
80
ENDCHAR
STARTCHAR 255F
ENCODING 9567
SWIDTH 600 0
DWIDTH 10 0
BBX 8 22 3 -6
BITMAP
D0
D0
D0
D0
D0
D0
D0
D0
D0
D0
DF
D0
D0
D0
D0
D0
D0
D0
D0
D0
D0
D0
ENDCHAR
STARTCHAR 2560
ENCODING 9568
SWIDTH 600 0
DWIDTH 10 0
BBX 8 22 3 -6
BITMAP
D0
D0
D0
D0
D0
D0
D0
D0
D0
DF
C0
DF
D0
D0
D0
D0
D0
D0
D0
D0
D0
D0
ENDCHAR
STARTCHAR 2561
ENCODING 9569
SWIDTH 600 0
DWIDTH 10 0
BBX 7 22 -1 -6
BITMAP
02
02
02
02
02
02
02
02
02
FE
02
FE
02
02
02
02
02
02
02
02
02
02
ENDCHAR
STARTCHAR 2562
ENCODING 9570
SWIDTH 600 0
DWIDTH 10 0
BBX 8 22 -1 -6
BITMAP
0D
0D
0D
0D
0D
0D
0D
0D
0D
0D
FD
0D
0D
0D
0D
0D
0D
0D
0D
0D
0D
0D
ENDCHAR
STARTCHAR 2563
ENCODING 9571
SWIDTH 600 0
DWIDTH 10 0
BBX 8 22 -1 -6
BITMAP
0D
0D
0D
0D
0D
0D
0D
0D
0D
FD
01
FD
0D
0D
0D
0D
0D
0D
0D
0D
0D
0D
ENDCHAR
STARTCHAR 2564
ENCODING 9572
SWIDTH 600 0
DWIDTH 10 0
BBX 12 13 -1 -6
BITMAP
FFF0
0000
FFF0
0200
0200
0200
0200
0200
0200
0200
0200
0200
0200
ENDCHAR
STARTCHAR 2565
ENCODING 9573
SWIDTH 600 0
DWIDTH 10 0
BBX 12 12 -1 -6
BITMAP
FFF0
0D00
0D00
0D00
0D00
0D00
0D00
0D00
0D00
0D00
0D00
0D00
ENDCHAR
STARTCHAR 2566
ENCODING 9574
SWIDTH 600 0
DWIDTH 10 0
BBX 12 13 -1 -6
BITMAP
FFF0
0000
FDF0
0D00
0D00
0D00
0D00
0D00
0D00
0D00
0D00
0D00
0D00
ENDCHAR
STARTCHAR 2567
ENCODING 9575
SWIDTH 600 0
DWIDTH 10 0
BBX 12 12 -1 4
BITMAP
0200
0200
0200
0200
0200
0200
0200
0200
0200
FFF0
0000
FFF0
ENDCHAR
STARTCHAR 2568
ENCODING 9576
SWIDTH 600 0
DWIDTH 10 0
BBX 12 11 -1 5
BITMAP
0D00
0D00
0D00
0D00
0D00
0D00
0D00
0D00
0D00
0D00
FFF0
ENDCHAR
STARTCHAR 2569
ENCODING 9577
SWIDTH 600 0
DWIDTH 10 0
BBX 12 12 -1 4
BITMAP
0D00
0D00
0D00
0D00
0D00
0D00
0D00
0D00
0D00
FDF0
0000
FFF0
ENDCHAR
STARTCHAR 256A
ENCODING 9578
SWIDTH 600 0
DWIDTH 10 0
BBX 12 22 -1 -6
BITMAP
0200
0200
0200
0200
0200
0200
0200
0200
0200
FFF0
0200
FFF0
0200
0200
0200
0200
0200
0200
0200
0200
0200
0200
ENDCHAR
STARTCHAR 256B
ENCODING 9579
SWIDTH 600 0
DWIDTH 10 0
BBX 12 22 -1 -6
BITMAP
0D00
0D00
0D00
0D00
0D00
0D00
0D00
0D00
0D00
0D00
FFF0
0D00
0D00
0D00
0D00
0D00
0D00
0D00
0D00
0D00
0D00
0D00
ENDCHAR
STARTCHAR 256C
ENCODING 9580
SWIDTH 600 0
DWIDTH 10 0
BBX 12 22 -1 -6
BITMAP
0D00
0D00
0D00
0D00
0D00
0D00
0D00
0D00
0D00
FDF0
0000
FDF0
0D00
0D00
0D00
0D00
0D00
0D00
0D00
0D00
0D00
0D00
ENDCHAR
STARTCHAR 256D
ENCODING 9581
SWIDTH 600 0
DWIDTH 10 0
BBX 6 12 5 -6
BITMAP
1C
60
C0
80
80
80
80
80
80
80
80
80
ENDCHAR
STARTCHAR 256E
ENCODING 9582
SWIDTH 600 0
DWIDTH 10 0
BBX 7 12 -1 -6
BITMAP
F0
18
0C
04
06
02
02
02
02
02
02
02
ENDCHAR
STARTCHAR 256F
ENCODING 9583
SWIDTH 600 0
DWIDTH 10 0
BBX 7 11 -1 5
BITMAP
02
02
02
02
02
02
06
04
04
18
F0
ENDCHAR
STARTCHAR 2570
ENCODING 9584
SWIDTH 600 0
DWIDTH 10 0
BBX 6 11 5 5
BITMAP
80
80
80
80
80
80
80
80
C0
60
1C
ENDCHAR
STARTCHAR 2571
ENCODING 9585
SWIDTH 600 0
DWIDTH 10 0
BBX 10 19 0 -4
BITMAP
0040
0040
00C0
0080
0100
0100
0200
0200
0400
0C00
0800
1800
1000
3000
2000
6000
4000
8000
8000
ENDCHAR
STARTCHAR 2572
ENCODING 9586
SWIDTH 600 0
DWIDTH 10 0
BBX 10 19 0 -4
BITMAP
8000
8000
4000
6000
2000
3000
1000
1800
0800
0C00
0400
0200
0200
0100
0100
0080
00C0
0040
0040
ENDCHAR
STARTCHAR 2573
ENCODING 9587
SWIDTH 600 0
DWIDTH 10 0
BBX 10 19 0 -4
BITMAP
8040
8040
40C0
6080
2100
3100
1200
1E00
0C00
0C00
0C00
1E00
1200
3100
2100
6080
40C0
8040
8040
ENDCHAR
STARTCHAR 2574
ENCODING 9588
SWIDTH 600 0
DWIDTH 10 0
BBX 7 1 -1 5
BITMAP
FE
ENDCHAR
STARTCHAR 2575
ENCODING 9589
SWIDTH 600 0
DWIDTH 10 0
BBX 1 12 5 4
BITMAP
80
80
80
80
80
80
80
80
80
80
80
80
ENDCHAR
STARTCHAR 2576
ENCODING 9590
SWIDTH 600 0
DWIDTH 10 0
BBX 6 1 5 5
BITMAP
FC
ENDCHAR
STARTCHAR 2577
ENCODING 9591
SWIDTH 600 0
DWIDTH 10 0
BBX 1 12 5 -6
BITMAP
80
80
80
80
80
80
80
80
80
80
80
80
ENDCHAR
STARTCHAR 2578
ENCODING 9592
SWIDTH 600 0
DWIDTH 10 0
BBX 7 3 -1 4
BITMAP
FE
FE
FE
ENDCHAR
STARTCHAR 2579
ENCODING 9593
SWIDTH 600 0
DWIDTH 10 0
BBX 2 12 4 4
BITMAP
C0
C0
C0
C0
C0
C0
C0
C0
C0
C0
C0
C0
ENDCHAR
STARTCHAR 257A
ENCODING 9594
SWIDTH 600 0
DWIDTH 10 0
BBX 6 3 5 4
BITMAP
FC
FC
FC
ENDCHAR
STARTCHAR 257B
ENCODING 9595
SWIDTH 600 0
DWIDTH 10 0
BBX 2 12 4 -6
BITMAP
C0
C0
C0
C0
C0
C0
C0
C0
C0
C0
C0
C0
ENDCHAR
STARTCHAR 257C
ENCODING 9596
SWIDTH 600 0
DWIDTH 10 0
BBX 12 3 -1 4
BITMAP
03F0
FFF0
03F0
ENDCHAR
STARTCHAR 257D
ENCODING 9597
SWIDTH 600 0
DWIDTH 10 0
BBX 2 22 4 -6
BITMAP
40
40
40
40
40
40
40
40
40
40
C0
C0
C0
C0
C0
C0
C0
C0
C0
C0
C0
C0
ENDCHAR
STARTCHAR 257E
ENCODING 9598
SWIDTH 600 0
DWIDTH 10 0
BBX 12 3 -1 4
BITMAP
FE00
FFF0
FE00
ENDCHAR
STARTCHAR 257F
ENCODING 9599
SWIDTH 600 0
DWIDTH 10 0
BBX 2 22 4 -6
BITMAP
C0
C0
C0
C0
C0
C0
C0
C0
C0
C0
C0
C0
40
40
40
40
40
40
40
40
40
40
ENDCHAR
STARTCHAR 2580
ENCODING 9600
SWIDTH 600 0
DWIDTH 10 0
BBX 10 11 0 5
BITMAP
FFC0
FFC0
FFC0
FFC0
FFC0
FFC0
FFC0
FFC0
FFC0
FFC0
FFC0
ENDCHAR
STARTCHAR 2581
ENCODING 9601
SWIDTH 600 0
DWIDTH 10 0
BBX 10 3 0 -6
BITMAP
FFC0
FFC0
FFC0
ENDCHAR
STARTCHAR 2582
ENCODING 9602
SWIDTH 600 0
DWIDTH 10 0
BBX 10 6 0 -6
BITMAP
FFC0
FFC0
FFC0
FFC0
FFC0
FFC0
ENDCHAR
STARTCHAR 2583
ENCODING 9603
SWIDTH 600 0
DWIDTH 10 0
BBX 10 8 0 -6
BITMAP
FFC0
FFC0
FFC0
FFC0
FFC0
FFC0
FFC0
FFC0
ENDCHAR
STARTCHAR 2584
ENCODING 9604
SWIDTH 600 0
DWIDTH 10 0
BBX 10 11 0 -6
BITMAP
FFC0
FFC0
FFC0
FFC0
FFC0
FFC0
FFC0
FFC0
FFC0
FFC0
FFC0
ENDCHAR
STARTCHAR 2585
ENCODING 9605
SWIDTH 600 0
DWIDTH 10 0
BBX 10 14 0 -6
BITMAP
FFC0
FFC0
FFC0
FFC0
FFC0
FFC0
FFC0
FFC0
FFC0
FFC0
FFC0
FFC0
FFC0
FFC0
ENDCHAR
STARTCHAR 2586
ENCODING 9606
SWIDTH 600 0
DWIDTH 10 0
BBX 10 17 0 -6
BITMAP
FFC0
FFC0
FFC0
FFC0
FFC0
FFC0
FFC0
FFC0
FFC0
FFC0
FFC0
FFC0
FFC0
FFC0
FFC0
FFC0
FFC0
ENDCHAR
STARTCHAR 2587
ENCODING 9607
SWIDTH 600 0
DWIDTH 10 0
BBX 10 19 0 -6
BITMAP
FFC0
FFC0
FFC0
FFC0
FFC0
FFC0
FFC0
FFC0
FFC0
FFC0
FFC0
FFC0
FFC0
FFC0
FFC0
FFC0
FFC0
FFC0
FFC0
ENDCHAR
STARTCHAR 2588
ENCODING 9608
SWIDTH 600 0
DWIDTH 10 0
BBX 10 22 0 -6
BITMAP
FFC0
FFC0
FFC0
FFC0
FFC0
FFC0
FFC0
FFC0
FFC0
FFC0
FFC0
FFC0
FFC0
FFC0
FFC0
FFC0
FFC0
FFC0
FFC0
FFC0
FFC0
FFC0
ENDCHAR
STARTCHAR 2589
ENCODING 9609
SWIDTH 600 0
DWIDTH 10 0
BBX 9 22 0 -6
BITMAP
FF80
FF80
FF80
FF80
FF80
FF80
FF80
FF80
FF80
FF80
FF80
FF80
FF80
FF80
FF80
FF80
FF80
FF80
FF80
FF80
FF80
FF80
ENDCHAR
STARTCHAR 258A
ENCODING 9610
SWIDTH 600 0
DWIDTH 10 0
BBX 8 22 0 -6
BITMAP
FF
FF
FF
FF
FF
FF
FF
FF
FF
FF
FF
FF
FF
FF
FF
FF
FF
FF
FF
FF
FF
FF
ENDCHAR
STARTCHAR 258B
ENCODING 9611
SWIDTH 600 0
DWIDTH 10 0
BBX 6 22 0 -6
BITMAP
FC
FC
FC
FC
FC
FC
FC
FC
FC
FC
FC
FC
FC
FC
FC
FC
FC
FC
FC
FC
FC
FC
ENDCHAR
STARTCHAR 258C
ENCODING 9612
SWIDTH 600 0
DWIDTH 10 0
BBX 5 22 0 -6
BITMAP
F8
F8
F8
F8
F8
F8
F8
F8
F8
F8
F8
F8
F8
F8
F8
F8
F8
F8
F8
F8
F8
F8
ENDCHAR
STARTCHAR 258D
ENCODING 9613
SWIDTH 600 0
DWIDTH 10 0
BBX 4 22 0 -6
BITMAP
F0
F0
F0
F0
F0
F0
F0
F0
F0
F0
F0
F0
F0
F0
F0
F0
F0
F0
F0
F0
F0
F0
ENDCHAR
STARTCHAR 258E
ENCODING 9614
SWIDTH 600 0
DWIDTH 10 0
BBX 3 22 0 -6
BITMAP
E0
E0
E0
E0
E0
E0
E0
E0
E0
E0
E0
E0
E0
E0
E0
E0
E0
E0
E0
E0
E0
E0
ENDCHAR
STARTCHAR 258F
ENCODING 9615
SWIDTH 600 0
DWIDTH 10 0
BBX 1 22 0 -6
BITMAP
80
80
80
80
80
80
80
80
80
80
80
80
80
80
80
80
80
80
80
80
80
80
ENDCHAR
STARTCHAR 2590
ENCODING 9616
SWIDTH 600 0
DWIDTH 10 0
BBX 5 22 5 -6
BITMAP
F8
F8
F8
F8
F8
F8
F8
F8
F8
F8
F8
F8
F8
F8
F8
F8
F8
F8
F8
F8
F8
F8
ENDCHAR
STARTCHAR 2591
ENCODING 9617
SWIDTH 600 0
DWIDTH 10 0
BBX 9 22 0 -5
BITMAP
4480
4C80
9200
4480
4C80
9200
4480
4C80
9200
4480
4C80
9200
4480
4C80
0000
9200
4480
4C80
9200
4480
4C80
9200
ENDCHAR
STARTCHAR 2592
ENCODING 9618
SWIDTH 600 0
DWIDTH 10 0
BBX 10 22 -1 -5
BITMAP
3640
FF40
C900
3640
3640
C900
FF40
3640
C900
FF40
3640
C900
FF40
3640
C900
C900
3640
FF40
C900
3640
FF40
C900
ENDCHAR
STARTCHAR 2593
ENCODING 9619
SWIDTH 600 0
DWIDTH 10 0
BBX 11 23 -1 -5
BITMAP
36E0
76E0
FFE0
FFC0
76E0
76E0
FFC0
FFE0
76E0
FFE0
FFE0
76E0
FFE0
FFE0
76E0
FFE0
FFE0
76E0
FFE0
FFE0
76E0
FFE0
C980
ENDCHAR
STARTCHAR 2594
ENCODING 9620
SWIDTH 600 0
DWIDTH 10 0
BBX 10 3 0 13
BITMAP
FFC0
FFC0
FFC0
ENDCHAR
STARTCHAR 2595
ENCODING 9621
SWIDTH 600 0
DWIDTH 10 0
BBX 1 22 9 -6
BITMAP
80
80
80
80
80
80
80
80
80
80
80
80
80
80
80
80
80
80
80
80
80
80
ENDCHAR
STARTCHAR 2596
ENCODING 9622
SWIDTH 600 0
DWIDTH 10 0
BBX 5 11 0 -6
BITMAP
F8
F8
F8
F8
F8
F8
F8
F8
F8
F8
F8
ENDCHAR
STARTCHAR 2597
ENCODING 9623
SWIDTH 600 0
DWIDTH 10 0
BBX 5 11 5 -6
BITMAP
F8
F8
F8
F8
F8
F8
F8
F8
F8
F8
F8
ENDCHAR
STARTCHAR 2598
ENCODING 9624
SWIDTH 600 0
DWIDTH 10 0
BBX 5 11 0 5
BITMAP
F8
F8
F8
F8
F8
F8
F8
F8
F8
F8
F8
ENDCHAR
STARTCHAR 2599
ENCODING 9625
SWIDTH 600 0
DWIDTH 10 0
BBX 10 22 0 -6
BITMAP
F800
F800
F800
F800
F800
F800
F800
F800
F800
F800
F800
FFC0
FFC0
FFC0
FFC0
FFC0
FFC0
FFC0
FFC0
FFC0
FFC0
FFC0
ENDCHAR
STARTCHAR 259A
ENCODING 9626
SWIDTH 600 0
DWIDTH 10 0
BBX 10 22 0 -6
BITMAP
F800
F800
F800
F800
F800
F800
F800
F800
F800
F800
F800
07C0
07C0
07C0
07C0
07C0
07C0
07C0
07C0
07C0
07C0
07C0
ENDCHAR
STARTCHAR 259B
ENCODING 9627
SWIDTH 600 0
DWIDTH 10 0
BBX 10 22 0 -6
BITMAP
FFC0
FFC0
FFC0
FFC0
FFC0
FFC0
FFC0
FFC0
FFC0
FFC0
FFC0
F800
F800
F800
F800
F800
F800
F800
F800
F800
F800
F800
ENDCHAR
STARTCHAR 259C
ENCODING 9628
SWIDTH 600 0
DWIDTH 10 0
BBX 10 22 0 -6
BITMAP
FFC0
FFC0
FFC0
FFC0
FFC0
FFC0
FFC0
FFC0
FFC0
FFC0
FFC0
07C0
07C0
07C0
07C0
07C0
07C0
07C0
07C0
07C0
07C0
07C0
ENDCHAR
STARTCHAR 259D
ENCODING 9629
SWIDTH 600 0
DWIDTH 10 0
BBX 5 11 5 5
BITMAP
F8
F8
F8
F8
F8
F8
F8
F8
F8
F8
F8
ENDCHAR
STARTCHAR 259E
ENCODING 9630
SWIDTH 600 0
DWIDTH 10 0
BBX 10 22 0 -6
BITMAP
07C0
07C0
07C0
07C0
07C0
07C0
07C0
07C0
07C0
07C0
07C0
F800
F800
F800
F800
F800
F800
F800
F800
F800
F800
F800
ENDCHAR
STARTCHAR 259F
ENCODING 9631
SWIDTH 600 0
DWIDTH 10 0
BBX 10 22 0 -6
BITMAP
07C0
07C0
07C0
07C0
07C0
07C0
07C0
07C0
07C0
07C0
07C0
FFC0
FFC0
FFC0
FFC0
FFC0
FFC0
FFC0
FFC0
FFC0
FFC0
FFC0
ENDCHAR
STARTCHAR 25CA
ENCODING 9674
SWIDTH 600 0
DWIDTH 10 0
BBX 9 12 1 0
BITMAP
1800
3C00
3400
6600
4300
C100
C180
4300
6600
3400
3C00
1800
ENDCHAR
STARTCHAR 2713
ENCODING 10003
SWIDTH 600 0
DWIDTH 10 0
BBX 10 12 0 0
BITMAP
00C0
00C0
0180
C180
6180
6300
2300
3600
3600
1400
1C00
1C00
ENDCHAR
STARTCHAR 274C
ENCODING 10060
SWIDTH 600 0
DWIDTH 10 0
BBX 9 12 1 0
BITMAP
8100
C380
6300
6600
3C00
1C00
1800
3C00
6600
6700
C300
8180
ENDCHAR
STARTCHAR 2B0E
ENCODING 11022
SWIDTH 600 0
DWIDTH 10 0
BBX 10 8 0 2
BITMAP
FE00
0600
0600
1680
3EC0
1F80
0F00
0600
ENDCHAR
STARTCHAR 2B0F
ENCODING 11023
SWIDTH 600 0
DWIDTH 10 0
BBX 10 8 0 2
BITMAP
0600
0F00
1F80
3EC0
1680
0600
0600
FE00
ENDCHAR
STARTCHAR 2B10
ENCODING 11024
SWIDTH 600 0
DWIDTH 10 0
BBX 10 8 0 2
BITMAP
1FC0
1800
1800
5A00
FB00
7E00
3C00
1800
ENDCHAR
STARTCHAR 2B11
ENCODING 11025
SWIDTH 600 0
DWIDTH 10 0
BBX 10 8 0 2
BITMAP
1800
3C00
7E00
FB00
5A00
1800
1800
1FC0
ENDCHAR
STARTCHAR F6D7
ENCODING 63191
SWIDTH 0 0
DWIDTH 0 0
BBX 6 6 -3 10
BITMAP
10
18
10
30
CC
CC
ENDCHAR
STARTCHAR F6D8
ENCODING 63192
SWIDTH 0 0
DWIDTH 0 0
BBX 6 6 -3 10
BITMAP
40
60
20
30
CC
CC
ENDCHAR
STARTCHAR FB01
ENCODING 64257
SWIDTH 600 0
DWIDTH 10 0
BBX 8 13 1 0
BITMAP
7B
7B
40
40
FF
FF
43
43
43
43
43
43
43
ENDCHAR
STARTCHAR FB02
ENCODING 64258
SWIDTH 600 0
DWIDTH 10 0
BBX 8 13 1 0
BITMAP
7B
7B
43
43
FB
FB
43
43
43
43
43
43
43
ENDCHAR
ENDFONT
